<?xml version="1.0" encoding="UTF-8" standalone="no"?>
<svg
   version="1.0"
   width="991.45544"
   height="307.43799"
   viewBox="0 0 991.45544 307.43799"
   preserveAspectRatio="xMidYMid"
   id="svg28"
   xmlns="http://www.w3.org/2000/svg"
   xmlns:svg="http://www.w3.org/2000/svg">
  <defs
     id="defs28" />
  <g
     fill="#223c7e"
     id="g20"
     transform="translate(-11.044573,-7.5)">
    <path
       d="m 157.3,314.2 c -28.4,-5.15 -49.2,-30.1 -49.3,-59.05 0,-14.2 5.35,-28.65 14.45,-38.8 1.75,-2 11.55,-12.15 21.75,-22.6 10.25,-10.45 19.75,-20.25 21.2,-21.75 l 2.6,-2.75 3.6,3.75 c 1.95,2.05 11.35,11.75 20.85,21.5 25.3,25.95 25.2,25.8 29.15,33.75 4.6,9.1 6.15,16.05 6.1,27.25 0,7.25 -0.15,8.9 -1.3,13.5 -6,23.8 -24.45,41.1 -48.25,45.25 -5.3,0.95 -15.55,0.9 -20.85,-0.05 z m 20.95,-5.2 c 25.9,-5.1 45.9,-30.35 44.55,-56.25 -0.5,-10.4 -4.4,-21.3 -10.45,-29.3 -1.15,-1.6 -9.65,-10.6 -18.85,-20 -9.25,-9.45 -18.75,-19.2 -21.15,-21.7 l -4.35,-4.5 -3.9,4 c -2.1,2.2 -11.6,11.9 -21.05,21.6 -9.45,9.65 -18.05,18.75 -19.1,20.15 -7.25,9.65 -11.5,23.3 -10.8,34.75 1.45,23.5 18.95,44.7 41.8,50.6 8.5,2.15 14.7,2.35 23.3,0.65 z"
       id="path3" />
    <path
       d="M 95.75,232.6 C 81.35,224.7 70.4,216.45 58.25,204.25 35.45,181.45 20.5,153.65 14.05,122.25 11.2,108.3 10.25,91.45 11.75,80 14.85,55.5 22.9,32.55 34.45,15.15 L 38.55,9 H 52.5 c 7.7,0 14,0.15 14,0.3 0,0.15 -1.5,1.9 -3.35,3.9 C 52.1,25.1 43.45,41 38.3,59 c -3.7,12.9 -5.4,23.75 -5.35,34.35 0.1,42.7 21.75,85 56.8,110.9 6,4.4 12.2,8.45 15.75,10.25 1.25,0.6 2.35,1.2 2.45,1.3 0.1,0.1 -0.5,1.25 -1.35,2.55 -2.15,3.4 -5.5,10.45 -6.4,13.55 -0.45,1.4 -0.8,2.6 -0.85,2.6 -0.05,0 -1.65,-0.85 -3.6,-1.9 z"
       id="path4" />
    <path
       d="m 235.55,231.2 c -1.2,-3.65 -4.35,-10.2 -6.25,-13.05 -0.7,-1 -1.15,-2 -1,-2.2 0.1,-0.2 1.65,-1.15 3.4,-2.15 14.3,-8 30,-21.35 40.3,-34.3 16,-20.15 25.7,-42.3 29.85,-68.25 0.65,-4.1 0.85,-8.5 0.85,-17.5 0,-10.35 -0.15,-12.85 -1.1,-18.2 -4.8,-26.2 -14.5,-47.1 -29.1,-62.7 -1.65,-1.8 -3,-3.35 -3,-3.55 0,-0.15 6.3,-0.3 14,-0.3 h 14.05 l 4,6.15 c 9.2,14 17.2,33.85 20.45,50.85 2.65,13.55 3.2,19.6 2.85,30.5 -0.55,17.35 -3.7,33.45 -9.7,49.75 -2.9,7.8 -10.1,22.45 -14.6,29.7 -14.5,23.2 -36.05,43.55 -59.6,56.25 l -4.3,2.3 z"
       id="path5" />
    <path
       d="M 109.25,204.9 C 68.95,182.45 43.6,141.65 42.15,97 41.6,78.65 45.95,59.7 54.85,42 60.5,30.75 65,24.7 76.6,12.65 L 80.1,9 h 14.75 14.75 l -3.9,4.15 C 84.7,35.4 83.5,36.7 79.8,42.25 70.7,55.8 64.05,77.7 64,94 c 0,6.7 1.3,16.7 3.25,24.35 4.85,19.25 13.35,34.45 27.25,48.8 9.3,9.6 18.45,16.35 29.9,22 l 6.15,3 -7.4,7.55 c -4.15,4.2 -7.85,7.6 -8.4,7.65 -0.55,0.05 -3,-1.05 -5.5,-2.45 z"
       id="path6" />
    <path
       d="m 212.85,199.75 -7.4,-7.6 6.15,-3.05 c 30.25,-14.95 52.3,-43.6 58.4,-76 2.25,-12 2.55,-20.25 1.05,-30.35 -1.8,-12.1 -4.5,-20.75 -9.8,-31.5 C 255.65,39.9 252.6,36.2 229.8,12.6 L 226.3,9 h 14.8 14.8 l 3.5,3.65 c 11.05,11.5 15.95,17.95 21.05,27.85 4.05,7.9 5.95,12.5 8.25,20.15 5.9,19.6 6.8,37.2 2.8,56.9 -6.1,29.9 -23.65,57.85 -48,76.45 -7.45,5.7 -20.6,13.55 -22.4,13.45 -0.45,-0.05 -4.2,-3.5 -8.25,-7.7 z"
       id="path7" />
    <path
       d="M 132.65,181.8 C 110.8,172.45 93.5,155.9 82.95,134.25 77.6,123.2 74.5,111.75 73.5,99.05 c -1.05,-13.4 2.05,-29.1 8.65,-43.2 4.7,-10 7.85,-13.95 27.3,-34.2 L 121.55,9 h 16.1 16.05 L 133.4,29.35 C 112.3,50.55 110.25,52.7 107.05,57.4 102.5,64.1 98.3,75.05 96.8,83.95 c -4.95,29.65 12.15,61.75 40.5,76 4.9,2.5 14.8,6.05 16.75,6.05 0.6,0 0.95,0.25 0.85,0.65 -0.3,0.85 -16.05,17.25 -16.65,17.3 -0.25,0 -2.8,-0.95 -5.6,-2.15 z"
       id="path8" />
    <path
       d="m 189.3,175.45 c -4.55,-4.7 -8.3,-8.7 -8.3,-8.9 0,-0.15 1.65,-0.7 3.6,-1.2 12.9,-3.2 27.5,-12.25 36.5,-22.6 17.75,-20.4 23.35,-46.5 15.15,-70.55 -1.8,-5.3 -5.2,-12.1 -8,-16 -3,-4.15 -14.5,-16.2 -31.9,-33.3 L 182.25,9.05 198.35,9 h 16.05 l 10.45,10.9 c 16.5,17.1 20,21 23.4,26.1 9.9,14.8 15.75,36.4 14.3,53.15 -2.9,34 -21.8,62.95 -51.55,79 -4,2.15 -9.9,4.85 -12.3,5.55 -0.9,0.25 -2.45,-1.1 -9.4,-8.25 z"
       id="path9" />
    <path
       d="m 159.4,157 c -10.35,-1.65 -20.1,-5.65 -28.4,-11.65 -1.5,-1.1 -4.65,-3.95 -7.05,-6.3 C 106.7,121.7 101.3,95.5 110.3,72.65 112,68.3 115.9,61.35 118.7,57.75 119.9,56.2 130.7,45 142.65,32.85 154.6,20.7 164.95,10 165.7,9.1 c 0.75,-0.85 1.65,-1.6 2,-1.6 0.35,0 6.05,5.45 12.6,12.15 38.8,39.2 38.75,39.15 43.15,48.1 17.9,36.45 -2.4,79.2 -41.95,88.3 -4.85,1.15 -17.5,1.65 -22.1,0.95 z"
       id="path10" />
    <path
       d="m 351,75.65 c 0,-41 0,-40.65 3.3,-47.55 1.45,-3 2.75,-4.75 6.15,-8.15 11,-10.95 25.7,-13.45 39.15,-6.65 9.3,4.65 14.85,11.1 17.35,20.2 1,3.5 1.05,5.05 1.05,24.25 0,11.25 0.15,21 0.3,21.6 0.35,1.35 1.8,1.9 3.15,1.2 0.95,-0.55 1,-1.3 1.15,-22.15 0.2,-20.95 0.25,-21.75 1.35,-25.15 1.95,-5.9 4,-9.2 8.55,-13.8 3.4,-3.45 5.1,-4.7 8.5,-6.35 5.25,-2.6 9.15,-3.6 13.8,-3.6 13.15,0 26.3,7.75 31.65,18.6 3.6,7.25 3.55,6.85 3.45,47.75 l -0.15,36.4 H 474 458.25 L 458,76.75 457.75,41.25 456.6,41.1 C 454,40.7 454,40.5 454,62.55 c 0,16.4 -0.15,21.1 -0.75,24 -2.4,11.4 -11.3,20.45 -24,24.45 -5.5,1.75 -12.6,1.6 -18.55,-0.4 -11.85,-4 -20.1,-12.45 -22.9,-23.4 -0.65,-2.45 -0.8,-6.8 -0.8,-23.95 -0.05,-14.2 -0.2,-21.15 -0.6,-21.6 -0.95,-1.15 -2.85,-0.8 -3.4,0.65 -0.35,0.8 -0.5,14 -0.5,35.15 0,18.6 0,34.1 0,34.45 0,0.45 -3.5,0.6 -15.75,0.6 H 351 Z"
       id="path11" />
    <path
       d="M 496.2,111.85 C 496.1,111.5 496.05,94.3 496.1,73.7 l 0.15,-37.45 1.35,-4 c 3.4,-9.9 10.55,-17.6 19.85,-21.35 2.75,-1.15 3.1,-1.15 28.15,-1.3 26.75,-0.15 29.1,0 33.6,2.05 8.15,3.8 15.7,13.25 18.6,23.35 1.15,4.1 1.2,12.3 0,17.15 -2.75,11.55 -11.25,20.45 -22.55,23.7 -2.55,0.7 -6.2,0.85 -25.35,1.05 l -22.4,0.15 -0.1,17.6 -0.15,17.6 -15.4,0.15 c -12.45,0.1 -15.4,0 -15.65,-0.55 z M 567.55,44.4 c 0.65,-1 0.55,-1.75 -0.35,-2.6 -0.65,-0.7 -3.15,-0.8 -19.7,-0.8 -16.55,0 -19.05,0.1 -19.7,0.8 -1.4,1.4 -0.75,2.85 1.4,3.25 0.55,0.1 9.3,0.15 19.45,0.1 14.75,-0.05 18.6,-0.2 18.9,-0.75 z"
       id="path12" />
    <path
       d="m 739.55,111.7 c -8.65,-1.9 -16.95,-8.5 -21,-16.75 -3.95,-8.1 -3.8,-6.1 -3.8,-47.7 v -37 L 730.4,10.1 746,10 v 35.2 c 0,27.65 0.15,35.35 0.65,35.65 0.3,0.2 8.7,0.45 18.6,0.5 l 18,0.05 0.15,15.55 0.1,15.55 -20.35,-0.05 C 747.6,112.4 742,112.25 739.55,111.7 Z M 778.5,96.75 V 86 H 761.45 744.4 L 742.7,84.3 741,82.6 V 48.8 15 H 730.25 719.5 v 32.75 c 0,37.15 0.05,37.5 3.65,44.5 3.75,7.2 10.6,12.75 18,14.55 1.8,0.45 7.8,0.65 20,0.65 l 17.35,0.05 z"
       id="path13" />
    <path
       d="m 792.9,76.65 -0.15,-35.9 -13,-0.1 C 772.6,40.6 764.9,40.5 762.65,40.5 H 758.5 V 25.25 10 H 808.75 859 V 25.5 41 H 841.75 824.5 l -0.1,35.65 -0.15,35.6 -15.6,0.15 -15.65,0.1 z m 26.6,-4.9 V 36 H 836.75 854 V 25.5 15 H 808.75 763.5 l 0.1,10.4 0.15,10.35 17.15,0.15 17.1,0.1 v 35.75 35.75 h 10.75 10.75 z"
       id="path14" />
    <path
       d="M 864.85,112.15 C 864.65,112 864.5,88.9 864.5,60.9 V 9.95 l 37.9,0.15 c 42.25,0.2 39.1,-0.05 47.05,3.85 4.7,2.25 11.05,8.15 13.7,12.6 3.05,5.15 4.45,10.25 4.5,16.45 0.1,9.75 -2.7,16.6 -9.6,23.55 -3.5,3.5 -5.1,4.7 -8.55,6.35 -5.45,2.7 -9.2,3.6 -14.5,3.6 -4.8,0 -6.65,0.8 -6.4,2.65 0.15,1.1 0.15,1.1 19.65,1.35 l 19.5,0.25 0.15,15.9 0.1,15.9 -19.85,-0.15 c -18.65,-0.2 -20.15,-0.3 -23.9,-1.3 -13.3,-3.65 -22.9,-12.15 -26.4,-23.35 -1.4,-4.6 -1.5,-13.05 -0.15,-17.45 3.4,-11.3 11.5,-19.6 23.05,-23.6 3.45,-1.2 4.85,-1.4 9.95,-1.45 5.05,-0.05 6.05,-0.2 6.5,-0.9 0.4,-0.6 0.4,-1.1 0,-1.7 -0.5,-0.85 -2.25,-0.9 -21.15,-1.15 C 904.7,41.35 895.3,41.35 895.2,41.45 895.1,41.55 895,57.6 895,77.1 v 35.4 h -14.9 c -8.2,0 -15.1,-0.15 -15.25,-0.35 z m 25.25,-40 0.15,-35.4 23.9,-0.15 c 26.25,-0.1 26.05,-0.15 27.6,2.9 0.4,0.8 0.75,2.6 0.75,4 0,1.4 -0.35,3.2 -0.75,4 -1.3,2.5 -2.95,3 -9.3,2.85 -4.45,-0.05 -6.3,0.1 -8.45,0.85 -10.85,3.65 -19.15,12.1 -21.7,22.1 -2.15,8.4 0.45,16.5 7.7,23.75 5.2,5.2 11.05,8.25 18.9,9.75 4,0.75 33.85,1.05 34.25,0.35 0.1,-0.25 0.1,-5.2 -0.05,-11 L 962.9,85.5 h -17.45 c -21.9,0 -21.95,0 -21.95,-6.35 0,-5.65 2.55,-7.65 9.85,-7.65 4.9,0 8.95,-0.85 12.55,-2.7 9,-4.55 15.15,-12.9 16.65,-22.55 0.45,-2.6 0.35,-4.1 -0.25,-7.1 C 960.45,30 954.45,22.3 945.8,18.05 939.6,15 939.55,15 902.9,15 H 869.5 V 61.25 107.5 H 879.75 890 Z"
       id="path15" />
    <path
       d="m 604.1,73.65 0.15,-38.4 1.35,-3.65 c 2.1,-5.6 4.25,-9 8.35,-13.15 2.8,-2.75 4.8,-4.3 7.55,-5.65 6.25,-3.05 8.4,-3.3 29.65,-3.3 H 670 V 25 40.5 h -17.45 c -15.2,0 -17.6,0.1 -18.25,0.8 -0.95,0.9 -1,1.9 -0.3,3.25 0.5,0.9 1.25,0.95 18.25,0.95 H 670 V 60.75 76 l -17.6,0.1 -17.65,0.15 -0.15,17.9 -0.1,17.85 h -15.25 -15.3 z m 25.4,15.6 V 71.5 H 647.25 665 V 61 50.55 L 648.2,50.4 631.4,50.25 630.25,48.9 c -2.25,-2.65 -2.25,-9.45 0,-11.7 l 1.2,-1.2 H 648.25 665 V 25.25 14.5 h -15.9 c -12.55,0 -16.5,0.15 -18.8,0.75 -10,2.6 -17.7,10.45 -20.6,21 -0.75,2.6 -0.85,7.3 -1.05,36.15 -0.15,18.25 -0.1,33.5 0.05,33.9 0.2,0.6 2.05,0.7 10.55,0.7 h 10.25 z"
       id="path16" />
    <path
       d="M 674,61 V 10 h 15.25 15.25 v 51 51 H 689.25 674 Z m 25.5,0 V 15 H 689.25 679 v 46 46 h 10.25 10.25 z"
       id="path17" />
    <path
       d="M 972,61 V 10 h 15.25 15.25 v 51 51 H 987.25 972 Z m 25.5,0 V 15 H 987.25 977 v 46 46 h 10.25 10.25 z"
       id="path18" />
  </g>
  <g
     fill="#f9b017"
     id="g27"
     transform="translate(-11.044573,-7.5)">
    <path
       d="M 162.25,311.5 C 142.7,309.4 126,297.65 117.2,279.75 c -7.95,-16.2 -7.55,-35.75 1.05,-51.5 3.9,-7.2 2.4,-5.55 45.1,-49.25 l 4.65,-4.75 5.1,5.25 c 2.85,2.9 12.65,13 21.9,22.45 17.75,18.2 19.85,20.6 22.95,26.55 4.25,8.1 6,14.75 6.4,24 0.9,21.3 -9.25,40.2 -27.65,51.35 -9.95,6.05 -22.7,8.9 -34.45,7.65 z"
       id="path21" />
    <path
       d="m 618.5,108.5 -11.25,-0.25 -0.15,-32.5 c -0.05,-20 0.1,-34.05 0.4,-36.5 1.5,-11.9 8.05,-20.55 18.75,-24.8 2.95,-1.15 3.35,-1.2 21.65,-1.35 l 18.6,-0.15 V 25.2 37.5 h -16.65 c -18.65,0 -18.4,-0.05 -19.35,3.5 -0.65,2.45 0,5.4 1.55,6.8 1,0.9 2.15,0.95 17.75,1.1 l 16.7,0.15 V 61 73 H 648.75 631 l -0.1,17.85 c -0.1,11.4 -0.35,17.85 -0.65,17.85 -0.25,0.05 -5.55,-0.05 -11.75,-0.2 z"
       id="path22" />
    <path
       d="m 739.65,108.3 c -7.4,-1.8 -14.25,-7.35 -18,-14.55 C 718,86.7 718,86.55 718,47.75 V 13.5 h 12.25 12.25 v 33.8 33.8 l 1.7,1.7 1.7,1.7 H 762.95 780 V 96.75 109 l -18.85,-0.05 c -13.4,0 -19.65,-0.2 -21.5,-0.65 z"
       id="path23" />
    <path
       d="m 796.5,108.65 c 0,-0.25 0,-16.3 0,-35.75 V 37.5 L 779.4,37.4 762.25,37.25 762.1,25.4 762,13.5 h 46.75 46.75 v 12 12 H 838.25 821 V 73.25 109 h -12.25 c -6.75,0 -12.25,-0.15 -12.25,-0.35 z"
       id="path24" />
    <path
       d="M 868,61.25 V 13.5 h 34.9 c 38.3,0 38.2,0 44.4,3.05 20.85,10.3 23.05,38.6 4,51.35 -5.6,3.75 -8.45,4.65 -15.8,5.05 -4.85,0.25 -6.55,0.55 -7.65,1.25 -2.45,1.65 -3.55,5.05 -2.35,7.3 1.15,2.15 2,2.25 21,2.5 l 18.25,0.25 v 12.25 12.25 l -16.25,0.15 c -17.45,0.15 -21.35,-0.15 -27,-2.2 -5.55,-2 -9.1,-4.2 -13,-8.15 -5.95,-6 -8.5,-11.9 -8.5,-19.7 0,-12.85 8.45,-24.05 21.85,-28.95 2.3,-0.85 4.15,-1.05 9.15,-1.15 6.85,-0.05 8.05,-0.45 9.25,-2.75 0.95,-1.85 0.95,-3.15 0,-5 -1.55,-3.05 -1.5,-3 -26.1,-2.9 l -22.4,0.15 -0.15,35.4 -0.1,35.35 H 879.75 868 Z"
       id="path25" />
    <path
       d="m 677.45,104.75 c -0.05,-2.05 -0.05,-4.3 -0.05,-5 0,-0.7 0,-20.35 0.05,-43.75 L 677.5,13.5 H 689.25 701 V 61 108.5 H 689.25 677.5 Z"
       id="path26" />
    <path
       d="M 975.5,61 V 13.5 H 987.25 999 V 61 108.5 H 987.25 975.5 Z"
       id="path27" />
  </g>
</svg>
