<?xml version="1.0" encoding="UTF-8" standalone="no"?>
<svg
   version="1.0"
   width="535.763"
   height="525.84296"
   viewBox="0 0 535.763 525.84296"
   preserveAspectRatio="xMidYMid"
   id="svg69"
   xmlns="http://www.w3.org/2000/svg"
   xmlns:svg="http://www.w3.org/2000/svg">
  <defs
     id="defs69" />
  <g
     fill="#ffa600"
     id="g2"
     transform="translate(-1,-1.5)">
    <path
       d="m 251.5,523.3 c -32.8,-5 -62,-28 -74.6,-58.8 -5.4,-13.1 -6.9,-21.7 -6.9,-39.7 0,-17.3 1.9,-27.9 6.9,-39.8 6.1,-14.6 11.2,-21.2 37.6,-48 13.7,-14 30.8,-31.5 37.9,-38.8 11.9,-12.1 13.3,-13.2 16.6,-13.2 3.3,0 5.6,2.2 40.8,38.4 20.6,21.1 39,40.5 40.9,43.2 5.1,7.1 11.8,21.6 14.5,31.4 2,7.4 2.2,10.8 2.2,27 0,16 -0.3,19.6 -2.2,26.7 -7.7,28.2 -26.4,50.9 -52.3,63.2 -13.7,6.6 -21.7,8.3 -41.4,8.6 -9.3,0.2 -18.3,0.1 -20,-0.2 z"
       id="path2" />
  </g>
  <g
     fill="#0026c7"
     id="g18"
     transform="translate(-1,-1.5)">
    <path
       d="m 278,525.2 c 0,-3.8 2.4,-5 10.5,-5.1 6.8,-0.1 7.5,0.1 7.5,1.9 0,2.1 -3.5,3.4 -12.7,4.6 -4.9,0.6 -5.3,0.5 -5.3,-1.4 z"
       id="path3" />
    <path
       d="m 240.8,523.8 c -8.6,-2.6 -9.1,-4.8 -1.3,-4.8 3.8,0 5.5,0.4 5.5,1.3 0,0.9 1.2,1.1 4,0.9 3.7,-0.4 4,-0.2 4,2.2 0,2.2 -0.4,2.6 -2.7,2.5 -1.6,-0.1 -5.8,-1 -9.5,-2.1 z"
       id="path4" />
    <path
       d="m 217,513 c 0,-0.5 -1.1,-1.2 -2.5,-1.6 -2.1,-0.5 -2.5,-1.2 -2.5,-4.6 v -4 l 3.3,2.1 c 1.7,1.2 5.3,3.3 8,4.8 2.6,1.4 4.7,3 4.7,3.5 0,0.4 -2.5,0.8 -5.5,0.8 -3,0 -5.5,-0.4 -5.5,-1 z"
       id="path5" />
    <path
       d="m 354,470.6 c 0,-0.2 1.1,-2.9 2.5,-6 3,-6.8 5.5,-7.5 5.5,-1.6 0,2.2 -0.4,4 -1,4 -0.5,0 -1,0.9 -1,2 0,1.6 -0.7,2 -3,2 -1.6,0 -3,-0.2 -3,-0.4 z"
       id="path6" />
    <path
       d="m 365.6,441.3 c -1.5,-0.4 -1.7,-1.1 -1.2,-4.1 0.3,-2.1 0.6,-6.7 0.6,-10.4 0,-6.1 0.2,-6.8 2,-6.8 1.3,0 2,0.7 2,2 0,1.1 0.5,2 1,2 1.1,0 1.4,12 0.4,15.8 -0.6,2.2 -1.2,2.4 -4.8,1.5 z"
       id="path7" />
    <path
       d="m 169.4,399.8 c 1,-5.3 6,-17.8 7.1,-17.8 0.5,0 1.6,1.2 2.2,2.7 1.1,2.2 1,3.5 -0.8,8.5 -1.2,3.2 -2.8,5.8 -3.5,5.8 -0.8,0 -1.4,0.9 -1.4,2 0,1.4 -0.7,2 -2.1,2 -1.9,0 -2.1,-0.4 -1.5,-3.2 z"
       id="path8" />
    <path
       d="M 142,384.7 C 94.8,358.5 54.3,316.1 30.1,267.7 10.7,228.8 1,189 1,148 1,103.4 16.6,51.6 40.9,15.3 L 47.5,5.5 71.8,5.2 C 85.1,5.1 96,5.3 96,5.6 96,6 93.2,9.2 89.8,12.8 64.6,39.8 48,76.9 40.4,123.5 c -4.7,28.4 -0.4,67.2 11.2,100.8 7.8,22.7 24.6,52.7 40.5,72.4 16,19.9 42.1,42.3 64.3,55.4 l 10.4,6.1 -3.8,6.2 c -2.2,3.3 -5.3,9.7 -7,14.1 -1.7,4.4 -3.4,8.8 -3.8,9.8 -0.6,1.5 -1.8,1.1 -10.2,-3.6 z"
       id="path9" />
    <path
       d="m 385.5,388.8 c -4.2,-12.3 -8.1,-20.7 -13.2,-28.4 -1.3,-2 -0.8,-2.4 9,-8.3 74.9,-45.2 120.4,-126.1 117.4,-209 -1,-29.7 -8.7,-60 -22.2,-87.6 C 468.9,39.9 461.3,28.2 450.2,15.6 445.7,10.4 442,5.9 442,5.6 442,5.3 452.8,5 465.9,5 h 24 l 6.9,10.3 c 17.4,26 29.7,58.2 36.8,96.2 2.4,13.1 2.8,17.5 2.8,35 0.2,44.1 -8.9,81.9 -29.5,122.6 -22.9,45.3 -59.9,85 -103.6,111.2 -15.2,9.1 -17.2,10.1 -17.8,8.5 z"
       id="path10" />
    <path
       d="m 346.2,331.7 c -7.3,-7.3 -13.2,-13.6 -13.2,-14 0,-0.4 2.9,-2 6.5,-3.6 3.5,-1.6 10.6,-5.4 15.8,-8.4 53.6,-31.6 87.5,-87.4 90.4,-148.9 1.5,-31.1 -8.8,-68.3 -26.2,-94.3 -6.2,-9.4 -11.1,-15 -34.1,-39.2 C 376.4,13.9 369,5.9 369,5.6 369,5.3 380.2,5 394,5 h 25 l 7.4,7.7 c 27.3,28.7 39.3,48.9 49.2,82.7 6.5,22.4 7.9,32.5 7.8,56.1 -0.1,18.4 -0.4,22.7 -2.8,34.8 -13.2,68.2 -55.8,124.6 -118.7,157.2 -2.5,1.3 -2.9,1.1 -15.7,-11.8 z"
       id="path11" />
    <path
       d="M 163.8,336.7 C 156.9,332.6 146.8,326 141.4,322 129.4,313 107.6,291.5 99.3,280.4 69.8,241.3 53.9,196.1 53.7,150.5 53.6,114.4 66,73 85.8,43.2 c 5.3,-8 12.7,-16.8 26.4,-31.5 l 6.3,-6.8 25.5,0.3 25.5,0.3 -15.2,15.8 c -35.7,36.9 -44.3,49.5 -53.7,78.3 -9.1,28.3 -11,50.3 -6.6,77.9 6,37.7 25.3,74.2 53.6,101.5 15.5,15 28.6,24.3 46.7,33.1 5.4,2.6 9.7,5.1 9.7,5.6 -0.2,1.8 -24.3,26.3 -25.9,26.3 -0.9,0 -7.4,-3.3 -14.3,-7.3 z"
       id="path12" />
    <path
       d="m 220,328.5 6.5,-6.6 0.3,3.1 c 0.4,3.3 -1.2,6 -3.3,6 -0.7,0 -1.5,0.9 -1.8,2 -0.4,1.6 -1.4,2 -4.3,2 h -3.8 z"
       id="path13" />
    <path
       d="m 244.2,310.1 c -0.8,-0.5 -1.2,-2.1 -1,-3.7 0.3,-2.6 0.7,-2.9 4.6,-3.2 2.3,-0.2 4.2,0.1 4.2,0.5 0,1.9 -6.5,7.2 -7.8,6.4 z"
       id="path14" />
    <path
       d="m 213.9,302.5 c -13.8,-5 -33.5,-16.7 -45.9,-27 -30.2,-25.2 -49.8,-58 -58.1,-97.1 -3.4,-15.8 -3.4,-41.4 -0.1,-56.3 4.9,-21.5 11.9,-39 21.7,-53.5 5.9,-8.8 14.6,-18.5 41,-45.9 L 189.7,5 h 27.1 c 15,0 27.2,0.1 27.2,0.3 0,0.1 -15.9,16.2 -35.3,35.7 -19.4,19.5 -37.7,38.7 -40.6,42.5 -7.6,10 -14.6,25 -18.3,39.1 -2.9,10.9 -3.2,13.2 -3.2,27.9 0,14.2 0.3,17.2 2.7,27 11.5,45.8 45.9,81.8 89.6,93.7 4.2,1.1 7.8,2.2 8,2.4 0.4,0.4 -28.1,30.4 -28.9,30.3 -0.3,0 -2.1,-0.6 -4.1,-1.4 z"
       id="path15" />
    <path
       d="m 305.1,289.3 c -7.7,-8 -14.1,-15 -14.1,-15.4 0,-0.4 2.4,-1.3 5.3,-1.9 19.2,-4.6 39.4,-16 55.8,-31.7 C 383,210.6 397.4,168 389.5,129.5 386,112.3 378.8,95.7 369.6,83.4 366.8,79.6 348.4,60.4 328.8,40.8 L 293,5 h 27.4 27.4 l 17.5,17.9 c 23.5,24.2 36.2,38.3 41.2,46.1 17.6,27.2 26.9,64.5 23.6,94 -5.9,51.2 -32.1,94.6 -74.2,122.6 -8.4,5.6 -28.6,16 -34.5,17.8 -1.8,0.6 -4.5,-1.8 -16.3,-14.1 z"
       id="path16" />
    <path
       d="m 257.2,290.4 c 6.6,-6.7 7.9,-7.6 10.2,-7 1.4,0.3 2.6,1.3 2.6,2 0,0.8 -2.6,3.9 -5.7,7 -5.3,5.1 -6.2,5.6 -10.3,5.6 h -4.5 z"
       id="path17" />
    <path
       d="m 254.5,257.9 c -9.6,-1.3 -25.5,-6.3 -34.5,-11 -24.3,-12.7 -44,-36.2 -52.3,-62.4 -3.8,-12 -5.1,-22.9 -4.4,-37.4 1,-21.6 8,-41.3 20.7,-57.8 3.3,-4.3 23.8,-25.8 45.5,-47.8 l 39.5,-40 8.7,9 c 4.9,4.9 23.2,23.7 40.8,41.6 17.7,17.9 34.2,35.6 36.9,39.3 25.1,35.2 25.9,83.1 1.8,119.7 -22.1,33.7 -62,51.9 -102.7,46.8 z"
       id="path18" />
  </g>
  <g
     fill="#0c28a9"
     id="g68"
     transform="translate(-1,-1.5)">
    <path
       d="m 258.5,527 c -4.3,-0.4 -8.1,-1.2 -8.2,-1.7 -0.2,-0.5 -1.6,-0.8 -3.2,-0.5 -1.5,0.2 -3.4,-0.2 -4.2,-1 -0.8,-0.7 -2.9,-1.4 -4.7,-1.6 -11.2,-0.8 -34.9,-15.8 -46.3,-29.3 -15.7,-18.5 -23.4,-37 -25.4,-61.4 -1,-10.9 1.3,-29.2 4.5,-37 0.5,-1.1 1.2,-3 1.5,-4.2 0.6,-2.3 2.5,-3.2 2.5,-1.3 0,0.6 0.8,1 1.8,1 1.6,-0.1 1.6,-0.1 0,-1.1 -2.7,-1.5 -2.2,-5.6 1.7,-12.6 5.8,-10.6 10.2,-15.7 34.6,-40.8 39.3,-40.3 42,-43 42.8,-41.7 0.5,0.9 1.2,0.7 2.5,-0.7 1.6,-1.7 1.6,-2 0.1,-2.3 -1.1,-0.2 0.1,-2 4.5,-6.3 l 6.2,-6 11.1,11.7 c 6.2,6.4 24.5,25.3 40.7,42 16.3,16.7 31.3,32.9 33.4,36.1 9.6,14.7 15.4,31.7 16.3,48.5 0.5,9 0.4,10.2 -1.1,10.2 -1.2,0 -1.6,0.9 -1.6,3.5 0,1.9 0.5,3.5 1,3.5 1.7,0 1.1,9.2 -1.1,17.6 -8.6,33.2 -36.7,62.1 -69.6,71.7 -2.9,0.9 -5.3,1.2 -5.3,0.6 0,-0.5 -0.7,-0.9 -1.5,-0.9 -0.8,0 -1.5,0.5 -1.5,1 0,0.6 -1.1,0.8 -2.6,0.4 -1.7,-0.4 -2.9,-0.2 -3.4,0.6 -0.5,0.8 -1.4,1.4 -2.2,1.5 -6.5,0.9 -16.7,1.1 -23.3,0.5 z m 33.5,-8.7 c 25,-6.2 46.9,-22.5 59.8,-44.5 2.1,-3.7 4.2,-6.4 4.6,-6 0.4,0.4 0.7,0.2 0.6,-0.3 -0.1,-0.6 -0.2,-2.1 -0.1,-3.5 0.1,-1.9 0.4,-2.1 1,-1.1 0.7,1 0.9,0.8 0.9,-1 0,-1.3 1.2,-6.4 2.6,-11.4 1.4,-4.9 2.9,-11.9 3.2,-15.5 0.3,-3.6 0.7,-7.1 0.9,-7.7 0.7,-2.1 -1.5,-18.3 -3.6,-26.8 -2.6,-10 -9.2,-24.2 -15.2,-32 -5.6,-7.4 -76.4,-80 -78,-80 -0.7,0 -1.8,-0.6 -2.5,-1.2 -1.3,-1.2 -4.2,-1.8 -4.2,-0.9 0,0.2 -0.3,1.1 -0.6,2 -0.4,1.1 -0.1,1.6 1,1.6 3,0 1.6,2.6 -5.4,9.5 -5.2,5.1 -7.7,6.9 -9.3,6.7 -1.7,-0.2 -1.9,-0.1 -0.8,0.7 1.9,1.2 0.6,2.7 -29.8,33.6 -26,26.3 -31.1,32.9 -37.2,47.5 -6.7,15.8 -8.9,39.5 -5.3,56.7 4.3,21.1 18.5,43.9 34.4,55.5 3.4,2.5 5.9,5.1 5.9,6.2 0.1,1.5 0.4,1.6 1.6,0.6 1.4,-1.1 1.9,-0.7 1.6,1.3 -0.1,0.4 0.4,0.7 1.1,0.6 3,-0.4 4.3,0.2 2.3,1.1 -1.8,0.8 -1.7,0.9 0.8,0.9 1.6,0.1 5.2,1.2 8,2.4 5.2,2.4 18.4,6.2 24.2,7 1.7,0.2 8.6,0.4 15.5,0.4 9.8,0 14.6,-0.5 22,-2.4 z"
       id="path19" />
    <path
       d="m 149.2,388.7 c -2.4,-1.4 -2,-2.7 1,-2.7 1.1,0 1.8,0.7 1.8,2 0,2.3 0.2,2.3 -2.8,0.7 z"
       id="path20" />
    <path
       d="m 141.4,384.6 c -1,-0.8 -1.6,-1.8 -1.1,-2.2 0.4,-0.4 0.7,-0.2 0.7,0.5 0,0.7 0.4,1 0.9,0.7 0.5,-0.3 1.1,0.1 1.5,0.9 0.7,1.9 0.5,1.9 -2,0.1 z"
       id="path21" />
    <path
       d="m 120,371 c -1.4,-1 -2.1,-2.2 -1.7,-2.6 0.4,-0.4 0.7,-0.2 0.7,0.5 0,0.7 0.4,1 0.9,0.6 0.6,-0.3 1.5,0.4 2.1,1.5 1.3,2.5 1.2,2.5 -2,0 z"
       id="path22" />
    <path
       d="m 358.2,343.8 c -1.8,-1.8 -1.4,-2.7 0.8,-2.1 2.1,0.6 2.6,1.8 1.2,2.7 -0.5,0.3 -1.4,0 -2,-0.6 z"
       id="path23" />
    <path
       d="m 176,342.5 c 0,-0.8 0.9,-1.5 2,-1.5 1.1,0 2,0.7 2,1.5 0,0.8 -0.9,1.5 -2,1.5 -1.1,0 -2,-0.7 -2,-1.5 z"
       id="path24" />
    <path
       d="m 371.6,336.5 c -0.3,-0.9 0,-1.5 0.9,-1.5 1.6,0 2,1.6 0.6,2.4 -0.5,0.3 -1.1,-0.1 -1.5,-0.9 z"
       id="path25" />
    <path
       d="m 158.4,333.6 c -1,-0.8 -1.6,-1.8 -1.1,-2.2 0.4,-0.4 0.7,-0.2 0.7,0.5 0,0.7 0.4,1 0.9,0.7 0.5,-0.3 1.1,0.1 1.5,0.9 0.7,1.9 0.5,1.9 -2,0.1 z"
       id="path26" />
    <path
       d="m 152.7,330.1 c -1.6,-1 -2.4,-2.1 -1.9,-2.5 0.5,-0.3 1.3,0.1 1.6,1 0.3,0.8 1,1.3 1.5,1 0.5,-0.3 1.1,0.1 1.5,0.9 0.7,1.9 0.7,1.9 -2.7,-0.4 z"
       id="path27" />
    <path
       d="m 335.2,320.7 c -1.5,-1.6 -1.8,-2.7 -1.2,-3.7 0.8,-1.2 1,-1.2 1,0.4 0,1.1 0.7,2.8 1.7,3.8 2.4,2.6 1,2.2 -1.5,-0.5 z"
       id="path28" />
    <path
       d="m 137.5,319 c -1,-1.1 -1.6,-2.2 -1.3,-2.5 0.3,-0.3 1.3,0.6 2.2,2 2,3 1.6,3.2 -0.9,0.5 z"
       id="path29" />
    <path
       d="m 202.3,318.3 c -1.8,-0.6 -1.6,-2.3 0.1,-2.3 1.7,0 3,1.6 1.9,2.3 -0.5,0.2 -1.4,0.2 -2,0 z"
       id="path30" />
    <path
       d="m 399.7,317.7 c -0.6,-1.7 1.1,-3.7 3,-3.7 1.8,0 1.6,1.4 -0.6,3.4 -1.5,1.4 -1.9,1.4 -2.4,0.3 z"
       id="path31" />
    <path
       d="m 107.4,290.3 c -4.8,-5.5 -5.2,-6.3 -2.4,-4.2 1.9,1.4 4,3.7 4.7,5 0.7,1.3 2,2.9 2.9,3.6 1,0.7 1.5,1.5 1.2,1.8 -0.3,0.3 -3.2,-2.5 -6.4,-6.2 z"
       id="path32" />
    <path
       d="m 437,279 c -1.2,-0.8 -1.2,-1 0.3,-1.6 2.1,-0.8 3.5,0.2 2.1,1.6 -0.5,0.5 -1.5,0.6 -2.4,0 z"
       id="path33" />
    <path
       d="m 243.5,273.8 -2,-2 2.5,0.7 c 3.2,1 3.6,1.3 2.4,2.4 -0.5,0.5 -1.7,0 -2.9,-1.1 z"
       id="path34" />
    <path
       d="m 279,257 c 0,-0.5 0.9,-1 2,-1 1.1,0 2,0.5 2,1 0,0.6 -0.9,1 -2,1 -1.1,0 -2,-0.4 -2,-1 z"
       id="path35" />
    <path
       d="m 452,256.9 c -1.2,-0.7 -1.1,-0.9 0.5,-0.9 1.7,0 1.7,-0.2 0.5,-1 -1.3,-0.8 -1.2,-1 0.3,-1 0.9,0 1.7,0.6 1.7,1.4 0,2 -1.3,2.7 -3,1.5 z"
       id="path36" />
    <path
       d="m 286,256 c 0,-0.5 0.9,-1 2,-1 1.1,0 2,0.5 2,1 0,0.6 -0.9,1 -2,1 -1.1,0 -2,-0.4 -2,-1 z"
       id="path37" />
    <path
       d="m 294.2,254.7 c 1.8,-1.9 3.8,-2.2 3.8,-0.7 0,0.6 -0.4,1 -0.9,1 -0.5,0 -1.8,0.3 -2.8,0.7 -1.7,0.6 -1.7,0.6 -0.1,-1 z"
       id="path38" />
    <path
       d="m 204.5,237 c -1,-1.1 -1.6,-2.2 -1.3,-2.5 0.3,-0.3 1.3,0.6 2.2,2 2,3 1.6,3.2 -0.9,0.5 z"
       id="path39" />
    <path
       d="m 332.6,235.5 c -0.3,-0.9 0,-1.5 0.9,-1.5 1.6,0 2,1.6 0.6,2.4 -0.5,0.3 -1.1,-0.1 -1.5,-0.9 z"
       id="path40" />
    <path
       d="m 463.2,235.4 c -1.1,-1.2 -1,-1.4 0.5,-1.4 1.5,0 1.6,-0.2 0.3,-1 -1.2,-0.8 -1.2,-1 0.5,-1.1 1.1,0 1.4,-0.3 0.8,-0.6 -1.8,-0.7 -1.6,-2.3 0.2,-2.3 1.8,0 1.9,2.7 0.2,5.6 -1,1.9 -1.4,2 -2.5,0.8 z"
       id="path41" />
    <path
       d="m 405,231.9 c -1.2,-0.7 -1.1,-0.9 0.5,-0.9 1.7,0 1.7,-0.2 0.5,-1 -1.3,-0.8 -1.2,-1 0.3,-1 0.9,0 1.7,0.6 1.7,1.4 0,2 -1.3,2.7 -3,1.5 z"
       id="path42" />
    <path
       d="m 522,231.6 c 0,-0.8 -0.6,-1.7 -1.2,-1.9 -0.7,-0.3 -0.3,-0.6 0.9,-0.6 1.6,-0.1 2,0.3 1.6,1.9 -0.6,2.3 -1.3,2.6 -1.3,0.6 z"
       id="path43" />
    <path
       d="m 467.3,226.4 c -1.7,-1.8 -1.6,-2.4 0.5,-2.4 1.4,0 1.5,-0.2 0.2,-1 -1.2,-0.8 -1.2,-1 0.5,-1.1 1.1,0 1.4,-0.3 0.8,-0.6 -1.9,-0.7 -1.6,-2.3 0.5,-2.4 1,0 1.2,-0.3 0.5,-0.6 -1.8,-0.7 -1.6,-2.3 0.2,-2.3 1.9,0 1.8,2.4 -0.3,7.6 -1.4,3.4 -1.9,3.9 -2.9,2.8 z"
       id="path44" />
    <path
       d="m 409,225 c -1.2,-0.8 -1.2,-1 0.5,-1 1.7,0 1.7,-0.2 0.5,-1 -1.2,-0.8 -1.2,-1 0.5,-1 1.7,0 1.7,-0.2 0.5,-1 -1.3,-0.8 -1.2,-1 0.3,-1 2,0 2.2,1.9 0.5,4.3 -0.9,1.2 -1.7,1.4 -2.8,0.7 z"
       id="path45" />
    <path
       d="m 525,222.6 c 0,-0.8 -0.6,-1.7 -1.2,-1.9 -0.8,-0.3 -0.6,-0.6 0.5,-0.6 1.1,-0.1 1.7,0.6 1.7,1.9 0,1.1 -0.2,2 -0.5,2 -0.3,0 -0.5,-0.6 -0.5,-1.4 z"
       id="path46" />
    <path
       d="m 418.1,208.8 c -0.1,-0.9 -0.7,-1.9 -1.3,-2.1 -0.7,-0.3 -0.4,-0.6 0.7,-0.6 1.7,-0.1 1.7,-0.3 0.5,-1.1 -1.3,-0.8 -1.2,-1 0.3,-1 1.8,0 2.1,1.3 0.7,4.5 -0.7,1.6 -0.9,1.7 -0.9,0.3 z"
       id="path47" />
    <path
       d="m 357,207.9 c -1.2,-0.7 -1.1,-0.9 0.5,-0.9 1.7,0 1.7,-0.2 0.5,-1 -1.3,-0.8 -1.2,-1 0.3,-1 0.9,0 1.7,0.6 1.7,1.4 0,2 -1.3,2.7 -3,1.5 z"
       id="path48" />
    <path
       d="m 442.7,183 c 0.3,-2.5 0.7,-4.7 0.9,-4.9 0.8,-0.9 0.2,5.5 -0.6,7.4 -0.6,1.3 -0.7,0.5 -0.3,-2.5 z"
       id="path49" />
    <path
       d="m 535.1,171.8 c 0,-1.6 -0.5,-2.8 -1,-2.8 -0.6,0 -0.9,-8.7 -0.9,-21.5 0.1,-11.8 0.5,-21.5 1,-21.5 0.4,0 0.9,-0.8 0.9,-1.7 0.1,-1 0.5,0.9 0.9,4.2 1,8.1 1,35.9 0.1,41.5 -0.6,3.1 -0.9,3.6 -1,1.8 z"
       id="path50" />
    <path
       d="m 444.2,128 c 0,-1.9 0.2,-2.7 0.5,-1.7 0.2,0.9 0.2,2.5 0,3.5 -0.3,0.9 -0.5,0.1 -0.5,-1.8 z"
       id="path51" />
    <path
       d="m 532,121.1 c 0,-0.5 0.7,-1.1 1.5,-1.5 0.9,-0.3 1.5,0 1.5,0.9 0,0.8 -0.7,1.5 -1.5,1.5 -0.8,0 -1.5,-0.4 -1.5,-0.9 z"
       id="path52" />
    <path
       d="m 440.3,110.2 c -0.6,-2.6 -1.5,-5.6 -1.9,-6.6 -0.5,-1.2 -0.4,-1.7 0.3,-1.3 1,0.7 3.9,11.4 3.2,12.1 -0.3,0.3 -1,-1.6 -1.6,-4.2 z"
       id="path53" />
    <path
       d="m 531,114.1 c 0,-0.5 0.7,-1.1 1.5,-1.5 0.9,-0.3 1.5,0 1.5,0.9 0,0.8 -0.7,1.5 -1.5,1.5 -0.8,0 -1.5,-0.4 -1.5,-0.9 z"
       id="path54" />
    <path
       d="m 520,69 c 0,-0.5 0.7,-1 1.5,-1 0.8,0 1.5,0.5 1.5,1 0,0.6 -0.7,1 -1.5,1 -0.8,0 -1.5,-0.4 -1.5,-1 z"
       id="path55" />
    <path
       d="m 191.1,56.3 c -0.8,-0.4 2.7,-4.5 10,-11.9 10.1,-10.2 13.9,-13 13.9,-10.6 0,1.7 -22.6,22.9 -23.9,22.5 z"
       id="path56" />
    <path
       d="m 305,40.5 c -1.3,-1.4 -1.9,-2.5 -1.3,-2.5 0.5,0 2,1.1 3.3,2.5 1.3,1.4 1.9,2.5 1.3,2.5 -0.5,0 -2,-1.1 -3.3,-2.5 z"
       id="path57" />
    <path
       d="m 395.9,34.3 -2.4,-2.6 2.7,1.9 c 1.5,1 2.8,2.2 2.8,2.7 0,1.2 -0.5,0.8 -3.1,-2 z"
       id="path58" />
    <path
       d="m 216.7,30.7 c -0.6,-1.7 1.1,-3.7 3,-3.7 1.8,0 1.6,1.4 -0.6,3.4 -1.5,1.4 -1.9,1.4 -2.4,0.3 z"
       id="path59" />
    <path
       d="m 438,27 c -1.9,-1.6 -3,-3 -2.4,-3 0.5,0 2.3,1.4 3.9,3 3.6,3.8 3,3.8 -1.5,0 z"
       id="path60" />
    <path
       d="m 222.2,25.3 c -1,-0.4 -1,-0.8 -0.1,-1.9 1.3,-1.5 3.9,-1.9 3.9,-0.5 0,1.4 -2.4,2.9 -3.8,2.4 z"
       id="path61" />
    <path
       d="m 86.2,14.3 c -1,-0.4 -1,-0.8 -0.1,-1.9 1.3,-1.5 3.9,-1.9 3.9,-0.5 0,1.4 -2.4,2.9 -3.8,2.4 z"
       id="path62" />
    <path
       d="m 295.5,8 c -2.2,-2.3 -2.5,-3 -1.2,-3 0.9,0 1.7,0.5 1.7,1.2 0,0.6 0.7,2 1.7,3 2.7,3 0.9,2 -2.2,-1.2 z"
       id="path63" />
    <path
       d="m 371.2,8.7 c -2.6,-2.8 -2,-3.7 2.2,-3.6 2.4,0.1 2.6,0.3 0.9,0.6 -2.5,0.5 -3,2.2 -1.1,4.1 0.7,0.7 1,1.2 0.7,1.2 -0.3,0 -1.5,-1 -2.7,-2.3 z"
       id="path64" />
    <path
       d="m 165.6,8.7 c 0.3,-0.8 -0.5,-1.8 -1.8,-2.5 -2.3,-1.1 -2.3,-1.1 0.5,-1.1 2,-0.1 2.7,0.4 2.7,1.8 0,1.1 -0.4,2.3 -1,2.6 -0.5,0.3 -0.7,0 -0.4,-0.8 z"
       id="path65" />
    <path
       d="m 443.7,8.2 c -2.5,-2.8 -2.1,-3.2 2.6,-3.1 3,0.2 3.4,0.3 1.4,0.6 -2.2,0.4 -2.7,0.8 -2.2,2.4 0.8,2.4 0.3,2.4 -1.8,0.1 z"
       id="path66" />
    <path
       d="m 92.3,7.5 c -1.6,-1.7 0.1,-3 2.3,-1.7 1.2,0.7 1.3,1 0.2,1.9 -0.9,0.8 -1.6,0.7 -2.5,-0.2 z"
       id="path67" />
    <path
       d="m 241.2,6.5 c -1.1,-1.3 -1,-1.5 0.7,-1.5 1.4,0 1.9,0.5 1.5,1.5 -0.7,1.8 -0.6,1.8 -2.2,0 z"
       id="path68" />
  </g>
</svg>
