<?xml version="1.0" encoding="UTF-8" standalone="no"?>
<svg
   width="179.85001"
   height="51.530003"
   viewBox="0 0 179.85001 51.530003"
   version="1.1"
   id="svg4"
   xmlns="http://www.w3.org/2000/svg"
   xmlns:svg="http://www.w3.org/2000/svg">
  <defs
     id="defs4" />
  <g
     fill="#f6c400"
     id="g3"
     transform="translate(-24.969998,-28.969999)">
    <path
       d="m 24.97,41.56 h 4.09 V 70.55 H 24.97 V 80.5 H 39.45 L 39.46,62.19 H 52.31 V 80.5 H 66.8 V 70.55 H 62.71 V 41.56 H 66.8 V 31.61 H 52.32 L 52.31,49.92 H 39.46 V 31.61 H 24.97 Z m 101.93,3.42 v 25.55 h -6.5 V 48.06 c 0,-0.63 -0.51,-1.14 -1.14,-1.14 h -10.87 v 23.61 h -6.5 V 41.56 h 21.59 c 1.89,0 3.42,1.53 3.42,3.42 z m -55.38,0 v 22.13 c 0,1.89 1.53,3.42 3.42,3.42 H 96.53 V 65.17 H 79.16 c -0.63,0 -1.14,-0.51 -1.14,-1.14 V 58.8 H 96.53 V 44.98 c 0,-1.89 -1.53,-3.42 -3.42,-3.42 H 74.93 c -1.89,0 -3.42,1.53 -3.42,3.42 z m 18.51,8.46 H 78.02 v -5.38 c 0,-0.63 0.51,-1.14 1.14,-1.14 h 9.73 c 0.63,0 1.14,0.51 1.14,1.14 z"
       id="path1" />
    <path
       d="m 204.82,31.61 v 5.36 h -5.34 v 33.56 h -6.5 V 36.97 H 71.51 v -5.36 h 121.47 v -2.64 h 6.5 v 2.64 z"
       id="path2" />
    <path
       d="m 169.09,48.06 v 4.24 c 0,0.63 0.51,1.14 1.14,1.14 h 13.96 c 1.89,0 3.42,1.53 3.42,3.42 v 10.25 c 0,1.89 -1.53,3.42 -3.42,3.42 H 162.6 v -5.36 h 17.37 c 0.63,0 1.14,-0.51 1.14,-1.14 v -4.09 c 0,-0.63 -0.51,-1.14 -1.14,-1.14 h -13.96 c -1.89,0 -3.42,-1.53 -3.42,-3.42 V 44.97 c 0,-1.89 1.53,-3.42 3.42,-3.42 h 21.59 v 5.36 h -17.37 c -0.63,0 -1.14,0.51 -1.14,1.14 z m -33.41,-6.5 c -1.89,0 -3.42,1.53 -3.42,3.42 v 22.13 c 0,1.89 1.53,3.42 3.42,3.42 h 15.05 V 74 c 0,0.63 -0.51,1.14 -1.14,1.14 H 71.52 v 5.36 h 82.3 c 1.89,0 3.42,-1.53 3.42,-3.42 V 41.56 Z m 15.05,23.61 h -10.84 c -0.63,0 -1.14,-0.51 -1.14,-1.14 V 48.06 c 0,-0.63 0.51,-1.14 1.14,-1.14 h 9.7 c 0.63,0 1.14,0.51 1.14,1.14 z"
       id="path3" />
  </g>
</svg>
