<?xml version="1.0" encoding="UTF-8" standalone="no"?>
<!-- Created with Inkscape (http://www.inkscape.org/) -->

<svg
   width="508.38083"
   height="480.97629"
   viewBox="0 0 508.38083 480.97629"
   version="1.1"
   id="svg1"
   xmlns="http://www.w3.org/2000/svg"
   xmlns:svg="http://www.w3.org/2000/svg">
  <defs
     id="defs1" />
  <g
     id="layer1"
     style="display:inline">
    <g
       id="g"
       transform="matrix(6.1169563,0,0,6.1169563,-204.39809,-85.637388)">
      <g
         id="h">
        <polygon
           class="aj"
           points="58.63,27.84 66.12,22.32 77.32,23.76 77.34,48.76 69.87,54.23 58.63,52.79 "
           id="polygon7"
           style="fill:#a4bde4;stroke:#004997;stroke-width:0.95px;stroke-miterlimit:2" />
        <polygon
           id="i"
           class="ai"
           points="77.32,23.76 77.34,48.76 69.87,54.23 69.87,29.28 "
           style="fill:#024995;stroke:#024995;stroke-width:0.95px;stroke-miterlimit:2" />
        <polygon
           class="ah"
           points="77.32,23.76 69.87,29.28 58.63,27.84 66.12,22.32 "
           id="polygon8"
           style="fill:#ffffff;stroke:#004997;stroke-width:0.95px;stroke-miterlimit:2" />
      </g>
      <g
         id="j">
        <polygon
           class="aj"
           points="46.27,36.95 53.76,31.43 64.97,32.87 64.98,57.87 57.52,63.35 46.27,61.91 "
           id="polygon9"
           style="fill:#a4bde4;stroke:#004997;stroke-width:0.95px;stroke-miterlimit:2" />
        <polygon
           id="k"
           class="ai"
           points="64.97,32.87 64.98,57.87 57.52,63.35 57.52,38.39 "
           style="fill:#024995;stroke:#024995;stroke-width:0.95px;stroke-miterlimit:2" />
        <polygon
           class="ah"
           points="64.97,32.87 57.52,38.39 46.27,36.95 53.76,31.43 "
           id="polygon10"
           style="fill:#ffffff;stroke:#004997;stroke-width:0.95px;stroke-miterlimit:2" />
      </g>
      <g
         id="l">
        <polygon
           class="aj"
           points="77.74,30.24 85.24,24.72 96.44,26.16 96.45,51.16 88.99,56.64 77.74,55.2 "
           id="polygon11"
           style="fill:#a4bde4;stroke:#004997;stroke-width:0.95px;stroke-miterlimit:2" />
        <polygon
           id="m"
           class="ai"
           points="96.44,26.26 96.45,51.26 88.99,56.74 88.99,31.78 "
           style="fill:#024995;stroke:#024995;stroke-width:0.95px;stroke-miterlimit:2" />
        <polygon
           class="ah"
           points="96.44,26.16 88.99,31.69 77.74,30.24 85.24,24.72 "
           id="polygon12"
           style="fill:#ffffff;stroke:#004997;stroke-width:0.95px;stroke-miterlimit:2" />
      </g>
      <g
         id="n">
        <path
           id="o"
           class="ap"
           d="m 96.31,56.06 c 1.91,3.51 2.99,7.53 2.99,11.8 0,13.68 -11.09,24.77 -24.77,24.77 -13.68,0 -24.77,-11.09 -24.77,-24.77 0,-4.15 1.02,-8.07 2.83,-11.51 C 53.07,55.44 74.41,14 74.41,14 c 0,0 17.7,34.33 21.9,42.05 z"
           style="fill:#f18700" />
      </g>
      <g
         id="p">
        <g
           id="q">
          <polygon
             class="aj"
             points="33.89,46.03 41.38,40.5 52.59,41.94 52.6,66.95 45.14,72.42 33.89,70.98 "
             id="polygon13"
             style="fill:#a4bde4;stroke:#004997;stroke-width:0.95px;stroke-miterlimit:2" />
          <polygon
             id="r"
             class="ai"
             points="52.59,41.94 52.6,66.95 45.14,72.42 45.14,47.47 "
             style="fill:#024995;stroke:#024995;stroke-width:0.95px;stroke-miterlimit:2" />
          <polygon
             class="ah"
             points="52.59,41.94 45.14,47.47 33.89,46.03 41.38,40.5 "
             id="polygon14"
             style="fill:#ffffff;stroke:#004997;stroke-width:0.95px;stroke-miterlimit:2" />
        </g>
      </g>
      <g
         id="s">
        <g
           id="t">
          <polygon
             class="aj"
             points="52.9,48.46 60.39,42.94 71.6,44.38 71.61,69.38 64.15,74.86 52.9,73.42 "
             id="polygon15"
             style="fill:#a4bde4;stroke:#004997;stroke-width:0.95px;stroke-miterlimit:2" />
          <polygon
             id="u"
             class="ai"
             points="71.6,44.48 71.61,69.48 64.15,74.96 64.15,50 "
             style="fill:#024995;stroke:#024995;stroke-width:0.95px;stroke-miterlimit:2" />
          <polygon
             class="ah"
             points="71.6,44.38 64.15,49.91 52.9,48.46 60.39,42.94 "
             id="polygon16"
             style="fill:#ffffff;stroke:#004997;stroke-width:0.95px;stroke-miterlimit:2" />
        </g>
      </g>
      <g
         id="v">
        <g
           id="w">
          <polygon
             class="aj"
             points="97.34,32.78 104.84,27.26 116.04,28.7 116.05,53.7 108.59,59.18 97.34,57.74 "
             id="polygon17"
             style="fill:#a4bde4;stroke:#004997;stroke-width:0.95px;stroke-miterlimit:2" />
          <polygon
             id="x"
             class="ai"
             points="116.04,28.7 116.05,53.7 108.59,59.18 108.59,34.23 "
             style="fill:#024995;stroke:#024995;stroke-width:0.95px;stroke-miterlimit:2" />
          <polygon
             class="ah"
             points="116.04,28.7 108.59,34.23 97.34,32.78 104.84,27.26 "
             id="polygon18"
             style="fill:#ffffff;stroke:#004997;stroke-width:0.95px;stroke-miterlimit:2" />
        </g>
      </g>
      <g
         id="y">
        <g
           id="a`">
          <polygon
             class="aj"
             points="85.06,41.9 92.56,36.38 103.76,37.82 103.78,62.82 96.31,68.29 85.06,66.85 "
             id="polygon19"
             style="fill:#a4bde4;stroke:#004997;stroke-width:0.95px;stroke-miterlimit:2" />
          <polygon
             id="aa"
             class="ai"
             points="103.76,37.82 103.78,62.82 96.31,68.29 96.31,43.34 "
             style="fill:#024995;stroke:#024995;stroke-width:0.95px;stroke-miterlimit:2" />
          <polygon
             class="ah"
             points="103.76,37.82 96.31,43.34 85.06,41.9 92.56,36.38 "
             id="polygon20"
             style="fill:#ffffff;stroke:#004997;stroke-width:0.95px;stroke-miterlimit:2" />
        </g>
      </g>
      <g
         id="ab">
        <g
           id="ac">
          <polygon
             class="aj"
             points="72.55,51.06 80.04,45.54 91.25,46.98 91.26,71.97 83.79,77.45 72.55,76.01 "
             id="polygon21"
             style="fill:#a4bde4;stroke:#004997;stroke-width:0.95px;stroke-miterlimit:2" />
          <polygon
             id="ad"
             class="ai"
             points="91.25,46.98 91.26,71.97 83.79,77.45 83.79,52.5 "
             style="fill:#024995;stroke:#024995;stroke-width:0.95px;stroke-miterlimit:2" />
          <polygon
             class="ah"
             points="91.25,46.98 83.79,52.5 72.55,51.06 80.04,45.54 "
             id="polygon22"
             style="fill:#ffffff;stroke:#004997;stroke-width:0.95px;stroke-miterlimit:2" />
        </g>
      </g>
    </g>
  </g>
</svg>
