<?xml version="1.0" encoding="UTF-8" standalone="no"?>
<svg
   version="1.0"
   width="851.73425"
   height="221.58261"
   viewBox="0 0 851.73425 221.58261"
   preserveAspectRatio="xMidYMid"
   id="svg141"
   xmlns="http://www.w3.org/2000/svg"
   xmlns:svg="http://www.w3.org/2000/svg">
  <defs
     id="defs141" />
  <g
     fill="#7f8184"
     id="g19"
     transform="translate(-48.166336,-53)">
    <path
       d="m 840,154 v -29 h 4.5 c 3.8,0 4.5,0.3 4.5,2 0,2 0.1,2 4.3,-0.2 5.9,-3.1 16.5,-3.1 22.4,0 14.6,7.7 15.1,30 0.9,38.7 -4.3,2.6 -5.9,3 -12,3 -5.4,0 -8.1,-0.5 -11.3,-2.2 L 849,164 v 9.5 9.5 h -4.5 -4.5 z m 30,5.5 c 5,-2.6 7,-6.1 7,-12.4 0,-6.8 -1.4,-9.8 -5.9,-12.8 -6.5,-4.4 -16.4,-2.3 -20.8,4.3 -1.1,1.7 -1.7,4.6 -1.7,7.9 0,6 1.9,9.6 6.7,12.5 3.8,2.4 10.6,2.6 14.7,0.5 z"
       id="path1" />
    <path
       d="m 417.5,167.6 c -5.7,-2.1 -8.5,-6 -8.5,-11.7 0,-8.8 5.1,-12 21.6,-13.9 5.4,-0.6 10.2,-1.4 10.7,-1.9 1.7,-1.7 0.3,-6.5 -2.3,-7.8 -6.2,-3.1 -18.4,-0.6 -19.6,4.1 -0.5,2.3 -1.1,2.6 -4.9,2.6 h -4.4 l 0.9,-3.1 c 2.5,-8.5 8.2,-11.9 20.5,-11.9 5.6,0 9.2,0.6 12,1.9 6.7,3 6.9,3.8 7.5,20 l 0.5,14.6 2.8,0.3 c 2.4,0.3 2.7,0.8 2.7,3.8 v 3.4 h -5 c -3.7,0 -5.5,-0.5 -7.1,-2.1 l -2,-2 -4.5,2.2 c -5.8,2.8 -15.5,3.4 -20.9,1.5 z m 17.8,-7.7 c 4.7,-2.5 6.7,-5.1 6.7,-9.1 0,-3.3 -0.3,-3.8 -1.8,-3.4 -1,0.3 -5.3,1 -9.6,1.6 -8.8,1.1 -12.6,3 -12.6,6.2 0,4 2.8,5.8 9.2,5.8 3.3,0 6.9,-0.5 8.1,-1.1 z"
       id="path2" />
    <path
       d="m 526.5,168.1 c -10.6,-2.8 -16.8,-10.6 -16.9,-21.6 -0.2,-13.1 8.2,-21.6 21.8,-22.3 9.2,-0.5 14.8,1 19.6,5.4 5.2,4.8 7.4,10.6 6.8,18.8 -0.5,8.2 -4.1,13.8 -11,17.4 -5.1,2.6 -14.9,3.7 -20.3,2.3 z m 15.6,-9.4 c 4.9,-3.2 7.1,-8.1 6.5,-14 -1,-9.3 -6.3,-13.3 -16.6,-12.5 -8.6,0.6 -13,5.5 -13,14.5 0,11.5 13.5,18.5 23.1,12 z"
       id="path3" />
    <path
       d="m 657.5,167.6 c -14.3,-4.5 -21.4,-15.4 -20.2,-31.1 0.9,-12.7 8,-22.5 19,-26.1 6.8,-2.3 20.6,-1.6 26.2,1.3 6.5,3.4 10.9,8.5 12.9,15.1 0.7,2.1 0.5,2.2 -4.4,2.2 -4.3,0 -5.2,-0.3 -5.9,-2.2 -3.9,-10.1 -21.8,-13 -31.1,-5.1 -4.9,4.1 -7,9.2 -7,17.2 0,10.6 2.5,15.2 10.2,19.2 4.5,2.3 15.3,2.6 20.1,0.5 5.1,-2.2 10.7,-9.3 10.7,-13.7 0,-0.5 -4,-0.9 -9,-0.9 h -9 v -4 -4 h 13.5 13.5 v 16.1 16 l -3.7,-0.3 c -3.5,-0.3 -3.8,-0.6 -4.1,-3.5 -0.2,-1.8 -0.6,-3.3 -0.8,-3.3 -0.3,0 -2.1,1.2 -3.9,2.6 -6.6,5 -18.3,6.8 -27,4 z"
       id="path4" />
    <path
       d="m 749.9,168.1 c -14.3,-4.4 -20.8,-19.5 -14.1,-32.8 2.5,-4.8 4.6,-6.7 10.2,-9.2 5.1,-2.3 15,-2.8 21.1,-1 20,6 19.9,36.4 -0.2,42.3 -5.6,1.7 -12.7,1.9 -17,0.7 z m 15,-8.9 c 5.2,-2.6 7.4,-6.2 7.4,-12.4 0.1,-10.2 -4.6,-14.8 -15.3,-14.8 -5.5,0 -6.4,0.3 -9.7,3.4 -3.4,3.1 -3.7,3.9 -4,9.7 -0.3,5.2 0,7 1.7,9.7 3.7,5.9 13,8 19.9,4.4 z"
       id="path5" />
    <path
       d="m 798.7,167.6 c -8.6,-3.1 -9.7,-6.1 -9.7,-26.5 V 125 h 4.5 4.5 v 14.5 c 0,8.7 0.5,15.4 1.1,16.9 2.5,5.5 14.7,6.1 20,1 l 2.9,-2.8 V 139.8 125 h 5 5 v 21.5 21.5 h -5 c -4.7,0 -5,-0.1 -5,-2.7 0,-2.5 -0.1,-2.5 -1.9,-0.9 -4.7,4.2 -14.4,5.7 -21.4,3.2 z"
       id="path6" />
    <path
       d="m 263,139 v -29 h 22 22 v 4 4 H 289.5 272 v 7.5 7.5 h 17 17 v 4.5 4.5 h -17 -17 v 13 13 h -4.5 -4.5 z"
       id="path7" />
    <path
       d="M 314,146.5 V 125 h 4.5 4.5 v 21.5 21.5 h -4.5 -4.5 z"
       id="path8" />
    <path
       d="m 330,139 v -29 h 5 5 v 29 29 h -5 -5 z"
       id="path9" />
    <path
       d="M 355.9,165.1 353,162.2 V 147.1 132 h -4.5 c -4.5,0 -4.5,0 -4.5,-3.5 0,-3.5 0,-3.5 4.5,-3.5 h 4.5 v -6.5 -6.5 h 4.5 4.5 v 6.5 6.5 h 6 6 v 3.5 3.5 h -6 -6.1 l 0.3,13.8 0.3,13.7 5.8,0.3 5.7,0.3 v 3.9 4 h -7.6 c -7,0 -7.8,-0.2 -10.5,-2.9 z"
       id="path10" />
    <path
       d="M 380,146.5 V 125 h 4.5 c 4.1,0 4.5,0.2 4.5,2.5 0,2.9 1.2,3.2 3.1,0.8 2,-2.3 7.2,-4.3 11.4,-4.3 3.5,0 3.5,0 3.5,4.4 v 4.3 l -5.7,0.6 c -4.5,0.5 -6.3,1.2 -8.7,3.7 l -3.1,3 -0.3,14 -0.4,14 h -4.4 -4.4 z"
       id="path11" />
    <path
       d="m 470.5,166.8 c -4.1,-2.4 -4.4,-3.8 -4.5,-19.5 V 132 h -4.5 c -4.5,0 -4.5,0 -4.5,-3.5 0,-3.5 0,-3.5 4.5,-3.5 h 4.5 v -6.5 -6.5 h 4.5 4.5 v 6.5 6.5 h 6 6 v 3.5 3.5 h -6 -6.1 l 0.3,13.8 0.3,13.7 5.8,0.3 5.7,0.3 v 3.9 4 h -7.2 c -4,0 -8.2,-0.6 -9.3,-1.2 z"
       id="path12" />
    <path
       d="M 494,146.5 V 125 h 4.5 4.5 v 21.5 21.5 h -4.5 -4.5 z"
       id="path13" />
    <path
       d="M 565,146.5 V 125 h 4.5 c 3.8,0 4.5,0.3 4.5,2 0,2.5 -0.2,2.5 5.4,-0.6 4.1,-2.3 5.6,-2.6 12.1,-2.2 8.4,0.4 11.9,2.2 14.7,7.9 1.5,2.8 1.8,6.2 1.8,19.7 V 168 h -4.4 -4.5 l -0.3,-16.1 c -0.3,-15.5 -0.4,-16.1 -2.7,-18 -1.7,-1.4 -3.9,-1.9 -8.5,-1.9 -11.4,0 -13.6,3.7 -13.6,23 v 13 h -4.5 -4.5 z"
       id="path14" />
    <path
       d="M 704,146.5 V 125 h 4.5 c 4.1,0 4.5,0.2 4.5,2.5 0,2.9 1.2,3.2 3.1,0.9 2.1,-2.6 6.6,-4.4 10.9,-4.4 h 4 v 4.4 4.4 l -5.5,0.4 C 715.4,134 713,138.4 713,156 v 12 h -4.5 -4.5 z"
       id="path15" />
    <path
       d="m 884.5,124.5 c -3.3,-3.2 -3.3,-8.4 -0.1,-12.2 3.4,-3.9 9.8,-3.9 13.2,0 3.1,3.7 3.1,7.8 -0.2,11.6 -3.4,4.1 -9.2,4.4 -12.9,0.6 z m 11.3,-0.5 c 2.7,-2.5 3,-8.5 0.5,-11.2 -2.6,-2.9 -8.7,-2.4 -11.3,0.9 -5.6,7.2 4.2,16.5 10.8,10.3 z"
       id="path16" />
    <path
       d="m 887,118 c 0,-4.6 0.2,-5 2.4,-5 3.7,0 5.6,1 5.6,3 0,1 -0.8,2.1 -1.7,2.4 -1.2,0.5 -1.4,0.9 -0.5,1.8 0.7,0.7 1.2,1.7 1.2,2.2 0,0.6 -0.7,0 -1.6,-1.2 -1.9,-2.7 -3.4,-2.8 -3.4,-0.2 0,1.1 -0.4,2 -1,2 -0.5,0 -1,-2.2 -1,-5 z m 6.5,-2 c 0,-0.8 -1,-1.6 -2.2,-1.8 -1.8,-0.3 -2.3,0.2 -2.3,1.8 0,1.6 0.5,2.1 2.3,1.8 1.2,-0.2 2.2,-1 2.2,-1.8 z"
       id="path17" />
    <path
       d="M 314,114.5 V 110 h 4.5 4.5 v 4.5 4.5 h -4.5 -4.5 z"
       id="path18" />
    <path
       d="M 494,114.5 V 110 h 4.5 4.5 v 4.5 4.5 h -4.5 -4.5 z"
       id="path19" />
  </g>
  <g
     fill="#0094d1"
     id="g86"
     transform="translate(-48.166336,-53)">
    <path
       d="m 126.3,273.4 c -0.8,-2.1 3.5,-6 5,-4.5 1.3,1.3 0.2,3.7 -2.3,5.1 -1.6,0.9 -2.2,0.8 -2.7,-0.6 z"
       id="path20" />
    <path
       d="m 115,272.8 c 0,-1.9 1.2,-3.4 3.8,-4.7 1.8,-1 2.3,-0.9 2.8,0.4 0.4,0.9 -0.2,2.5 -1.1,3.5 -2,2.2 -5.5,2.7 -5.5,0.8 z"
       id="path21" />
    <path
       d="m 136,271.7 c 0,-0.8 0.9,-2.2 2,-3.2 1.6,-1.4 2.3,-1.6 3.2,-0.7 0.9,0.9 0.7,1.6 -0.7,3.2 -2.1,2.3 -4.5,2.6 -4.5,0.7 z"
       id="path22" />
    <path
       d="m 105.1,271.1 c -1.8,-1.2 -0.8,-3.6 2.4,-5.7 2,-1.3 2.9,-1.4 3.8,-0.5 2.2,2.2 -3.5,7.9 -6.2,6.2 z"
       id="path23" />
    <path
       d="m 93.7,265.3 c -1.1,-1.1 -0.8,-2.2 1.3,-4.3 2.6,-2.6 7,-2.7 7,-0.2 0,3.5 -6.1,6.8 -8.3,4.5 z"
       id="path24" />
    <path
       d="m 122.3,262.4 c -0.8,-2 2.1,-4.8 4.2,-4.1 1.2,0.5 1.4,1.1 0.6,2.6 -1.4,2.6 -4,3.4 -4.8,1.5 z"
       id="path25" />
    <path
       d="m 131,262.6 c 0,-2.2 2.9,-4.1 4.2,-2.8 0.8,0.8 0.8,1.5 -0.2,2.7 -1.6,1.9 -4,2 -4,0.1 z"
       id="path26" />
    <path
       d="m 113.6,260.1 c -1.6,-2.6 3.4,-6.5 5.6,-4.3 0.7,0.7 0.3,1.7 -1.1,3.1 -2.3,2.3 -3.7,2.6 -4.5,1.2 z"
       id="path27" />
    <path
       d="m 84.4,256.5 c -1.4,-3.6 4.1,-8 7.4,-5.9 2.5,1.6 2.5,3 0.1,5.3 -2.6,2.4 -6.7,2.8 -7.5,0.6 z"
       id="path28" />
    <path
       d="m 105.4,254.5 c -0.9,-2.1 1.4,-4.5 4.2,-4.5 2.9,0 3.1,2 0.6,4.3 -2.3,2.1 -4.1,2.2 -4.8,0.2 z"
       id="path29" />
    <path
       d="m 98.7,248.3 c -1.4,-1.3 -0.6,-4.3 1.4,-5.3 4.4,-2.4 6.8,1.6 2.7,4.4 -2.5,1.8 -3.2,1.9 -4.1,0.9 z"
       id="path30" />
    <path
       d="m 77.3,246.3 c -2.2,-0.8 -1.5,-5.1 1.1,-6.9 3,-1.9 6.5,-1.5 8,0.9 0.9,1.5 0.6,2.3 -1.7,4.3 -2.7,2.3 -4.8,2.8 -7.4,1.7 z"
       id="path31" />
    <path
       d="m 114,246.1 c 0,-1.2 2.9,-4.1 4,-4.1 1.6,0 2.2,2.1 1,3.5 -1.4,1.7 -5,2 -5,0.6 z"
       id="path32" />
    <path
       d="m 109,239 c 0,-2.3 2.2,-3.5 4.5,-2.6 1.3,0.4 1.4,1 0.5,2.6 -1.4,2.7 -5,2.7 -5,0 z"
       id="path33" />
    <path
       d="m 92.3,237.5 c -0.8,-2.1 2.6,-5.7 5.1,-5.3 1.2,0.2 2.2,1.2 2.4,2.2 0.7,3.6 -6.2,6.4 -7.5,3.1 z"
       id="path34" />
    <path
       d="m 71.8,231.9 c -2.3,-1.3 -2.3,-4.2 0,-6.2 3,-2.8 8.8,-2.7 9.7,0.2 0.8,2.6 -0.2,4.7 -3.1,6 -3,1.3 -4.4,1.4 -6.6,0 z"
       id="path35" />
    <path
       d="m 104.7,231.6 c -0.3,-0.8 0.3,-2.2 1.4,-3.2 1.8,-1.6 2.1,-1.6 3.6,-0.1 1.3,1.3 1.4,1.9 0.3,3.1 -1.6,2 -4.6,2.1 -5.3,0.2 z"
       id="path36" />
    <path
       d="m 89.8,226.9 c -2.3,-1.3 -2.3,-3.2 0.1,-5.3 2.3,-2.1 5,-1.8 6.5,0.7 0.9,1.5 0.7,2.2 -1.3,3.8 -2.7,2.2 -2.9,2.2 -5.3,0.8 z"
       id="path37" />
    <path
       d="m 103.3,223.3 c -1.9,-0.7 -1.6,-4 0.4,-5.2 2.7,-1.4 5.6,0.5 4.3,2.8 -1.1,2.1 -2.9,3 -4.7,2.4 z"
       id="path38" />
    <path
       d="m 298.5,216.8 c -3.3,-1.9 -4.4,-4.1 -4.5,-8.6 0,-5.5 1.1,-7.6 5,-9.2 2.5,-1 3.4,-1 5.5,0.4 l 2.5,1.6 v -5 c 0,-4.7 0.2,-5 2.5,-5 h 2.5 v 13 c 0,12.1 -0.1,13 -1.9,13 -1.1,0 -2.1,-0.5 -2.3,-1.2 -0.3,-0.8 -1.1,-0.7 -2.8,0.5 -2.8,2 -3.8,2 -6.5,0.5 z m 8.6,-5.5 c 1.6,-4.3 0,-8.7 -3.4,-9.1 -3.9,-0.5 -5.7,1.4 -5.7,5.7 0,4.4 1.4,6.1 5.2,6.1 2.2,0 3.1,-0.6 3.9,-2.7 z"
       id="path39" />
    <path
       d="m 263,204 v -13 h 2.5 2.5 v 13 13 h -2.5 -2.5 z"
       id="path40" />
    <path
       d="m 273,208 c 0,-8.2 0.2,-9 1.9,-9 1.1,0 2.1,0.5 2.3,1.2 0.3,0.8 1.1,0.7 2.8,-0.5 3.2,-2.2 5.6,-2.1 8,0.3 1.6,1.6 2,3.3 2,9.5 0,6.8 -0.2,7.5 -2,7.5 -1.8,0 -2,-0.7 -2,-6.2 0,-7.6 -0.8,-9.1 -4.6,-8.6 -2.9,0.3 -2.9,0.4 -3.2,7.6 -0.3,6.9 -0.4,7.2 -2.7,7.2 -2.5,0 -2.5,-0.1 -2.5,-9 z"
       id="path41" />
    <path
       d="m 318.9,215.1 c -2,-1.6 -2.4,-3 -2.7,-9.5 -0.4,-7.6 -0.4,-7.6 2.1,-7.6 2.5,0 2.6,0.2 2.9,7.3 0.3,6.8 0.4,7.2 2.7,7.5 3.6,0.5 5.1,-2.2 5.1,-9 0,-5.1 0.2,-5.8 2,-5.8 1.9,0 2,0.7 2,9 0,8.2 -0.2,9 -1.9,9 -1.1,0 -2.1,-0.5 -2.3,-1.2 -0.3,-0.8 -1.1,-0.7 -2.8,0.5 -3.1,2.2 -4.2,2.1 -7.1,-0.2 z"
       id="path42" />
    <path
       d="m 341,215.9 c -2.6,-1.1 -4,-2.6 -4,-4.6 0,-2 2.8,-1.5 4,0.7 0.7,1.3 2.1,2 4,2 6,0 4.6,-4.3 -1.8,-5.5 -2,-0.4 -4.3,-1.1 -4.9,-1.7 -1.7,-1.4 -1.6,-5.3 0.1,-6.7 3.8,-3.2 12.7,-1.7 13.4,2.2 0.4,2.2 -3.3,2.4 -4.2,0.2 -0.3,-0.9 -1.8,-1.5 -3.6,-1.5 -4.8,0 -3.6,3.1 1.6,4.5 4.9,1.2 7.4,3.1 7.4,5.5 0,4 -7.1,6.9 -12,4.9 z"
       id="path43" />
    <path
       d="m 359.8,215.9 c -1.4,-0.8 -1.8,-2.4 -1.8,-7.4 0,-5.1 -0.3,-6.5 -1.5,-6.5 -0.8,0 -1.5,-0.7 -1.5,-1.5 0,-0.8 0.7,-1.5 1.5,-1.5 1,0 1.5,-1 1.5,-3 0,-2.3 0.4,-3 2,-3 1.6,0 2,0.7 2,3 0,2.3 0.4,3 2,3 1.1,0 2,0.7 2,1.5 0,0.8 -0.9,1.5 -2,1.5 -1.8,0 -2,0.7 -2,5.5 0,4.8 0.2,5.5 2,5.5 1.3,0 2,0.7 2,2 0,2.2 -3.2,2.7 -6.2,0.9 z"
       id="path44" />
    <path
       d="m 368,208 c 0,-8.3 0.1,-9 2,-9 1.1,0 2,0.7 2,1.5 0,0.8 0.5,1.5 1,1.5 0.6,0 1,-0.4 1,-0.8 0,-0.5 1.1,-1.4 2.5,-2 2.3,-1.1 2.5,-1 2.5,1.3 0,1.7 -0.6,2.5 -1.8,2.5 -3.1,0 -4.2,2.2 -4.2,8.2 0,5.5 -0.1,5.8 -2.5,5.8 -2.5,0 -2.5,-0.1 -2.5,-9 z"
       id="path45" />
    <path
       d="m 383,208 c 0,-8.3 0.1,-9 2,-9 1.9,0 2,0.7 2,9 0,8.3 -0.1,9 -2,9 -1.9,0 -2,-0.7 -2,-9 z"
       id="path46" />
    <path
       d="m 392.8,215.9 c -2,-1.1 -2.5,-6.4 -0.7,-7.5 0.6,-0.4 3.2,-1.2 5.8,-1.9 3.5,-0.8 4.6,-1.6 4.6,-3.1 0,-2.5 -4.1,-3.1 -6.5,-0.9 -1,0.9 -2.6,1.5 -3.5,1.3 -1.6,-0.3 -1.6,-0.5 0.2,-2.7 1.6,-1.9 2.9,-2.4 6.6,-2.4 6.8,0 7.7,1.2 7.7,10.4 0,7.2 -0.2,7.9 -2,7.9 -1.1,0 -2,-0.5 -2,-1 0,-0.7 -0.6,-0.7 -1.9,0 -2.5,1.3 -6.1,1.2 -8.3,-0.1 z m 9.8,-4.4 c 0.8,-3.4 0.1,-4 -3.8,-2.9 -2.3,0.7 -3.4,1.7 -3.6,3.2 -0.3,1.9 0.1,2.2 3.2,2.2 3,0 3.7,-0.4 4.2,-2.5 z"
       id="path47" />
    <path
       d="m 413,204 c 0,-12.3 0.1,-13 2,-13 1.9,0 2,0.7 2,13 0,12.3 -0.1,13 -2,13 -1.9,0 -2,-0.7 -2,-13 z"
       id="path48" />
    <path
       d="m 69,214.5 c -3,-3.7 2.3,-9.2 7.6,-7.9 4.7,1.2 5.3,7.1 0.8,8.8 -2.8,1.1 -7.1,0.6 -8.4,-0.9 z"
       id="path49" />
    <path
       d="m 88.2,212.8 c -1.8,-1.8 -1.4,-3.6 1.2,-5.3 1.9,-1.3 2.9,-1.4 4.5,-0.5 3.8,2 2,7 -2.4,7 -1.2,0 -2.6,-0.5 -3.3,-1.2 z"
       id="path50" />
    <path
       d="m 73,197.7 c -3.2,-1.6 -4,-6.5 -1.4,-8.4 2.6,-1.9 7.1,-1.6 9.4,0.7 2.4,2.4 2.5,3.2 0.3,5.8 -2.4,2.7 -5.3,3.4 -8.3,1.9 z"
       id="path51" />
    <path
       d="m 383,193 c 0,-1.3 0.7,-2 2,-2 1.3,0 2,0.7 2,2 0,1.3 -0.7,2 -2,2 -1.3,0 -2,-0.7 -2,-2 z"
       id="path52" />
    <path
       d="m 227,159.1 c 0,-2.2 2.5,-4.5 4,-3.6 1.3,0.8 -0.3,4 -2.5,4.9 -1,0.3 -1.5,-0.1 -1.5,-1.3 z"
       id="path53" />
    <path
       d="m 220,153.1 c 0,-2.2 2.5,-3.9 3.8,-2.7 0.8,0.8 -1,3.8 -2.6,4.4 -0.7,0.2 -1.2,-0.6 -1.2,-1.7 z"
       id="path54" />
    <path
       d="m 227.4,149.9 c -0.9,-1.6 3.3,-5.6 4.6,-4.3 0.6,0.6 0.5,1.7 -0.6,3.2 -1.7,2.4 -2.9,2.8 -4,1.1 z"
       id="path55" />
    <path
       d="m 131.3,148.3 c -1.8,-0.7 -1.6,-5 0.3,-5.7 2.5,-1 3.3,-0.7 4.4,1.3 0.7,1.5 0.6,2.3 -0.6,3.5 -1.6,1.7 -2.1,1.8 -4.1,0.9 z"
       id="path56" />
    <path
       d="m 218.6,146.1 c -0.8,-1.3 0.3,-3.8 1.9,-4.5 2,-0.7 2.8,1 1.5,3.4 -1.1,2.1 -2.5,2.6 -3.4,1.1 z"
       id="path57" />
    <path
       d="m 120.2,139.8 c -1.9,-1.9 -1.4,-5.6 0.9,-6.8 1.6,-0.9 2.6,-0.8 4.5,0.5 3.9,2.6 2.6,7.5 -2.1,7.5 -1.2,0 -2.6,-0.5 -3.3,-1.2 z"
       id="path58" />
    <path
       d="m 140,139.6 c -2.7,-3.3 1.8,-7.2 4.8,-4.2 1.3,1.3 1.4,2 0.6,3.4 -1.5,2.3 -3.8,2.6 -5.4,0.8 z"
       id="path59" />
    <path
       d="m 226.6,140.1 c -0.9,-1.4 0.4,-4 2.5,-5.1 2.5,-1.4 3.5,0.6 1.8,3.6 -1.3,2.4 -3.3,3.1 -4.3,1.5 z"
       id="path60" />
    <path
       d="m 204,137.6 c 0,-2.2 2.9,-4.1 4.2,-2.8 0.8,0.8 0.8,1.5 -0.2,2.7 -1.6,1.9 -4,2 -4,0.1 z"
       id="path61" />
    <path
       d="m 215.5,138 c -0.9,-1.4 1.3,-5 3,-5 1.8,0 2,3.1 0.3,4.8 -1.5,1.5 -2.5,1.5 -3.3,0.2 z"
       id="path62" />
    <path
       d="m 150.1,133.2 c -1.2,-2.3 0.4,-5.2 2.9,-5.2 2.3,0 3.6,3.6 2,5.5 -1.7,2 -3.7,1.9 -4.9,-0.3 z"
       id="path63" />
    <path
       d="m 198.4,133.5 c -0.7,-1.8 1.2,-4.5 3.2,-4.5 2.1,0 1.7,3.8 -0.6,5 -1.6,0.9 -2.2,0.8 -2.6,-0.5 z"
       id="path64" />
    <path
       d="m 210.7,130.6 c -0.6,-1.5 1.9,-5.6 3.4,-5.6 1.9,0 2.1,3.1 0.4,5 -2.1,2.4 -3.1,2.5 -3.8,0.6 z"
       id="path65" />
    <path
       d="m 224,130.5 c -1,-1.2 -0.9,-2 0.4,-4 0.9,-1.4 2.3,-2.5 3.1,-2.5 2.1,0 1.9,4.3 -0.4,6.4 -1.6,1.5 -2,1.5 -3.1,0.1 z"
       id="path66" />
    <path
       d="m 106.5,128.5 c -3,-2.9 -3.2,-5.6 -0.7,-7.8 3.9,-3.6 10.2,-0.3 10.2,5.3 0,5.1 -5.5,6.6 -9.5,2.5 z"
       id="path67" />
    <path
       d="m 131.6,128.8 c -1.6,-2.3 -0.7,-5.4 1.9,-6.4 2.2,-0.9 5.5,1.5 5.5,3.9 0,4.7 -4.8,6.3 -7.4,2.5 z"
       id="path68" />
    <path
       d="m 161.1,129.2 c -1.2,-2.3 0.4,-5.2 2.8,-5.2 1.5,0 3.1,1.8 3.1,3.5 0,0.7 -3.2,3.5 -4,3.5 -0.5,0 -1.4,-0.8 -1.9,-1.8 z"
       id="path69" />
    <path
       d="m 191.4,129.5 c -0.8,-2.1 0.3,-4.5 2,-4.5 2.2,0 2.8,1.7 1.6,4 -1.3,2.4 -2.8,2.6 -3.6,0.5 z"
       id="path70" />
    <path
       d="m 172.1,127.6 c -1.5,-1.8 0.2,-5.6 2.5,-5.6 1.9,0 3,2.9 1.7,4.8 -1.4,2.2 -2.8,2.5 -4.2,0.8 z"
       id="path71" />
    <path
       d="m 182.3,127.4 c -0.8,-2 0.9,-4.9 2.8,-4.9 1.8,0 2.4,3.2 0.9,5 -1.6,2 -2.9,1.9 -3.7,-0.1 z"
       id="path72" />
    <path
       d="m 204,122.7 c 0,-2.5 1.7,-4.7 3.7,-4.7 1.4,0 1.7,2.7 0.7,5.4 -1,2.6 -4.4,2 -4.4,-0.7 z"
       id="path73" />
    <path
       d="m 145.8,122.9 c -2.6,-1.4 -2.3,-6.5 0.3,-7.9 4.2,-2.3 7.8,4 4.3,7.4 -1.8,1.9 -2.3,1.9 -4.6,0.5 z"
       id="path74" />
    <path
       d="m 218.4,120.6 c -0.7,-1.9 2.1,-6.6 4,-6.6 2,0 2.6,2.4 1.2,5.1 -1.4,2.8 -4.4,3.7 -5.2,1.5 z"
       id="path75" />
    <path
       d="m 195,117.6 c 0,-1.4 0.7,-3.2 1.6,-4.1 1.5,-1.5 1.8,-1.5 3.2,-0.1 1.3,1.2 1.3,2 0.4,4.1 -1.6,3.4 -5.2,3.4 -5.2,0.1 z"
       id="path76" />
    <path
       d="m 159.2,117.8 c -2.8,-2.8 -0.8,-8.2 2.9,-7.6 1.8,0.2 2.5,1 2.7,3.1 0.5,4.6 -2.8,7.3 -5.6,4.5 z"
       id="path77" />
    <path
       d="m 121.1,116.1 c -4,-4 -1.6,-10.5 3.7,-9.9 1.4,0.2 3.4,1.6 4.6,3.1 1.9,2.6 1.9,3 0.5,5.5 -1.9,3.5 -6,4.1 -8.8,1.3 z"
       id="path78" />
    <path
       d="m 185,116.5 c -1.6,-1.9 -0.9,-5.6 1.3,-6.9 1.4,-0.9 2.1,-0.7 3.2,0.7 2.6,3.5 -1.7,9.5 -4.5,6.2 z"
       id="path79" />
    <path
       d="m 172,114.9 c -1.6,-2.8 0.2,-6.9 2.9,-6.9 2.9,0 4.3,3.1 2.8,6.1 -1.6,3.2 -4.3,3.6 -5.7,0.8 z"
       id="path80" />
    <path
       d="m 210.6,112.4 c -0.9,-2.4 -0.8,-2.9 1.4,-5.7 2.5,-3.2 5,-2.5 5,1.3 0,4.7 -5,8.1 -6.4,4.4 z"
       id="path81" />
    <path
       d="m 138,107 c -2.5,-2.5 -2.6,-7.2 -0.2,-9.3 2.6,-2.4 4.7,-2.1 7.1,0.9 2.6,3.3 2.7,6.6 0.3,8.7 -2.5,2.2 -4.8,2.1 -7.2,-0.3 z"
       id="path82" />
    <path
       d="m 200.7,106.3 c -2.6,-2.6 1.4,-10.2 4.8,-9 1.8,0.8 2.1,6.7 0.3,8.5 -1.3,1.3 -4.1,1.6 -5.1,0.5 z"
       id="path83" />
    <path
       d="m 155.7,101.2 c -2,-2.2 -2.2,-6.1 -0.4,-8.6 1.9,-2.5 5.8,-1.7 7.7,1.7 1.3,2.4 1.3,3 0,5.5 -1.9,3.3 -5,3.9 -7.3,1.4 z"
       id="path84" />
    <path
       d="m 188.1,101.6 c -1.9,-2.2 -0.9,-7.7 1.5,-9.3 1.9,-1.2 2.4,-1.2 3.8,0.2 2,2.1 2.1,5.4 0,8.3 -1.8,2.5 -3.6,2.8 -5.3,0.8 z"
       id="path85" />
    <path
       d="m 172.1,99.1 c -1.6,-2.9 -1.3,-5.6 0.7,-8.1 3.7,-4.6 8.7,0.7 6.6,6.9 -1.2,3.4 -5.8,4.2 -7.3,1.2 z"
       id="path86" />
  </g>
  <g
     fill="#4fba46"
     id="g140"
     transform="translate(-48.166336,-53)">
    <path
       d="m 130.1,201.1 c -1.7,-3 -1.3,-6.6 0.9,-8.6 2.4,-2.2 4.7,-1.4 6,2.1 2.1,5.4 -4.3,11.4 -6.9,6.5 z"
       id="path87" />
    <path
       d="m 145.2,200.8 c -1.7,-1.7 -1.5,-7.3 0.4,-8.9 3.3,-2.7 7.2,2.9 5,7.2 -1.3,2.8 -3.6,3.5 -5.4,1.7 z"
       id="path88" />
    <path
       d="m 114.2,198.8 c -2.7,-3.3 -1.3,-9.5 2.3,-10.4 3.4,-0.8 5.5,1.1 5.5,5.1 0,5 -5.1,8.5 -7.8,5.3 z"
       id="path89" />
    <path
       d="m 158.1,196.6 c -0.7,-0.8 -1.1,-3 -0.9,-4.8 0.4,-4.6 4,-5.2 5.7,-0.9 2.1,5 -1.7,9.4 -4.8,5.7 z"
       id="path90" />
    <path
       d="m 97.6,191.5 c -3.7,-3.8 -0.5,-10.8 4.7,-10.3 4.5,0.4 5.9,4.6 3,8.6 -2.4,3.2 -5.4,3.9 -7.7,1.7 z"
       id="path91" />
    <path
       d="m 169.2,190.8 c -1.8,-2.4 -2.2,-5.4 -0.9,-7.3 1.6,-2.1 3.4,-1.3 4.8,2.2 0.6,1.6 0.5,3.1 -0.1,4.4 -1.2,2.2 -2.3,2.4 -3.8,0.7 z"
       id="path92" />
    <path
       d="m 132.2,183.8 c -2.5,-2.5 -0.8,-7.8 2.5,-7.8 2.2,0 3.6,4 2.4,6.6 -1.2,2.6 -3,3.1 -4.9,1.2 z"
       id="path93" />
    <path
       d="m 144.1,183.6 c -2.1,-2.5 -1,-6.1 1.9,-6.1 2.2,0 2.5,0.4 2.5,3.5 0,3.8 -2.3,5.2 -4.4,2.6 z"
       id="path94" />
    <path
       d="m 177.6,182.4 c -1.8,-1.8 -2.1,-6 -0.6,-6.9 1.7,-1.1 4,1.5 4,4.6 0,3.5 -1.3,4.4 -3.4,2.3 z"
       id="path95" />
    <path
       d="m 155,181.5 c -1.8,-2.2 -0.8,-6 1.5,-6 1.5,0 2.1,0.8 2.3,3.1 0.3,3.5 -1.9,5.2 -3.8,2.9 z"
       id="path96" />
    <path
       d="M 81.7,180.2 C 78.1,176.3 81.4,170 87,170 c 5.1,0 6.6,5.5 2.5,9.5 -2.9,3 -5.6,3.2 -7.8,0.7 z"
       id="path97" />
    <path
       d="m 118.9,179.9 c -0.8,-1.6 -0.8,-2.8 0,-4.5 1.4,-3.2 4.8,-3.1 6.3,0.1 0.9,2.1 0.8,2.8 -0.7,4.5 -2.3,2.6 -4.1,2.5 -5.6,-0.1 z"
       id="path98" />
    <path
       d="m 163.6,176.5 c -1,-2.8 -0.7,-5.5 0.8,-5.5 1.9,0 3.8,2.6 3.4,4.7 -0.4,2.3 -3.4,2.9 -4.2,0.8 z"
       id="path99" />
    <path
       d="m 106.6,174.4 c -1.9,-1.9 -2,-3.5 -0.3,-5.8 2.1,-2.8 6.1,-1.7 6.5,1.7 0.6,4.9 -3,7.3 -6.2,4.1 z"
       id="path100" />
    <path
       d="m 183.2,172.8 c -1.7,-1.7 -1.5,-5.8 0.3,-5.8 1.8,0 3.8,3.7 3.1,5.6 -0.7,1.7 -1.8,1.8 -3.4,0.2 z"
       id="path101" />
    <path
       d="m 143,169.9 c -1,-1.7 -0.9,-2.4 0.4,-3.7 2,-2 3.9,-0.4 3.4,2.9 -0.4,3.1 -2.4,3.5 -3.8,0.8 z"
       id="path102" />
    <path
       d="m 133.7,170.4 c -1.2,-1.3 -0.7,-5.2 0.7,-5.7 1.8,-0.7 3.9,1.7 3.4,4 -0.3,1.8 -2.9,2.9 -4.1,1.7 z"
       id="path103" />
    <path
       d="m 123.1,166.1 c -0.9,-1.5 -0.7,-2.3 0.5,-3.6 2,-2 4.6,-0.2 4.2,2.9 -0.4,2.8 -3.4,3.2 -4.7,0.7 z"
       id="path104" />
    <path
       d="m 68.2,165.8 c -1.8,-1.8 -1.4,-6.3 0.6,-8.1 5.8,-5.3 13.7,1.8 8.2,7.3 -2.2,2.2 -6.9,2.7 -8.8,0.8 z"
       id="path105" />
    <path
       d="m 94.6,165.4 c -1.9,-1.8 -2,-2.8 -0.6,-5.5 1.9,-3.5 8,-1.9 8,2.1 0,1.9 -3,5 -4.8,5 -0.6,0 -1.8,-0.7 -2.6,-1.6 z"
       id="path106" />
    <path
       d="m 187.6,163.5 c -2.1,-2.2 -2.1,-5.8 0,-5.3 2,0.4 3.5,4 2.5,5.7 -0.6,1 -1.2,0.9 -2.5,-0.4 z"
       id="path107" />
    <path
       d="m 113,161.5 c -1.7,-2.1 -0.2,-5 2.6,-5 1.4,0 1.9,0.7 1.9,3 0,3.4 -2.4,4.5 -4.5,2 z"
       id="path108" />
    <path
       d="m 104.2,155.1 c -0.8,-0.4 -1.2,-1.9 -1,-3.2 0.2,-1.8 0.9,-2.4 2.8,-2.4 2.8,0 3.9,2.7 2,5 -1.4,1.7 -2,1.8 -3.8,0.6 z"
       id="path109" />
    <path
       d="m 83.7,154.3 c -1.1,-1.1 -0.8,-4.8 0.5,-6.1 3.4,-3.4 9,0.6 6.8,4.8 -1,2 -5.8,2.8 -7.3,1.3 z"
       id="path110" />
    <path
       d="m 189.6,153.1 c -1.9,-2 -1.5,-5.8 0.4,-4.6 1.7,1.1 2.9,4.1 2.1,5.3 -0.5,0.9 -1.2,0.7 -2.5,-0.7 z"
       id="path111" />
    <path
       d="m 59.3,149.8 c -5.1,-2.4 -2,-9.8 4.1,-9.8 5.9,0 7.7,5.2 3,8.9 -3,2.3 -3.9,2.4 -7.1,0.9 z"
       id="path112" />
    <path
       d="m 95.6,145.4 c -1.9,-1.9 -1.7,-3.3 0.7,-4.8 2.4,-1.5 5.6,1.7 4.1,4.1 -1.5,2.4 -2.9,2.6 -4.8,0.7 z"
       id="path113" />
    <path
       d="m 75,140.1 c -1.5,-2.9 1.8,-6.6 5.3,-5.7 3,0.7 4.4,4 2.7,6.1 -1.8,2.2 -6.7,1.9 -8,-0.4 z"
       id="path114" />
    <path
       d="m 88.4,134.5 c -0.9,-2.3 0.3,-4.5 2.4,-4.5 2.5,0 4.4,2.3 3.6,4.4 -0.8,2 -5.3,2.1 -6,0.1 z"
       id="path115" />
    <path
       d="m 52,131 c -1.1,-1.1 -2,-2.4 -2,-3 0,-2 4.1,-5 6.8,-5 3.1,0 6.2,2.7 6.2,5.3 0,2 -3.8,4.7 -6.7,4.7 -1.3,0 -3.2,-0.9 -4.3,-2 z"
       id="path116" />
    <path
       d="m 71,127.2 c -1.9,-1.6 -2.1,-2.2 -1.1,-4 1.4,-2.6 5.2,-2.9 7.5,-0.6 2.1,2.1 2,3 -0.6,4.8 -2.8,2 -3.1,2 -5.8,-0.2 z"
       id="path117" />
    <path
       d="m 83.9,123.4 c -1.1,-1.4 -1,-1.8 0.6,-3 1,-0.8 2.2,-1.4 2.6,-1.4 1.4,0 3.1,3 2.5,4.5 -0.7,2 -4,1.9 -5.7,-0.1 z"
       id="path118" />
    <path
       d="m 51.5,114.8 c -3.7,-2.1 -4.3,-3.9 -1.9,-6.2 3.8,-3.9 12.9,-0.3 10.5,4.2 -1.7,3.2 -5.1,4 -8.6,2 z"
       id="path119" />
    <path
       d="m 68.4,113.6 c -1.5,-1.2 -1.7,-1.8 -0.8,-3.3 2.2,-3.6 8.4,-2.4 8.4,1.7 0,3 -4.4,3.9 -7.6,1.6 z"
       id="path120" />
    <path
       d="m 82.6,113.4 c -2.9,-2.9 -1.3,-5 3,-4 2.7,0.7 3.3,4 0.8,5 -2.1,0.8 -2,0.8 -3.8,-1 z"
       id="path121" />
    <path
       d="m 82.2,102.7 c -1,-1.1 -0.9,-1.7 0.4,-2.8 1.8,-1.5 4.9,-0.1 4.9,2.2 0,1.9 -3.9,2.3 -5.3,0.6 z"
       id="path122" />
    <path
       d="m 69.9,101.2 c -1.4,-1.2 -2,-2.5 -1.6,-3.5 0.9,-2.3 5,-2.1 7.1,0.2 1.6,1.7 1.6,2 0.1,3.5 -2.1,2 -2.8,2 -5.6,-0.2 z"
       id="path123" />
    <path
       d="m 52,98 c -2.9,-2.9 -1.2,-6 3.4,-6 4.2,0 7.5,3.3 6,5.8 -1.7,2.6 -6.9,2.7 -9.4,0.2 z"
       id="path124" />
    <path
       d="m 84.4,93.5 c -1,-2.5 1,-3.9 3.6,-2.5 2.6,1.4 2.2,3.4 -0.8,3.8 -1.3,0.2 -2.5,-0.3 -2.8,-1.3 z"
       id="path125" />
    <path
       d="m 72.9,90.1 c -2.2,-1.8 -2.3,-2.1 -0.8,-3.6 1.2,-1.2 2.1,-1.4 4.2,-0.6 3,1.2 3.7,4.5 1.1,5.5 -2.1,0.8 -1.9,0.9 -4.5,-1.3 z"
       id="path126" />
    <path
       d="m 88.6,86.4 c -1.1,-1.1 -1.4,-2 -0.8,-2.6 1.5,-1.5 5.4,0.1 5,2 -0.4,2.3 -2.3,2.5 -4.2,0.6 z"
       id="path127" />
    <path
       d="m 58.3,85.8 c -2.9,-1.4 -3.6,-3.4 -1.7,-5.3 2.1,-2 4.7,-1.9 7.5,0.4 4.3,3.5 -0.5,7.5 -5.8,4.9 z"
       id="path128" />
    <path
       d="m 79.3,81.9 c -3.1,-1.2 -3.1,-4.9 0,-4.9 2.5,0 4.7,1.7 4.7,3.6 0,1.7 -2.1,2.3 -4.7,1.3 z"
       id="path129" />
    <path
       d="M 94.8,80.9 C 92.7,79.7 92.4,77 94.4,77 c 0.7,0 1.9,0.7 2.6,1.5 1.7,2.1 0.1,3.7 -2.2,2.4 z"
       id="path130" />
    <path
       d="m 64.7,74.2 c -1,-1 -1.7,-2.4 -1.7,-3 0,-1.7 3.7,-2.4 6.2,-1.1 3.1,1.6 3.9,3.1 2.6,4.6 -1.5,1.9 -5.2,1.6 -7.1,-0.5 z"
       id="path131" />
    <path
       d="m 84,73.5 c -1,-1.2 -1,-1.9 -0.2,-2.7 1.5,-1.5 6.2,0.5 6.2,2.7 0,2 -4.4,2 -6,0 z"
       id="path132" />
    <path
       d="m 92.2,68.8 c -2,-2 -1.4,-3 1.5,-2.6 3.2,0.4 4.6,3.8 1.6,3.8 -1.1,0 -2.4,-0.5 -3.1,-1.2 z"
       id="path133" />
    <path
       d="M 73.6,66.1 C 71.5,63.7 72.3,62 75.4,62 c 2.6,0 6.1,3.4 5.1,4.9 -1,1.8 -5,1.3 -6.9,-0.8 z"
       id="path134" />
    <path
       d="m 100.3,65.5 c -0.3,-0.9 -0.2,-1.9 0.1,-2.3 0.8,-0.8 3.8,1 4.4,2.6 0.6,1.8 -3.8,1.4 -4.5,-0.3 z"
       id="path135" />
    <path
       d="m 109.5,64.7 c -2.4,-1.8 -1.1,-4.1 1.6,-2.7 1,0.6 1.9,1.7 1.9,2.5 0,1.9 -1.1,1.9 -3.5,0.2 z"
       id="path136" />
    <path
       d="M 84.2,61.4 C 83,60.6 82,59.2 82,58.4 c 0,-2.1 4.4,-1.7 6.6,0.7 1.6,1.7 1.6,2.2 0.4,2.9 -2,1.3 -2.2,1.2 -4.8,-0.6 z"
       id="path137" />
    <path
       d="m 93.5,57.4 c -1.1,-1.2 -1.3,-2 -0.6,-2.7 1.4,-1.4 6.1,0.7 6.1,2.8 0,2 -3.4,1.9 -5.5,-0.1 z"
       id="path138" />
    <path
       d="m 114.9,57.1 c -1.3,-1.1 -2.1,-2.2 -1.7,-2.6 1,-1 4.5,0.4 5.2,2 0.9,2.3 -1,2.6 -3.5,0.6 z"
       id="path139" />
    <path
       d="m 104.2,56.8 c -1.6,-1.6 -1.5,-3.8 0.2,-3.8 1.6,0 4.6,2.6 4.6,4.1 0,1.3 -3.4,1.1 -4.8,-0.3 z"
       id="path140" />
  </g>
</svg>
