<?xml version="1.0" encoding="UTF-8" standalone="no"?>
<svg
   version="1.2"
   width="144.54652"
   height="174.56705"
   viewBox="0 0 144.54652 174.56705"
   preserveAspectRatio="xMidYMid"
   id="svg112"
   xmlns="http://www.w3.org/2000/svg"
   xmlns:svg="http://www.w3.org/2000/svg">
  <defs
     id="defs112" />
  <g
     fill="#0092d1"
     id="g57"
     transform="translate(-35.453469,-9.9496096)">
    <path
       d="m 96.35,184.15 c -1.35,-1.3 1.7,-5.35 3.75,-5.05 1.7,0.25 1.8,2.55 0.2,4.15 -1.2,1.2 -3.25,1.65 -3.95,0.9 z"
       id="path2" />
    <path
       d="m 87.85,183.65 c -1.4,-1.35 1.55,-5.15 4.05,-5.15 1.7,0 2.3,0.95 1.6,2.7 -0.8,2.1 -4.45,3.7 -5.65,2.45 z"
       id="path3" />
    <path
       d="m 104.65,182.9 c -1.2,-1.55 1.75,-5.45 3.55,-4.75 1.1,0.45 1.05,3 -0.05,3.95 -1.35,1.15 -2.95,1.5 -3.5,0.8 z"
       id="path4" />
    <path
       d="m 79.2,181.25 c -1.15,-2.95 4.3,-6.9 6.25,-4.55 0.85,1 0.15,3.15 -1.3,4.3 -1.55,1.2 -4.55,1.35 -4.95,0.25 z"
       id="path5" />
    <path
       d="m 71.1,177.4 c -1.05,-1.05 -0.65,-2.45 1.1,-4.2 1.25,-1.25 2.15,-1.7 3.4,-1.7 3.3,0 3.85,2.15 1.2,4.8 -1.8,1.8 -4.5,2.3 -5.7,1.1 z"
       id="path6" />
    <path
       d="m 100,175.25 c 0,-1.6 1.65,-3.25 3.25,-3.25 1,0 1.25,0.25 1.25,1.25 0,1.6 -1.65,3.25 -3.25,3.25 -1,0 -1.25,-0.25 -1.25,-1.25 z"
       id="path7" />
    <path
       d="m 93.35,175.65 c -0.75,-0.7 -0.3,-2.55 0.85,-3.6 2.6,-2.45 5.2,0.15 2.75,2.75 -1.05,1.15 -2.9,1.6 -3.6,0.85 z"
       id="path8" />
    <path
       d="m 86.3,172.75 c -0.95,-2.5 3.45,-5.6 5.15,-3.55 0.75,0.9 -0.05,3.05 -1.4,3.75 -1.45,0.8 -3.4,0.65 -3.75,-0.2 z"
       id="path9" />
    <path
       d="m 63.6,170.9 c -2.55,-2.55 3.1,-7.6 6.65,-6 1.85,0.85 1.7,3.25 -0.3,5.15 -1.2,1.1 -2.05,1.45 -3.65,1.45 -1.15,0 -2.35,-0.25 -2.7,-0.6 z"
       id="path10" />
    <path
       d="m 80.25,169.2 c -1.65,-1.65 0.6,-4.7 3.5,-4.7 2.8,0 2.85,2.8 0.15,4.7 -1.45,1 -2.6,1 -3.65,0 z"
       id="path11" />
    <path
       d="m 74.2,162.75 c -0.6,-2.45 1.85,-4.6 4.85,-4.15 0.95,0.1 1.25,0.5 1.35,1.75 0.2,2.15 -1.45,3.65 -4,3.65 -1.6,0 -1.95,-0.2 -2.2,-1.25 z"
       id="path12" />
    <path
       d="m 57.85,162.1 c -2.05,-2.25 -0.25,-5.8 3.25,-6.55 5,-1.1 6.75,3.75 2.3,6.45 -2.05,1.25 -4.5,1.3 -5.55,0.1 z"
       id="path13" />
    <path
       d="m 87.25,162.45 c -1.05,-1.65 1.7,-4.35 3.8,-3.7 2.1,0.7 0.35,4.25 -2.05,4.25 -0.8,0 -1.6,-0.25 -1.75,-0.55 z"
       id="path14" />
    <path
       d="m 82.8,157.15 c -0.55,-1.45 1.3,-3.4 3.25,-3.4 2,0 2.45,1.15 1.25,3 -1,1.55 -4,1.8 -4.5,0.4 z"
       id="path15" />
    <path
       d="m 70.9,156.3 c -1.55,-0.75 -1.75,-2.95 -0.45,-4.25 2.3,-2.3 6.05,-1.75 6.05,0.85 0,2.55 -3.25,4.55 -5.6,3.4 z"
       id="path16" />
    <path
       d="m 55,151.65 c -3.9,-1.45 -2.95,-6.45 1.5,-7.65 2.55,-0.7 5.3,0.35 5.75,2.15 0.85,3.3 -3.75,6.8 -7.25,5.5 z"
       id="path17" />
    <path
       d="m 79.8,151.25 c -0.9,-2.35 0.6,-4.45 3,-4.15 2.05,0.25 2.65,1.55 1.4,3.25 -1.25,1.65 -3.9,2.2 -4.4,0.9 z"
       id="path18" />
    <path
       d="m 67.35,146.6 c -1.25,-1.35 -1.05,-2.5 0.65,-4.2 1.35,-1.3 1.8,-1.5 3.35,-1.25 2.05,0.35 2.65,1 2.65,2.95 0,2.75 -4.8,4.55 -6.65,2.5 z"
       id="path19" />
    <path
       d="m 78.1,143.9 c -1.55,-1.55 0.2,-4.9 2.55,-4.9 1.55,0 2.35,0.9 2.35,2.55 0,2.3 -3.35,3.9 -4.9,2.35 z"
       id="path20" />
    <path
       d="m 52,137.5 c -1.4,-1.3 -1.6,-1.75 -1.3,-3.15 1,-5.1 10.3,-5.35 10.3,-0.25 0,2.1 -0.85,3.4 -2.75,4.2 -2.7,1.1 -4.45,0.9 -6.25,-0.8 z"
       id="path21" />
    <path
       d="m 66.6,136.4 c -0.35,-0.35 -0.6,-1.45 -0.6,-2.45 0,-2.3 1.35,-3.45 4.05,-3.45 3.25,0 4.6,3.2 2.3,5.4 -1.3,1.25 -4.75,1.5 -5.75,0.5 z"
       id="path22" />
    <path
       d="m 55.55,124.35 c -0.95,-0.35 -2.15,-1.2 -2.7,-1.95 -2.3,-3.1 1.45,-7.55 5.55,-6.65 5.2,1.1 6,6.6 1.35,8.55 -2,0.8 -2,0.8 -4.2,0.05 z"
       id="path23" />
    <path
       d="m 175.35,94.65 c -1.2,-1.15 1.05,-4.8 2.85,-4.55 1.45,0.2 1.6,1.9 0.3,3.55 -1,1.3 -2.45,1.75 -3.15,1 z"
       id="path24" />
    <path
       d="m 169.75,89.95 c -0.55,-0.85 0.2,-2.9 1.3,-3.45 2.25,-1.25 3.4,1.05 1.45,3 -1.1,1.1 -2.25,1.3 -2.75,0.45 z"
       id="path25" />
    <path
       d="m 175.75,87 c -0.55,-0.9 0.3,-3.45 1.4,-4.25 1.75,-1.25 2.85,-0.95 2.85,0.7 0,2.6 -3.2,5.25 -4.25,3.55 z"
       id="path26" />
    <path
       d="M 99.85,84.6 C 98.8,83.45 98.8,82.55 99.8,81.1 c 1.5,-2.15 5.2,-1 5.2,1.6 0,2.45 -3.5,3.75 -5.15,1.9 z"
       id="path27" />
    <path
       d="m 168.5,82.6 c 0,-1.95 2.2,-4.05 3.4,-3.25 1.75,1.15 0.05,4.65 -2.25,4.65 -0.95,0 -1.15,-0.25 -1.15,-1.4 z"
       id="path28" />
    <path
       d="m 175.65,79.65 c -1.15,-0.45 -0.75,-3.6 0.6,-4.9 0.65,-0.7 1.5,-1.25 1.9,-1.25 2.1,0 2.05,3.15 0,5.25 -1.35,1.3 -1.45,1.35 -2.5,0.9 z"
       id="path29" />
    <path
       d="m 91.75,78.25 c -0.7,-0.65 -1.25,-1.8 -1.25,-2.5 0,-1.65 2.1,-3.75 3.75,-3.75 1.55,0 4.25,2.45 4.25,3.9 0,0.55 -0.45,1.55 -1.05,2.3 -1.4,1.75 -4,1.8 -5.7,0.05 z"
       id="path30" />
    <path
       d="m 107.35,78.6 c -1.1,-1.2 -1.05,-3.25 0.05,-4.25 1.6,-1.45 3.9,-0.95 4.65,1 1.1,2.95 -2.65,5.55 -4.7,3.25 z"
       id="path31" />
    <path
       d="m 158.1,77.9 c -1.45,-1.45 0.2,-4.7 2.25,-4.3 1.35,0.25 1.45,2.6 0.2,3.85 -1.2,1.2 -1.6,1.3 -2.45,0.45 z"
       id="path32" />
    <path
       d="m 166.2,76.8 c -0.35,-1.45 0.45,-3.05 1.85,-3.85 1.5,-0.8 2.45,-0.2 2.45,1.55 0,2.9 -3.65,4.85 -4.3,2.3 z"
       id="path33" />
    <path
       d="m 115.35,73.6 c -1.15,-1.25 -1.05,-2.9 0.15,-4.1 1.15,-1.15 2.45,-1.25 3.75,-0.3 1.05,0.75 1.25,3.35 0.25,4.5 -0.85,1.1 -3.15,1 -4.15,-0.1 z"
       id="path34" />
    <path
       d="m 153.35,74.15 c -0.65,-0.6 -0.35,-3.5 0.35,-4.15 1.3,-1.05 3.05,-0.4 3.2,1.15 0.25,2.2 -2.25,4.3 -3.55,3 z"
       id="path35" />
    <path
       d="m 101.15,70.9 c -2.2,-2.4 -1.85,-5.3 0.7,-6.35 1.85,-0.75 3.75,-0.1 4.95,1.65 2.3,3.55 -2.8,7.8 -5.65,4.7 z"
       id="path36" />
    <path
       d="m 162.85,71.65 c -0.5,-0.5 -0.4,-2.6 0.15,-3.65 0.7,-1.25 2.2,-2.05 3.2,-1.7 1.15,0.45 1.05,3.8 -0.1,4.85 -0.95,0.85 -2.65,1.1 -3.25,0.5 z"
       id="path37" />
    <path
       d="m 172.65,71.2 c -0.15,-0.45 -0.1,-1.6 0.15,-2.6 0.5,-2 2.45,-3.5 3.85,-2.95 1.2,0.45 1.1,3.4 -0.2,5.05 -1.15,1.45 -3.3,1.75 -3.8,0.5 z"
       id="path38" />
    <path
       d="M 82.1,70.8 C 80.5,69.95 79,67.55 79,65.85 c 0,-1.6 1.8,-3.65 3.65,-4.1 1.8,-0.45 4.7,0.95 5.85,2.85 2.65,4.25 -1.95,8.7 -6.4,6.2 z"
       id="path39" />
    <path
       d="M 124.25,70.8 C 123.2,70.05 123,67.45 124,66.3 c 0.75,-0.95 3.05,-1.05 3.9,-0.2 0.9,0.9 0.7,3.65 -0.3,4.55 -1.15,1.05 -2.1,1.05 -3.35,0.15 z"
       id="path40" />
    <path
       d="m 147.35,71.15 c -0.7,-0.65 -0.3,-3.5 0.55,-4.3 2.5,-2.25 4.8,0.7 2.8,3.55 -0.7,1.05 -2.65,1.5 -3.35,0.75 z"
       id="path41" />
    <path
       d="m 132.9,69.45 c -1.15,-0.65 -1.2,-3.6 -0.1,-4.7 1.25,-1.25 3.35,-0.75 3.9,0.9 0.4,1.1 0.3,1.6 -0.55,2.75 -1.15,1.55 -2,1.8 -3.25,1.05 z"
       id="path42" />
    <path
       d="m 140.35,69.65 c -0.65,-0.6 -0.35,-4 0.35,-4.6 0.4,-0.35 1.35,-0.55 2.15,-0.45 1.2,0.15 1.4,0.4 1.55,1.8 0.1,1.1 -0.15,2.05 -0.7,2.65 -0.85,0.95 -2.7,1.3 -3.35,0.6 z"
       id="path43" />
    <path
       d="m 157.3,66.2 c -1,-2.65 0.5,-5.35 2.85,-5.1 1.4,0.15 1.6,0.35 1.75,1.8 0.25,2.3 -1.05,4.1 -2.85,4.1 -0.85,0 -1.55,-0.3 -1.75,-0.8 z"
       id="path44" />
    <path
       d="m 111.25,64.7 c -1.6,-1.75 -1.6,-3.9 0,-5.45 3.15,-3.15 7.6,0.65 5.5,4.7 -1.25,2.45 -3.65,2.75 -5.5,0.75 z"
       id="path45" />
    <path
       d="m 169.1,64.4 c -1.5,-1.5 0,-6.15 2.15,-6.7 1.95,-0.5 2.9,0.65 2.6,2.95 -0.45,3.2 -3.15,5.35 -4.75,3.75 z"
       id="path46" />
    <path
       d="m 150.85,62.6 c -2.45,-2.7 1.5,-8.05 4.05,-5.5 1.05,1.05 0.7,3.85 -0.65,5.15 -1.45,1.5 -2.3,1.55 -3.4,0.35 z"
       id="path47" />
    <path
       d="m 94.15,61.25 c -2.25,-0.95 -3.75,-3.5 -3.45,-5.7 0.9,-5.95 8.95,-5.15 9.65,1 0.2,1.9 0.05,2.5 -0.9,3.6 -1.5,1.65 -3.25,2.05 -5.3,1.1 z"
       id="path48" />
    <path
       d="m 121.8,60.9 c -1.25,-1.75 -1,-4.25 0.5,-5.65 1.5,-1.4 1.85,-1.5 3.35,-0.7 1.5,0.8 1.85,1.4 1.85,3.45 0,2.55 -1.2,4 -3.25,4 -1.2,0 -1.95,-0.35 -2.45,-1.1 z"
       id="path49" />
    <path
       d="m 142.35,60.1 c -1.25,-1.4 -1.05,-3.9 0.4,-5.35 1.45,-1.5 2.45,-1.55 3.75,-0.25 1.25,1.25 1.25,2.8 0,4.9 -1.15,1.85 -2.85,2.15 -4.15,0.7 z"
       id="path50" />
    <path
       d="m 132.6,59.85 c -1.35,-1.6 -1.05,-5.45 0.55,-6.45 1.05,-0.65 3.25,-0.45 4.1,0.45 1.05,1.05 0.75,4.25 -0.55,5.7 -0.95,1.1 -3.3,1.25 -4.1,0.3 z"
       id="path51" />
    <path
       d="m 163.4,57.95 c -1.95,-1.1 -0.85,-6.15 1.6,-7.45 3.15,-1.7 4.55,3.7 1.7,6.75 -1.25,1.35 -1.95,1.5 -3.3,0.7 z"
       id="path52" />
    <path
       d="m 107.15,54 c -1.9,-0.75 -3.25,-3.45 -3,-5.95 0.3,-2.75 1.7,-4.25 4.05,-4.25 4.8,0 7,7.75 2.8,9.95 -1.65,0.85 -2.25,0.9 -3.85,0.25 z"
       id="path53" />
    <path
       d="m 154.6,52 c -1.5,-2.4 0.1,-7.15 2.65,-7.8 3.2,-0.8 4.55,4.2 1.95,7.25 -1.5,1.85 -3.65,2.1 -4.6,0.55 z"
       id="path54" />
    <path
       d="m 120.2,49.25 c -2.3,-1.6 -2.85,-6.65 -0.95,-8.75 1.85,-2.05 5.65,-1.15 6.75,1.55 1.95,4.65 -2.2,9.75 -5.8,7.2 z"
       id="path55" />
    <path
       d="m 144.7,48.45 c -1.9,-2.1 -0.75,-7.4 1.8,-8.2 3.95,-1.25 5.95,4.15 2.95,7.95 -1.25,1.6 -3.4,1.7 -4.75,0.25 z"
       id="path56" />
    <path
       d="m 132.5,46.65 c -1.55,-2 -1.2,-5.85 0.7,-7.5 1.6,-1.35 2.65,-1.45 4.2,-0.35 2.35,1.6 2.6,5.9 0.55,8.15 -1.45,1.55 -4.1,1.4 -5.45,-0.3 z"
       id="path57" />
  </g>
  <g
     fill="#4ebd3f"
     id="g111"
     transform="translate(-35.453469,-9.9496096)">
    <path
       d="m 100.95,128.15 c -1.45,-0.35 -2.65,-3.3 -2.3,-5.7 0.55,-4.05 4.45,-5.45 6.35,-2.3 1.2,1.95 1.25,4 0.15,5.85 -0.65,1.15 -2.8,2.7 -3.3,2.45 -0.05,-0.05 -0.45,-0.15 -0.9,-0.3 z"
       id="path58" />
    <path
       d="m 111.3,126.4 c -1.9,-2.85 -1.4,-6.65 0.95,-7.9 1.65,-0.9 3.5,0.4 4.3,2.95 0.5,1.65 0.45,2.25 -0.35,3.9 -0.75,1.55 -1.25,1.95 -2.55,2.05 -1.2,0.1 -1.75,-0.1 -2.35,-1 z"
       id="path59" />
    <path
       d="m 86.75,124.4 c -1.2,-1.4 -1.3,-1.9 -1.05,-3.85 0.35,-2.55 1.75,-4.3 3.9,-4.8 1.1,-0.3 1.65,-0.05 2.95,1.2 1.4,1.45 1.55,1.8 1.3,3.85 -0.15,1.6 -0.65,2.75 -1.65,3.75 -1.9,1.95 -3.7,1.9 -5.45,-0.15 z"
       id="path60" />
    <path
       d="m 121.75,123.25 c -1.35,-1.3 -1.7,-4.45 -0.75,-6.3 0.7,-1.25 3.05,-1.25 4.2,0 1.25,1.35 1.25,5.25 0.05,6.55 -1.2,1.3 -2.05,1.25 -3.5,-0.25 z"
       id="path61" />
    <path
       d="M 74.95,120.15 C 74,119.9 72.5,117.4 72.5,116.05 c 0,-3 2.7,-6.05 5.4,-6.05 1.4,0 3.45,1.8 3.75,3.3 0.8,4.15 -2.85,7.9 -6.7,6.85 z"
       id="path62" />
    <path
       d="m 130.6,118.7 c -1.55,-1.05 -2.2,-2.95 -1.8,-5 0.4,-2.3 2.25,-2.8 4,-1.15 1.5,1.45 1.7,4.85 0.3,6.1 -1.15,1.05 -1.1,1.05 -2.5,0.05 z"
       id="path63" />
    <path
       d="m 101.3,113.2 c -1.85,-1.8 -1.4,-5 0.85,-6.4 0.65,-0.4 1.2,-0.35 2.25,0.2 1.1,0.65 1.4,1.2 1.5,2.95 0.25,3.4 -2.5,5.35 -4.6,3.25 z"
       id="path64" />
    <path
       d="m 110.3,112.9 c -1.75,-2.45 -0.55,-5.9 1.95,-5.9 2.3,0 3.65,4.05 2.05,6.15 -0.95,1.2 -3.1,1.1 -4,-0.25 z"
       id="path65" />
    <path
       d="m 136,111.4 c -1.25,-2.1 -1.25,-3.65 0,-4.9 1.8,-1.8 4,0.25 4,3.6 0,3.2 -2.4,3.95 -4,1.3 z"
       id="path66" />
    <path
       d="M 62.35,111.05 C 60.9,110.3 60.75,110 60.6,107.6 c -0.15,-2.45 0,-2.8 1.55,-4.35 2.1,-2.1 4.45,-2.35 6.55,-0.7 1.05,0.85 1.3,1.45 1.3,3.4 0,1.95 -0.25,2.65 -1.5,3.9 -1.8,1.85 -4,2.25 -6.15,1.2 z"
       id="path67" />
    <path
       d="m 118.8,110.9 c -0.95,-1.35 -1.05,-3.95 -0.2,-4.8 1.55,-1.55 4.4,0.3 4.4,2.9 0,2.85 -2.7,4.05 -4.2,1.9 z"
       id="path68" />
    <path
       d="m 90.8,110.4 c -1.1,-1.55 -1,-3.5 0.25,-5.1 1.95,-2.5 5.45,-1 5.45,2.35 0,2.4 -1.2,3.85 -3.25,3.85 -1.2,0 -1.95,-0.35 -2.45,-1.1 z"
       id="path69" />
    <path
       d="m 125.85,107.6 c -0.5,-0.5 -0.85,-1.75 -0.85,-2.75 0,-1.55 0.2,-1.9 1.35,-2.15 2.2,-0.55 3.85,2.35 2.85,5 -0.4,1.1 -2.35,1 -3.35,-0.1 z"
       id="path70" />
    <path
       d="M 81.1,105.85 C 78.9,103.5 80.55,99 83.65,99 c 3.1,0 4.45,4.55 2.05,6.75 -1.7,1.55 -3.2,1.6 -4.6,0.1 z"
       id="path71" />
    <path
       d="m 142.35,105.6 c -1.9,-0.4 -3.25,-5.65 -1.55,-6.3 1.75,-0.65 3.7,1.45 3.7,4.1 0,1.65 -0.8,2.5 -2.15,2.2 z"
       id="path72" />
    <path
       d="m 111,103.65 c -2.65,-1.05 -2.6,-5.65 0.05,-5.65 2.05,0 3.4,3.85 1.85,5.4 -0.65,0.65 -0.8,0.65 -1.9,0.25 z"
       id="path73" />
    <path
       d="m 102.1,102.4 c -0.85,-0.85 -0.75,-3.65 0.1,-4.4 2.05,-1.65 4.85,1 3.85,3.65 -0.4,1 -0.85,1.35 -1.95,1.35 -0.75,0 -1.65,-0.25 -2,-0.6 z"
       id="path74" />
    <path
       d="m 94.1,100 c -0.75,-1.25 -0.8,-3.6 0,-4.4 0.85,-0.85 2.7,-0.75 3.6,0.2 0.95,0.9 1.05,3.75 0.2,4.6 -0.95,0.95 -3.1,0.7 -3.8,-0.4 z"
       id="path75" />
    <path
       d="m 52.6,100.15 c -1.15,-0.25 -3.1,-2.8 -3.1,-4.05 0,-1.6 1.7,-4.05 3.25,-4.8 5,-2.4 9.15,1.6 6.45,6.15 -1.3,2.2 -3.85,3.25 -6.6,2.7 z"
       id="path76" />
    <path
       d="M 71.6,98.85 C 69.35,96.45 71.1,92 74.25,92 75.9,92 78,94.05 78,95.7 c 0,0.65 -0.6,1.9 -1.3,2.75 -1.6,1.9 -3.55,2.05 -5.1,0.4 z"
       id="path77" />
    <path
       d="m 144,96.4 c -1.15,-1.9 -1.15,-3.3 0.1,-4.1 1.35,-0.8 3,1.1 3.1,3.55 0.05,1.6 -0.1,1.9 -1.05,2.05 -0.8,0.1 -1.4,-0.3 -2.15,-1.5 z"
       id="path78" />
    <path
       d="m 86.35,96.1 c -1,-1.1 -1.1,-3.65 -0.25,-4.5 1.65,-1.65 4.9,0 4.9,2.5 0,2.5 -3.05,3.8 -4.65,2 z"
       id="path79" />
    <path
       d="m 63.15,89.7 c -2.35,-2.35 -0.45,-6.2 3.15,-6.2 3.45,0 4.95,3.8 2.45,6.25 -1.6,1.65 -3.9,1.65 -5.6,-0.05 z"
       id="path80" />
    <path
       d="m 78.6,90.4 c -0.9,-0.9 -0.7,-3.65 0.3,-4.55 1.95,-1.8 4.6,-0.35 4.6,2.45 0,1.9 -0.8,2.7 -2.75,2.7 -0.85,0 -1.8,-0.25 -2.15,-0.6 z"
       id="path81" />
    <path
       d="m 145.75,88.8 c -0.9,-1.35 -0.85,-3.85 0.1,-4.15 1.1,-0.4 3.25,2.25 3.05,3.75 -0.2,1.85 -2.05,2.1 -3.15,0.4 z"
       id="path82" />
    <path
       d="M 43,85.75 C 40.2,82.8 42.7,78 47,78 c 3.8,0 6,2.15 5.2,5.15 -0.9,3.65 -6.7,5.25 -9.2,2.6 z"
       id="path83" />
    <path
       d="m 72.3,83.2 c -1.75,-1.7 -0.4,-5.2 2,-5.2 1.25,0 3.2,1.75 3.2,2.9 0,2.6 -3.4,4.1 -5.2,2.3 z"
       id="path84" />
    <path
       d="m 56.85,79.6 c -2.1,-2.3 -0.15,-6.1 3.1,-6.1 2.25,0 4.25,2.05 3.8,3.9 -0.55,2.2 -1.7,3.1 -4,3.1 -1.4,0 -2.35,-0.3 -2.9,-0.9 z"
       id="path85" />
    <path
       d="M 67.4,75.15 C 66,73.5 65.95,72.5 67.25,71.2 68.7,69.75 69.5,69.7 71,70.9 c 1.25,1 1.5,3.15 0.5,4.35 -0.85,1 -3.2,0.95 -4.1,-0.1 z"
       id="path86" />
    <path
       d="M 38.25,71.75 C 35.95,69.5 36.95,66.1 40.3,65 c 2.4,-0.8 4.95,-0.25 6.2,1.35 1.4,1.8 1.25,3.45 -0.45,5.2 C 44.8,72.75 44.2,73 42,73 39.95,73 39.2,72.75 38.25,71.75 Z"
       id="path87" />
    <path
       d="m 53.1,68.85 c -1.65,-1.75 -1.5,-4.15 0.4,-5.1 1.95,-1 3.1,-0.95 4.7,0.3 1.3,1 1.75,3.05 0.9,4.25 -1.25,1.9 -4.5,2.2 -6,0.55 z"
       id="path88" />
    <path
       d="m 64.5,66.85 c -1.4,-0.7 -1.95,-2.95 -0.95,-4.15 0.8,-1 3.65,-0.9 4.6,0.2 2.2,2.45 -0.6,5.5 -3.65,3.95 z"
       id="path89" />
    <path
       d="m 36.8,58.25 c -4.1,-3.8 2,-8.35 7.1,-5.25 2.15,1.3 2.3,3.9 0.3,5.45 -1.95,1.55 -5.65,1.45 -7.4,-0.2 z"
       id="path90" />
    <path
       d="M 51.1,57.85 C 48.9,55.5 50.3,53 53.85,53 c 2.2,0 4.15,1.55 4.15,3.35 0,2.65 -4.85,3.7 -6.9,1.5 z"
       id="path91" />
    <path
       d="m 63.7,58.6 c -1.45,-0.2 -2.85,-1.8 -2.6,-2.9 0.1,-0.5 0.75,-1.25 1.55,-1.7 1.2,-0.65 1.5,-0.65 2.75,0 1.85,1.05 2.15,3.6 0.5,4.3 -0.65,0.25 -1.65,0.4 -2.2,0.3 z"
       id="path92" />
    <path
       d="M 62.05,49.8 C 61.7,49.4 61.5,48.45 61.6,47.65 c 0.15,-1.2 0.4,-1.4 1.8,-1.55 2.15,-0.2 3.7,1.1 3.5,2.85 -0.15,1.15 -0.4,1.3 -2.2,1.45 -1.35,0.1 -2.25,-0.1 -2.65,-0.6 z"
       id="path93" />
    <path
       d="M 53.55,49.05 C 52.9,48.9 51.9,48.15 51.35,47.4 50.4,46.15 50.4,46 51.2,44.8 c 1.05,-1.65 3.6,-1.75 5.5,-0.25 2.85,2.25 0.55,5.55 -3.15,4.5 z"
       id="path94" />
    <path
       d="M 39.65,47 C 38.2,46.4 36.9,44.3 37.1,42.95 c 0.2,-1.65 3,-3.15 5.1,-2.75 5.45,1.05 5.8,6.5 0.45,7.1 -1.05,0.1 -2.4,0 -3,-0.3 z"
       id="path95" />
    <path
       d="m 63.85,42.6 c -2.25,-2.5 0.7,-4.85 3.55,-2.8 0.8,0.55 1.1,1.2 1,2.1 -0.15,1.15 -0.4,1.35 -1.95,1.5 -1.2,0.1 -2,-0.15 -2.6,-0.8 z"
       id="path96" />
    <path
       d="m 54.65,39.75 c -1.5,-1.05 -1.55,-3.5 -0.1,-4.25 2.35,-1.3 5.65,0.8 5.35,3.35 -0.15,1.25 -0.35,1.4 -2.15,1.55 -1.25,0.1 -2.45,-0.15 -3.1,-0.65 z"
       id="path97" />
    <path
       d="m 66.8,36.55 c -1.25,-1.35 -0.85,-2.75 0.8,-2.95 2.1,-0.25 3.5,0.75 3.3,2.3 -0.1,1.1 -0.45,1.4 -1.7,1.5 -1,0.1 -1.8,-0.2 -2.4,-0.85 z"
       id="path98" />
    <path
       d="m 42.95,35.85 c -2,-1.35 -2.6,-3.65 -1.15,-4.7 1.55,-1.15 4.95,-0.8 6.65,0.65 1.9,1.6 2,3.3 0.3,4.4 -1.7,1.1 -3.8,1 -5.8,-0.35 z"
       id="path99" />
    <path
       d="m 58.6,32.35 c -2,-2.1 -1.25,-3.85 1.6,-3.85 1.5,0 3.8,1.8 3.8,2.95 0,2.25 -3.6,2.85 -5.4,0.9 z"
       id="path100" />
    <path
       d="M 71.15,31.8 C 70,30.75 69.85,30.4 70.3,29.65 c 0.65,-0.95 2.9,-1 4.05,-0.05 0.9,0.75 0.8,2.75 -0.15,3.1 -1.25,0.45 -1.55,0.4 -3.05,-0.9 z"
       id="path101" />
    <path
       d="M 49.25,27.9 C 47.75,27.1 47,25.95 47,24.45 c 0,-1.5 0.75,-1.95 3.25,-1.95 3.4,0 6.25,4.15 3.8,5.5 -1.25,0.65 -3.5,0.6 -4.8,-0.1 z"
       id="path102" />
    <path
       d="m 64.15,27.25 c -1.45,-1 -1.6,-3.55 -0.2,-4 2.15,-0.65 5.7,2.1 4.75,3.65 -0.75,1.15 -3.2,1.3 -4.55,0.35 z"
       id="path103" />
    <path
       d="m 70.1,23.2 c -1.6,-1.15 -1.35,-3.4 0.45,-3.6 1.7,-0.2 4.05,1.7 3.85,3.1 -0.2,1.35 -2.7,1.65 -4.3,0.5 z"
       id="path104" />
    <path
       d="m 55.35,21 c -1.8,-1.45 -1.9,-3.85 -0.15,-4.3 1.45,-0.35 4.45,0.55 5.3,1.55 0.3,0.4 0.5,1.3 0.4,2.1 -0.15,1.25 -0.35,1.4 -2.2,1.55 C 57.25,22 56.35,21.75 55.35,21 Z"
       id="path105" />
    <path
       d="M 76.65,20.75 C 76,20.3 75.5,19.4 75.5,18.7 c 0,-1 0.25,-1.2 1.4,-1.2 1.95,0 3.7,1.35 3.5,2.65 -0.2,1.4 -2.2,1.7 -3.75,0.6 z"
       id="path106" />
    <path
       d="m 83.05,19.2 c -1.25,-1.6 -1.3,-2.15 -0.3,-2.5 1.95,-0.75 4.5,1.35 3.9,3.2 -0.4,1.05 -2.55,0.65 -3.6,-0.7 z"
       id="path107" />
    <path
       d="m 63.9,17.2 c -2.4,-1.25 -3.05,-3.3 -1.4,-4.2 1.3,-0.7 3.95,0.1 5.25,1.5 0.75,0.85 0.8,1.2 0.35,2.25 -0.65,1.45 -2.15,1.6 -4.2,0.45 z"
       id="path108" />
    <path
       d="M 71.1,14.2 C 69.85,13.35 69.6,11.1 70.75,10.7 72.65,9.95 76,12.05 76,14 c 0,0.8 -0.35,1 -1.9,1 -1.05,0 -2.4,-0.35 -3,-0.8 z"
       id="path109" />
    <path
       d="m 80.55,13.9 c -1.45,-0.5 -2.5,-1.8 -2.55,-3 0,-1.4 3.05,-1.2 4.4,0.25 2,2.1 0.85,3.8 -1.85,2.75 z"
       id="path110" />
    <path
       d="m 87.1,13.35 c -2.2,-2.35 -0.9,-3.9 1.95,-2.4 1.15,0.65 1.75,1.35 1.85,2.25 0.15,1.15 0,1.3 -1.3,1.3 -0.85,0 -1.85,-0.45 -2.5,-1.15 z"
       id="path111" />
  </g>
</svg>
