<svg xmlns="http://www.w3.org/2000/svg" width="263.227" height="60" viewBox="0 0 263.227 60">
  <g id="Livello_3" data-name="Livello 3" transform="translate(0 0)">
    <path id="Path_28" data-name="Path 28" d="M299.293,34.16,307.1,5.2l.074-.2.071-.2.074-.195.082-.195.093-.187.1-.181.107-.181.11-.181.115-.176.115-.176.123-.17.126-.167.134-.162.14-.154.148-.151.154-.143.159-.14.162-.134.167-.129.173-.121.176-.118.181-.107.187-.1.189-.091.195-.085.2-.074.2-.066.2-.055.2-.047.208-.033.217-.025.208-.014h1.04l.211.016.211.019.211.027.208.033.206.044.2.052.2.063.192.08.187.1.181.11.176.115.17.123.165.129.162.134.156.14.154.145.151.167.14.156.134.162.123.167.115.176.107.181.1.187.085.195.071.2.06.2.044.206.025.208v.628L309.287,34.16l-.049.217-.049.219-.049.217-.049.219-.049.217-.052.217-.058.217-.06.217-.066.211-.077.211-.08.208-.088.206-.1.2-.1.2-.11.195-.121.189-.126.184-.132.181-.143.173-.148.167-.156.162-.159.156-.17.148-.173.14-.181.132-.187.123-.189.115-.195.112-.195.11-.195.11-.2.1-.2.1-.206.085-.214.071-.217.058-.22.047-.225.036-.222.022h-.45l-.225-.016-.222-.027-.222-.038-.219-.049-.217-.055-.217-.063-.214-.071-.211-.08-.206-.088-.2-.1-.2-.1-.195-.112-.187-.121L300.714,39l-.176-.14-.165-.151-.154-.162-.14-.176-.126-.181L299.833,38l-.121-.192-.118-.192-.112-.195-.1-.2-.085-.206-.063-.211-.044-.217-.03-.222-.019-.225-.016-.225-.014-.228-.016-.225v-.444l.033-.219.052-.217.06-.217Zm16.361,0-.069.255-.118.518v1l.156,1.034.447.87.623.85.776.6.955.453.955.255.535.069h.51L320.9,40l.513-.132.916-.433.875-.549.735-.667.631-.823.436-.878.324-1.007.219-.952.058-.274.033-.129.025-.093.066-.247.1-.376.129-.48.315-1.171.343-1.273.315-1.171.132-.483.1-.381.069-.25.025-.093.047-.047.143-.134.219-.208.274-.274.694-.658.763-.721.7-.667.294-.274.233-.219.154-.148.066-.06h.966v.016l.038.1.066.181.093.258.274.721.365.957.411,1.119.453,1.24.96,2.62.469,1.278.433,1.182.379,1.034.3.823.214.582.066.178.033.093.074.159.058.118.085.184.049.1.1.189.06.1.39.549.074.082.151.154.085.077.145.123.494.337.187.1.1.049.313.126.639.173.6.088.181.014h.442l.669-.036h.123l.206-.03.11-.019.2-.041.568-.162.192-.077.1-.041.195-.091.107-.055.576-.351.091-.066.165-.132.085-.08.134-.129.39-.45.768-1.081.274-.532.063-.173.038-.112.06-.206.025-.11.11-.667v-.65l-.08-.582-.036-.2-.019-.11-.033-.206V33.42h0l-.038-.1-.077-.195-.115-.274-.145-.37-.178-.442-.428-1.078-.513-1.281-.568-1.426L342.409,25.2l-.593-1.484-.549-1.372-.486-1.215-.392-.988-.156-.39-.123-.31-.088-.222-.052-.126V17.92l.052-.049.126-.115.195-.178.258-.236.315-.291.782-.716.944-.861L343.7,14.5l2.255-2.085,1.125-1.029,1.053-.963.933-.856.771-.708.31-.274.252-.23.187-.17.118-.107.063-.071.112-.156.06-.085.1-.14.255-.475.181-.576.112-.593.025-.549-.069-.549-.159-.593-.036-.1-.069-.178-.041-.093-.077-.17-.247-.483-.1-.159-.055-.085-.107-.156-.066-.088-.4-.466-.417-.379-.464-.3-.549-.247-.59-.181-.549-.107-.173-.019-.1-.014h-.274l-.612.027h-.107l-.189.027-.1.016-.184.036-.518.132-.181.06-.093.033-.274.11-.549.274L343.8,2.1l-.115.082-.074.052H343.6l-.038.033-.11.1-.178.17-.239.225-.3.274-.741.7-.9.853-1.018.96-2.195,2.077-1.1,1.034-1.029,1-.919.867-.76.719-.562.532-.192.181-.123.118-.055.052h0l-.162.189-.326.359-.409.274h-.258l-.214-.091-.132-.192-.027-.255.049-.469.036-.244V11.66l.038-.145.082-.3.118-.439.148-.549.165-.617.741-2.675.156-.582.132-.494.1-.373.063-.228.014-.085V5.01l-.1-.911-.17-.477-.228-.425-.576-.73-.727-.634-.823-.488-.905-.23-.988-.077-.924.025-.968.208-.823.384-.823.576-.653.65-.571.8-.453.823-.181.466-.082.222v.014l-.036.137-.093.34-.14.527-.189.7-.228.85-.274.99-.3,1.114-.329,1.221-.354,1.314-.37,1.394-.8,2.949-1.646,6.131-.79,2.935-.37,1.372-.351,1.3-.326,1.207-.294,1.1-.261.971-.225.823-.181.672-.134.5-.082.313-.03.107M385.917,9.156V8.607l-.019-.346v-.34l-.019-.156-.041-.381-.022-.145-.069-.368-.033-.167V6.64l-.025-.08-.052-.173-.1-.348-.055-.143-.148-.365-.055-.134-.017-.041-.3-.576-.019-.033-.074-.115L384.65,4.3l-.091-.132-.222-.274-.118-.148-.063-.077-.036-.036-.115-.115-.274-.274-.11-.1-.337-.239-.132-.1-.047-.038-.074-.047-.151-.1-.3-.2-.115-.077-.346-.187-.129-.069-.038-.019-.31-.132-.3-.137H381.3l-.129-.049-.354-.151-.151-.052-.348-.1-.178-.052-.093-.027h-.055l-.156-.036-.373-.085-.145-.027-.37-.06-.165-.027h-.145l-.181-.022-.354-.038h-.154l-.39-.03h-.181L376.736,1h-.176l-.39-.016h-.156L375.655.9H362.3l-.2.025-.732.1-.757.178-.7.274-.614.359-1.177.985-.461.549-.4.642-.3.719-.049.165-.03.1v.019l-.058.2-.017.058-.044.165L356.7,5.7l-.1.368-.123.458-.145.549L355.972,8.4l-.428,1.591-.488,1.816-.54,1.981-.568,2.121-1.193,4.439-1.177,4.389-.549,2.052-.51,1.893-.453,1.69-.387,1.44-.165.609-.143.529-.118.444-.1.348-.066.252-.041.148v.038h.118l-.025.1-.047.162-.134.749.1,1.448.1.4.137.313L349.7,38l.4.573.549.491.656.4.667.274.689.2.757.115h.34l.411-.03.689-.145.384-.143.307-.148.667-.373.59-.39.549-.488.5-.587.4-.617.3-.639.247-.721.335-1.413.049-.208.016-.069.052-.192.082-.3.107-.4.129-.477.31-1.144.708-2.634.34-1.262.291-1.075.115-.428.093-.343.063-.236.03-.118h5.629l.047.123.1.274.159.436.2.549.241.667.274.754.617,1.7,1.306,3.588.573,1.58.244.672.206.565.159.439.107.294.049.129h0l.019.044.071.173.036.085.11.288.03.074.074.173.03.071.077.145.121.2.107.145.047.052.126.126.077.08.239.187.063.041.159.1.217.115.143.074.08.03.176.069.071.027.291.088.521.1.233.033.173.019h.074l.187.014h.4l1.015-.063.181-.03.1-.019.291-.069.071-.022.176-.058.219-.085.214-.1.151-.049.063-.038.25-.167.085-.066.145-.11.752-.678.211-.219.06-.066.123-.137.047-.055.11-.132.145-.187.579-.941.036-.074.06-.148.082-.225.052-.178.019-.071.055-.291V34.24l-.03-.093-.082-.247-.126-.384-.165-.5-.2-.609-.225-.689-.51-1.561-.549-1.679-.549-1.646-.486-1.487-.206-.636-.178-.549-.137-.425-.1-.294-.047-.145V22.175l.047-.022.346-.121.167-.058.077-.027.063-.022.162-.055.351-.121.14-.052.357-.137.145-.058.047-.016.093-.044.17-.082.31-.148.036-.019.107-.06.337-.195.112-.066.033-.022.274-.189.159-.107.093-.063.036-.027.121-.093.31-.239.118-.1.274-.241.134-.118.06-.049.052-.049.126-.123.274-.258.1-.11.274-.274.107-.112.033-.036.071-.082.126-.148.225-.274.025-.03.077-.1.241-.315.08-.1.022-.033.192-.274.107-.159.063-.093.025-.038.077-.132.2-.335.074-.132.17-.329.08-.154.033-.066.03-.069.071-.159.148-.337.055-.14.134-.359.055-.143v-.041l.033-.107.055-.181.1-.324v-.038l.03-.123.093-.379.03-.118v-.041l.066-.337.036-.184.019-.1v-.047l.025-.154.23-2.3V9.164Zm-10.076,3.292-.027.337-.044.337-.055.337-.074.329-.088.324-.107.315-.118.3-.151.291L375,15.3l-.208.252-.233.233L374.3,16l-.274.2-.274.181-.3.162-.3.143-.31.123-.316.1-.321.074-.324.049-.329.036-.346.019-.329.033h-7.078l2.167-8.858h6.063l.329.041.329.03.332.033.329.038.324.055.321.085.307.123.294.165.274.2.236.233.192.274.151.294.118.313.093.321.074.324.055.326.036.329.022.329V12.1ZM424.37,15.07v-.979l-.025-.3-.016-.362v-.354l-.019-.222-.063-.689v-.167l-.016-.112-.093-.664-.036-.274v-.08l-.044-.222-.069-.348-.1-.318-.03-.165-.03-.11-.082-.3-.091-.348-.069-.258-.022-.074-.074-.217-.222-.645-.052-.154-.049-.107-.274-.614-.107-.241-.033-.069-.115-.206-.176-.31-.162-.288-.077-.137-.069-.1-.181-.261-.2-.3-.148-.217-.047-.06-.154-.181-.442-.524-.189-.206-.488-.466-.187-.176-.058-.052-.192-.145-.274-.214-.258-.2-.126-.093-.112-.069-.274-.165-.307-.189-.214-.126-.066-.038-.219-.107-.614-.3-.255-.1-.634-.274-.233-.093L416.2,1.06l-.239-.074L415.624.9,415.317.8l-.134-.041-.137-.03-.31-.074L414.387.58l-.241-.055-.074-.016-.244-.041-.667-.121-.274-.038-.678-.08L411.967.2h-.077l-.252-.019-.357-.025-.318-.03h-.277L410.36.1h-1.879l-.68.027h-.313l-.258.027-.354.03-.31.03h-.121l-.154.027L405.971.3l-.348.063L405.394.4l-.074.016-.252.066-.661.184-.115.03-.154.049-.647.217-.219.071-.071.027-.25.1-.335.132-.274.112-.107.044-.151.069-.3.134-.324.145-.206.093-.071.036-.241.121-.606.3-.1.049-.148.082-.6.335-.195.107-.069.041-.23.143-.307.189-.258.156-.093.058-.143.1-.274.187-.288.2-.181.123-.066.047-.217.167-.529.406-.085.063-.134.115-.51.436-.165.14-.06.055-.2.192-.261.247-.219.206-.074.071-.126.132-.233.244-.241.252-.148.154-.058.063-.184.208-.433.5-.066.077-.115.145-.431.543-.132.165-.049.069-.165.23-.211.294-.17.239-.058.08-.1.159-.184.274-.187.291-.112.173-.044.077-.143.244-.329.565-.047.082-.091.17-.318.609-.093.178-.038.08-.274.584-.123.274-.041.082-.077.181-.137.315-.134.313-.08.181-.033.088-.107.274-.236.6-.033.082-.093.176-.23.645-.044.178-.027.088-.2.623-.088.274-.027.085-.06.2-.1.329-.1.329-.052.181-.025.093-.077.274-.093.348-.074.274-.022.085-.047.2-.159.667-.044.181-.019.1-.134.645-.055.274-.016.082-.036.208-.06.343-.058.332-.03.178v.1l-.041.3-.047.357-.038.274v.082l-.022.214-.063.683-.016.176v.1l-.03.664-.014.274v1.27l.016.3.022.362.016.274v.08l.027.222.08.68.022.167.019.11.121.656.049.274.016.08.058.217.091.34.085.321.041.159.038.11.1.291.121.34.088.25.027.071.093.211.274.625.066.148.058.1.321.59.126.23.038.069.129.195.2.3.181.274.085.132.077.1.2.247.225.274.162.2.049.06.165.173.472.5.2.2.51.442.192.17.06.047.2.137.291.2.274.184.121.085.115.063.274.148.313.17.222.121.069.033.222.1.614.274.132.058.033.016.225.1.324.148.294.132.126.058.134.036.31.085.343.1.239.066.071.019.241.066.653.176.274.063.661.129.239.044h.074l.252.022.354.033.315.027.129.014h2.354l.68-.025h.313l.258-.019.359-.025.31-.022h.123l.154-.019.326-.041.348-.041.23-.03h.077l.258-.049.656-.129.115-.022.156-.041.661-.176.222-.06.074-.025.252-.085.343-.112.294-.1.112-.038.154-.06.31-.126.329-.132.214-.082.074-.033.244-.115.612-.274.1-.049.151-.08.612-.321.2-.1.071-.041.233-.14.313-.184.274-.156.093-.058.145-.1.274-.189.291-.195.184-.123.066-.049.217-.167.527-.4.085-.066.134-.115.516-.453.162-.143.06-.055.2-.195.258-.252.214-.208.074-.071.123-.134.23-.247.236-.255.145-.154.055-.066.181-.211.431-.5.066-.077.115-.145.428-.549.129-.165.052-.069.17-.228.214-.294.176-.236.058-.08.11-.156.195-.274.195-.288.118-.17.049-.074.154-.241.354-.549.052-.082.1-.167.351-.593.1-.173.044-.08.31-.573.14-.255.044-.08.091-.178.154-.307.156-.307.088-.176.038-.085.123-.274.274-.59.038-.082.077-.184.274-.634.074-.178.036-.088.23-.612.1-.274.033-.082.063-.192.107-.329.107-.321.06-.181.027-.093.08-.274.1-.346.077-.274.022-.082.047-.2.151-.667.041-.178.019-.1.118-.647.052-.274v-.082l.03-.211.049-.343.047-.335.027-.181v-.1l.03-.3.038-.359.03-.274v-.3l.049-.686v-.283l.022-.667v-.576Zm-10-.3v1.295l-.027.4v.373l-.036.354-.038.373v.222l-.016.134-.052.376-.047.332v.1l-.016.1-.123.167-.066.384-.027.162-.019.107-.019.1-.066.321-.077.359-.027.132v.1l-.027.112-.165.694-.025.091v.027l-.022.082-.041.145-.1.368-.044.167-.033.121-.063.1-.091.274-.115.365-.044.143-.025.08v.025l-.033.091-.118.329-.123.354-.038.11v.033l-.025.06-.052.126-.159.351-.123.3-.041.093-.047.1-.071.154-.165.357-.069.148-.044.1-.014.025-.038.071-.159.3-.178.34-.063.118-.027.052-.022.036-.063.107-.379.631-.047.08-.016.022-.052.077-.088.132-.222.329-.1.145-.069.1-.06.08-.192.25-.241.31-.091.118-.049.063-.019.022-.069.077-.241.274-.244.274-.077.085-.022.022-.049.049-.1.093-.274.258-.236.217-.074.066-.093.066-.134.1-.307.225-.126.1-.08.058-.022.016-.071.038-.291.162-.324.181-.112.06-.044.025-.044.016-.115.047-.343.137-.318.129-.08.03h-.025l-.093.025-.154.044-.376.1-.167.044-.115.033-.1.019-.318.047-.387.06-.145.022h-.214l-.37.016h-.738l-.4-.03-.326-.025h-.1l-.118-.025-.173-.038-.387-.085-.159-.033-.1-.022h-.025l-.082-.033-.316-.126-.346-.137-.115-.044-.044-.019-.041-.027-.1-.069-.3-.2-.274-.184-.069-.044-.019-.016-.066-.071-.107-.115-.274-.274-.112-.123-.077-.082-.058-.08-.173-.274-.206-.326-.077-.118-.038-.06v-.03l-.047-.1-.154-.34-.154-.335-.044-.1V29.17l-.025-.08-.047-.148-.123-.381-.058-.178-.044-.132-.027-.1-.027-.123-.038-.176-.085-.392-.036-.159-.019-.091v-.121l-.093-.721-.016-.123V26l-.066-.373-.016-.335V24.161l.025-.324.03-.376v-.233l.016-.115.047-.359.047-.346.014-.1V22.2l.027-.148.071-.379.055-.3.022-.1.027-.123.041-.17.088-.376.033-.148.019-.082v-.027l.025-.093.192-.691.033-.112v-.036l.019-.06.041-.129.115-.362.1-.313.033-.1.036-.1.058-.156.132-.368.055-.154.036-.1.038-.1.123-.31.14-.351.052-.123.022-.055.016-.036.047-.11.151-.337.143-.318.038-.085v-.025l.041-.077.069-.137.17-.346.08-.156.055-.112.044-.085.151-.274.187-.335.071-.129.038-.071v-.022l.055-.088.379-.606.06-.1.016-.027.038-.055.082-.115.219-.31.187-.274.058-.082.071-.088.107-.132.244-.3.1-.126.063-.08.019-.022.055-.06.233-.25.274-.274.09-.1.036-.038.036-.03.093-.085.274-.258.261-.236.069-.063.019-.016.077-.058.129-.1.315-.239.143-.107.1-.074.085-.055.274-.165.332-.2.126-.077.069-.038h.025l.1-.041.656-.274.1-.041.027-.014.069-.016.137-.036.365-.1.3-.077.1-.022h.115l.167-.019.384-.041.159-.016h.206l.34-.025.373-.027h.348l.373.038.335.03.159.019.313.052.379.06.14.022h.1l.1.036.689.247.1.036h.027l.069.038.129.077.337.2.274.165.082.055.091.082.132.115.291.258.118.1.071.063.016.019.052.071.2.274.211.294.071.1.025.036.019.049.052.115.148.337.129.3.033.074v.025l.025.1.038.159.1.376.041.165.027.11.019.1.041.329.049.39.019.143V13.8l.03.752v.219ZM433.527,5.2l-.019.077-.06.225-.1.362-.137.483-.165.612-.195.719-.219.823-.244.9-.549,2.055-.623,2.307-.669,2.469-.694,2.581-1.391,5.157-.656,2.439-.6,2.228-.274,1.015-.252.935-.228.848-.2.749-.173.645-.143.527-.107.4-.074.274-.033.121h0v.019l-.016.066-.033.123-.11.425v.069l-.022.143v.211l.016.428.071.85.239.8.436.735.08.126.036.055.082.118.044.06.274.326.7.549.774.39.823.274.823.143.85-.027.839-.206,1.542-.842.656-.549.549-.636.45-.713.346-.782.45-1.7.016-.071.03-.14.016-.069.033-.143.022-.077.08-.3.132-.54.2-.732.241-.9.274-1.026.3-1.122.642-2.387.639-2.34.274-1.07.258-.955.217-.807.167-.62.107-.4.041-.148h.823v.016l.055.228.151.466.167.691.211.867.247,1.007.562,2.3.6,2.444.549,2.307.247,1.01.211.87.167.694.118.48.058.23v.044l.058.274.03.137.052.247.025.115v.036l.055.233.03.123v.044l.06.211.121.373.074.2.019.044.052.118.093.217v.033l.055.107.112.228.071.123.132.23.071.112.148.228.074.1.167.225.077.1.181.214.085.093.192.2.093.091.2.178.1.088.208.151.09.066.03.019.208.118.1.06.036.022.206.085.167.071.392.121h.049l.126.03.225.049h.038l.123.019.244.038h.148l.274.027h.137l.274.016h1.355l.274-.019h.137l.274-.025h.148l.252-.03h.162l.233-.036.132-.022h.049l.211-.041.2-.038.184-.044.219-.049.041-.014.121-.033.233-.066h.033l.11-.038.239-.085.126-.052.244-.1.115-.058.239-.126.107-.063.233-.154.1-.069.222-.173.1-.082.2-.187.1-.093.181-.2.093-.107.154-.2.071-.1.022-.03.121-.206.066-.11.025-.038.137-.244.08-.178.069-.184.077-.206v-.044l.041-.121.077-.225v-.036l.041-.112.085-.239.052-.132.1-.247.044-.123.091-.255.033-.121.06-.274.025-.121.041-.274v-.074l.016-.063.055-.208.093-.348.129-.477.162-.6.192-.708.217-.823.244-.9.274-.982.587-2.178.686-2.367.683-2.535,1.4-5.193.661-2.5.631-2.345.571-2.112.255-.946.23-.856.206-.763.176-.653.145-.549.112-.417.074-.274L465,5.208V4.849l-.027-.4-.211-.763L464.372,3l-.524-.62-.628-.549-.689-.433-.754-.225-.79-.1-.8-.03-.8.055-.8.2-.752.34-.667.444-.6.529-.508.6-.439.672-.379.727-.145.4-.071.192-.016.06-.038.137-.06.211-.176.631-.247.872-.3,1.07L453.835,9.4l-.379,1.344-1.591,5.7-.365,1.295-.326,1.158-.274.979-.228.774-.14.5-.041.137v.058h-.565l-.019-.088-.041-.165-.137-.549-.2-.8-.25-1.01-.294-1.177-.324-1.306-.365-1.416-.713-2.875-.346-1.4-.326-1.317-.3-1.2-.258-1.029-.2-.823-.143-.576-.047-.184-.025-.1V5.3l-.022-.069-.074-.244-.036-.107-.074-.244-.036-.11-.077-.239-.038-.115-.085-.23-.047-.121-.091-.219-.058-.132-.1-.2-.071-.145-.1-.176-.2-.3-.118-.159-.112-.121-.151-.165-.107-.1-.178-.156-.1-.082-.211-.151-.1-.066-.217-.137-.1-.055-.23-.115-.107-.047-.241-.093-.1-.036L442.5,1.1l-.112-.03-.244-.049L442.023,1l-.236-.033-.137-.019L440.1.882h-.889L438.961.9h-.115l-.255.025h-.112l-.252.036-.112.019-.247.047-.115.025-.239.063-.118.033-.228.08-.126.044-.211.091-.137.06-.192.1-.148.077-.17.1-.307.2-.17.118-.123.1-.176.143-.1.1-.176.162-.088.093-.173.178-.077.093-.159.195-.069.093-.145.208-.06.093-.129.222-.058.1-.112.225L434,4.124l-.1.225-.055.118-.085.269-.047.1v.027l-.165.348" transform="translate(-215.203 -0.075)" fill="#da251c"/>
    <g id="SPLINE" transform="translate(0 0)">
      <path id="Path_29" data-name="Path 29" d="M14.166,1.875l-.071.265-.2.768-.326,1.224-.433,1.635-.532,2-.617,2.321-.691,2.594-.752,2.826L8.9,21.657,7.171,28.18,5.434,34.705,3.8,40.874l-.754,2.834-.694,2.608-.623,2.34-.538,2.019L.749,52.333.414,53.582l-.211.8-.077.3-.011.066-.055.387L0,55.786.145,57.22l.417,1.329.42.569.518.414.675.3.683.13,1.4-.017.3-.055.208-.052.085-.017.244-.039.436-.13.277-.133,1.237-.735,1.1-.87.908-1,1.775-2.227.016-.019.1-.163.225-.362.34-.55.442-.715.535-.859.612-.989,1.418-2.285,1.591-2.569,1.679-2.7,1.665-2.688,1.566-2.522,1.366-2.2.582-.937.5-.8.4-.646.294-.472.173-.282.047-.075.011-.014.192-.262.343-.472.774-.953,1.805-1.58,1.023-.663,1.2-.268,1.182.033.625.124.48.3.708,1.022.357,1.122.019,2.456.038.072-.052.193-.1.381-.151.558-.195.71-.491,1.818-.6,2.221-1.377,5.08-.7,2.569-.65,2.4-.565,2.08-.439,1.616-.159.591-.115.423-.063.235-.011.041-.008.077-.082.735.011,1.437.543,1.381.365.586.532.514,1.32.508.752.083.716-.072,1.344-.522,1.111-.856,1.909-2.229.724-1.193.192-.343.055-.094.005-.008.063-.1.192-.309.31-.5.42-.669.513-.82,1.262-2.022,1.5-2.4L44.551,42.5,46.2,39.857l1.514-2.426L49,35.376l.527-.84.431-.693.326-.525.211-.337.082-.13,0,0,.011-.019.047-.08.058-.1.151-.26.593-.948.686-.82,1.747-1.4.979-.414,1.1-.157,1.136.033,1,.334.431.4.283.442.414,1.053.14,2.18-.187,1.116-.074.287-.071.221-.132.4-.187.569-.236.713-.59,1.8-.716,2.177L55.54,45.3l-.812,2.47-.754,2.293-.65,1.972-.5,1.511-.178.544-.123.373-.06.191-.008.022-.016.083-.154.8-.088.812.063.74.173.809.31.743.491.561.7.445.774.254.741.069.815-.135.743-.29,1.32-.856,2.247-2.216.905-1.3.181-.3.134-.21.005-.006.008-.017.1-.144.192-.285.277-.414.771-1.155,1.01-1.506,1.171-1.749L67.874,45.6l1.234-1.843L70.219,42.1l.922-1.376.656-.978L72,39.435l.115-.171.022-.033.016-.028.126-.2.176-.279.686-1.39.184-.7.074-.812-.189-1.464-.335-.74-.475-.564-.6-.428-.752-.3-1.437-.268-1.533-.075-.721-.13-.732-.337-1.2-.843-.551-.6-.4-.608-.277-.7-.126-.8.156-1.472.088-.37.033-.133.008-.041,0-.008,0-.017.049-.177.093-.365.14-.533.392-1.5.513-1.961.6-2.285,1.306-4.984L68.1,11.7l.571-2.185L69.147,7.7l.189-.724.151-.577.11-.412.06-.235.014-.047V5.64l.005-.133.011-.26-.005-1.072-.208-1-.453-.931-.793-.707-.96-.37-1.01-.138-1.064.052-1,.262-.914.431-1.671,1.29L60.272,4.648l-.579.884-.063.1-.041.066-.041.072-.145.276-.25.472-.348.652-.431.815L57.3,10.013,56,12.45l-2.913,5.486-1.454,2.738L50.292,23.2l-1.147,2.16-.477.9-.4.746-.307.577-.206.39-.1.182-.008.011-.014.022-.069.094-.387.544-.859,1.127-.977,1.019-1.037.854-1.232.688-1.372.318-1.347-.039-.716-.177-.593-.293-.521-.448-.431-.6-.431-1.279-.011-1.4.022-.387,0-.039v-.008l0-.011.038-.174.088-.384.129-.572.165-.74.2-.892.486-2.155.568-2.519,1.243-5.531.609-2.693.549-2.445.461-2.039.184-.818.148-.657.107-.481.063-.282.016-.069.066-.644.016-1.2-.354-1.171-.785-.981-1.067-.553L39.423,1l-2.444.362-1.119.406L34.8,2.455l-.892.854-.68.978-.568,1.124-.14.287,0,.006,0,.006-.077.166-.173.373L32,6.809l-.34.732-.411.884-1,2.144-1.171,2.514-2.57,5.525-1.256,2.7L24.116,23.76l-.952,2.053-.387.823-.31.669-.228.489-.134.293-.038.08-.025.036-.573.923-1.1,1.622-.785.735-.82.553-.878.448-1.037.318-.99.039-.988-.21-.944-.536-.6-.765-.411-.914-.17-1.066.1-.967.022-.171,0-.041.03-.111.091-.348.145-.561.2-.757.241-.931.6-2.29.713-2.729.779-2.992,1.588-6.091.719-2.76.609-2.34.25-.959.208-.79.156-.6.1-.39.041-.155V3.355l.005-.069.005-.1.036-.945-.151-.942L18.7.568l-.823-.42L16.929.01l-.894.133L15.2.554l-.675.674-.362.646" transform="translate(0 -0.01)" fill="#acacac"/>
    </g>
    <path id="Path_30" data-name="Path 30" d="M917.937,11.4a5.547,5.547,0,1,0,5.547,5.547A5.547,5.547,0,0,0,917.937,11.4Zm0,10.507a4.96,4.96,0,1,1,4.96-4.96A4.96,4.96,0,0,1,917.937,21.907Z" transform="translate(-660.259 -8.275)" fill="#333"/>
    <path id="Path_31" data-name="Path 31" d="M927.643,21.89H925.7a.293.293,0,0,0-.294.3v4.993a.294.294,0,1,0,.587,0V24.82h.905l1.646,2.527a.293.293,0,0,0,.247.134.275.275,0,0,0,.159-.047.294.294,0,0,0,.088-.406L927.6,24.834h.027a2.08,2.08,0,0,0,1.391-.612.3.3,0,0,0,.088-.208V22.724a.294.294,0,0,0-.088-.208A2.107,2.107,0,0,0,927.643,21.89Zm.878,1.981a1.52,1.52,0,0,1-.892.362h-1.646V22.469h1.646a1.542,1.542,0,0,1,.881.359Z" transform="translate(-669.706 -15.888)" fill="#333"/>
    <path id="Path_32" data-name="Path 32" d="M439.745,178.141l-.335,1.339h-3.9l-.776,3.086h3.292l-.337,1.339h-3.292l-1.24,4.888h-1.92l2.68-10.655Zm1.756,3.668-1.756,6.984h1.92l1.756-6.987Zm2.219-2.282v-.173h0v-.066l-.019-.052V179.2h0l-.014-.019-.03-.047-.016-.022-.014-.019v-.016h-.014l-.019-.016-.044-.038-.019-.019h-.052l-.025-.014-.049-.025h-.217l-.052-.014-.055-.014h-.28l-.055.014h-.115l-.052.027h-.036l-.016.014-.082.071-.014.014h0v.033l-.033.047v.022l-.014.019v.016h0v.058l-.019.052v.058h0v.181h0v.176h0v.038l.019.052v.066h0v.019l.014.022.033.047V180l.014.019h0v.014h.019l.019.019.044.038.016.014h.033l.1.049h.06l.055.014h.469l.049-.025.047-.025h.016l.014-.014.017-.016.044-.036.019-.019h.019v-.016L443.5,180l.03-.047.016-.022v-.016h0v-.066l.019-.052v-.022h0v-.181m3.731-1.385-2.521,10.589h1.92l2.68-10.655Zm6.82,2.1h-1.849l-.395,1.572h-1.465l-.293,1.163h1.468l-.886,3.52-.038.178-.038.178-.033.178-.016.184v.368l.033.181.052.176.077.17.1.156.121.137.14.112.156.091.17.069.178.049.187.036.187.025h.733l.184-.014.181-.019.178-.027.178-.033.178-.041.176-.044.176-.052.173-.055.173-.058.173-.06.17-.06.173-.058.173-.058v-1.646l-.1.058-.1.058-.1.06-.1.058-.1.058-.1.055-.1.055-.1.052-.107.049-.107.047-.11.041-.112.038-.112.03-.118.025-.121.016h-.255L453,187.3l-.107-.044-.082-.069-.055-.1-.03-.115v-.381l.016-.118.019-.115.019-.112.807-3.215h1.4l.291-1.163h-1.388Zm3.945,1.572v.055l-.016.069-.022.093-.03.115-.036.137-.038.156-.044.176-.049.192-.052.209-.112.455-.126.5-.132.527-.274,1.1-.137.549-.132.527-.126.5-.112.453-.052.206-.049.192-.044.173-.038.156-.033.134-.03.115-.022.091-.016.066v.041h1.942v-.074l.016-.06.041-.165.052-.211.063-.255.074-.291.08-.315.082-.335.176-.691.17-.675.077-.313.071-.274.063-.247.052-.206.019-.082.019-.071v-.115h0v-.014l.088-.192.09-.167.03-.052v-.016l.019-.027v-.014l.019-.027v-.016l.016-.022.016-.025v-.014l.022-.03h0l.019-.027v-.016l.033-.044.126-.145.151-.148.036-.03.025-.019h0l.027-.022h0l.027-.019h.019l.019-.014.03-.016h0l.033-.019h.014l.027-.014.041-.022.2-.071.187-.047h.414l.181.063.184.1.173.1h.019l.027.016h0l.03.019h.014l.025.019.036.027.162.137h0v-.044l.022-.047.058-.132.077-.167.17-.37.08-.173.063-.14.025-.052.016-.038v-.022h0l-.022-.019-.03-.027h-.014l-.033-.03h0l-.052-.047h-.019l-.033-.027h0l-.036-.025h-.016l-.03-.022-.027-.019h-.019l-.036-.025h-.014l-.036-.022-.022-.014-.06-.038-.208-.107-.041-.014h-.016l-.069-.016h-.664l-.041.014h-.022l-.066.025h-.019l-.041.016-.211.1-.06.033-.022.014-.036.022h-.014l-.038.022h-.016l-.03.019-.03.016h-.019l-.036.025h0l-.036.022-.022.014-.058.038-.2.123-.217.137h0v-.044l.022-.08.025-.1.03-.118.058-.233.025-.1.016-.066V181.9H458.04m13.511,0v.074l-.022.091-.03.123-.038.154-.047.181-.052.206-.058.228-.06.25-.069.274-.071.274-.151.6-.159.634-.173,1.185-.154.612-.14.549-.066.274-.06.239-.055.219-.049.192-.041.17-.036.14-.027.107-.019.077v.038h-1.822v-.027l.027-.11.03-.126v-.082h-.019l-.074.019-.093.022-.063.014h-.022l-.06.019-.093.022-.066.014H467.7l-.071.016-.093.022-.071.016h-.022l-.069.014-.093.022-.071.016h-.091l-.093.019-.077.016h-.085l-.093.014h-.93l-.178-.027h-.08l-.181-.044h-.077l-.176-.063h-.058l-.167-.08-.03-.016h-.036l-.148-.1-.03-.019h-.016v-.016l-.126-.118-.041-.041-.016-.019-.044-.066-.052-.077-.033-.049v-.022l-.033-.069-.038-.088-.027-.058v-.022l-.022-.074-.027-.093-.022-.069v-.1l-.019-.1V185.4l.014-.088v-.08l.019-.088.016-.088v-.077l.022-.085.025-.088v-.08l.027-.082.027-.091V184.5h0v-.022l.03-.08.033-.091v-.052h0v-.019l.033-.077.038-.088.025-.055V184l.036-.071.044-.088.027-.055v-.022l.038-.069.047-.082.033-.06v-.019l.041-.063.052-.08.038-.058.014-.019.044-.058.058-.077.044-.058V183.1l.047-.052.063-.071.052-.055.017-.016.047-.047.071-.063.058-.055.017-.016.049-.038.077-.06.063-.049.022-.016.047-.033.148-.1h.036l.03-.019.156-.091h.038l.03-.016.162-.08h.038l.027-.014.17-.066h.052l.173-.055h.08l.3-.151h.058l.178-.03h.08l.178-.025h4.17Zm-2.107,1.117h-1.407l-.176.014-.176.019-.173.027-.173.036-.17.049-.167.058-.165.069-.159.08-.154.091-.143.1-.134.112-.123.123-.115.132-.107.143-.1.148-.088.154-.082.162-.071.165-.06.173-.052.178-.041.181-.033.184-.027.187-.016.184v.551l.022.176.036.173.052.165.069.156.091.145.112.132.132.118.148.1.156.085.165.066.17.041.176.019h.173l.176-.025.173-.041.173-.052.167-.06.165-.066.159-.08.148-.091.14-.11.123-.123.11-.14.085-.154.066-.162.052-.167.044-.17.047-.17Zm12.7-1.117-1.58,6.891h1.92l1.756-6.987Zm1.646-2.282v-.266h0v-.066l-.019-.052V179.2h0v-.019l-.03-.047-.016-.022v-.036h0l-.019-.016-.044-.038-.019-.019h-.052l-.025-.014-.049-.025h-.08l-.052-.014-.055-.014h-.28l-.055.014h-.129l-.052.027h-.036l-.016.014-.082.071v.014h0v.014l-.014.019-.033.047-.016.022v.036h0v.058l-.019.052v.058h0v.181h0v.176h0v.038l.019.052v.066h0l.014.019v.022l.033.047.014.019v.019h0l.014.014h.019l.019.019.044.038.016.014h.019l.1.049h.06l.055.014h.455l.049-.025.047-.025h.016v-.014l.016-.016.044-.036.019-.019h.016v-.016l.016-.022.03-.047.016-.022v-.016h0v-.066l.019-.052v-.022h0v-.181m9.475,4.921v.765l-.016.121v.112l-.047.228v.033h0v.074l-.033.121-.014.055v.071l-.014.038-.016.055-.038.118-.016.047v.025h0v.03l-.041.107-.044.11v.033h0v.019l-.016.041-.052.11-.044.1v.022h0l-.016.03-.025.047-.063.11-.025.047-.016.03h0v.019l-.06.091-.069.1-.022.036v.016h0l-.025.03-.074.093-.071.088-.019.025h0l-.019.022-.036.036-.085.091-.041.041-.027.03-.022.022-.033.027-.044.038-.093.082-.036.03-.019.016h0l-.027.019-.093.066-.1.069-.027.019h-.019l-.041.022-.107.058-.049.027-.041.022-.027.014h-.033l-.052.019-.112.047-.049.019h-.055l-.1.03-.115.033h-.11l-.118.022-.11.019H490.4l-.126.014h-.845l-.129-.016h-.241l-.129-.027h-.115l-.112-.03-.121-.036H488.5l-.038-.014-.118-.044-.107-.041h-.025l-.03-.014-.047-.022-.112-.058-.049-.022-.033-.016-.027-.016-.082-.058-.1-.063-.036-.025-.019-.014h0l-.025-.022-.08-.074-.08-.074-.025-.022h0v-.019l-.027-.036-.069-.091-.03-.044-.025-.033-.016-.025-.016-.033-.022-.047-.052-.107-.022-.041v-.025h0v-.027l-.033-.1-.036-.112v-.036h0v-.06l-.025-.121-.022-.1v-.025h0v-.088l-.016-.129v-1.237l.016-.132V185.2h0v-.033l.044-.239v-.038h0v-.063l.03-.123.025-.107v-.022h0v-.033l.016-.052.038-.121.016-.052v-.033h0v-.022l.038-.1.044-.115.016-.038v-.019h0l.016-.033.049-.107.049-.1v-.027h0l.016-.025.025-.041.063-.1.027-.047.022-.036.016-.025.025-.033.033-.047.074-.1.03-.038v-.019h0l.022-.025.156-.17.025-.027h0l.016-.014.033-.033.093-.082.044-.041.033-.03.025-.022.03-.022.044-.033.1-.08.044-.03.025-.022h.022l.093-.06.1-.066.038-.022h.014l.036-.019.107-.055.1-.052.025-.014h.027l.049-.019.115-.047.052-.019h.107l.058-.016.118-.033h.1l.225-.038h1.048l.121.016h.263l.121.014h.115l.225.041h.055l.044.016.115.041.055.019.038.014h.03l.033.019.047.027.11.066.041.025.027.016h0l.022.019.088.074.091.077.033.027h0v.014l.027.033.08.093.071.082.019.019h0l.016.027.03.044.069.1.03.047.019.03.014.03.022.041.025.052.055.11.019.041v.019h0v.036l.079.219v.03h0v.071l.03.123.014.055v.167l.019.123v.4Zm-1.372.351v-.431l-.016-.071V184.3l-.047-.129v-.019h0v-.025l-.03-.063-.016-.033v-.058l-.016-.025-.038-.063-.019-.025v-.016h0v-.014l-.041-.047-.047-.055-.016-.016h0l-.016-.016-.055-.044-.049-.044h-.041l-.063-.038-.027-.016h-.091l-.066-.025h-.049l-.132-.025h-.966l-.132.022h-.063l-.069.019h-.1l-.03.014-.069.027h-.055l-.058.03-.063.03h-.044l-.06.038-.052.033h-.014l-.025.016-.058.047-.027.019-.016.014h0l-.019.019-.027.022-.052.049-.019.019h0l-.014.016-.091.1-.014.014h0l-.016.022-.044.058-.019.027-.014.019h0v.019l-.016.027-.038.063v.038h0v.016l-.027.058-.03.06v.019h0v.022l-.027.066-.022.058v.014h0v.047l-.022.071v.049h0v.074l-.017.071v.069l-.025.137v1.062l.014.069v.063l.022.063.019.06v.016h0v.025l.03.06.014.027v.019h0v.019l.019.025.041.055.014.019h0l.047.041.047.044.016.014h0l.022.014.058.038.049.03H489l.066.033.027.014h.033l.06.022.069.027h.066l.071.022.063.016h.071l.077.016h.908l.069-.014h.063l.069-.019.06-.016h.063l.066-.027h.088l.03-.016.063-.033h.022l.016-.014.055-.038.055-.038h.016l.022-.016.055-.049.025-.022.019-.016h.014v-.016l.025-.025.049-.052.019-.022h0v-.014l.041-.049.041-.055.016-.019h0l.016-.022.038-.058.033-.052v-.014h0v-.016l.014-.027.036-.063V186.2h0l.025-.055.03-.066v-.022h0v-.022l.025-.063.025-.06v-.019h0v-.044l.022-.069v-.126l.019-.071v-.08l.027-.132v-.579Zm6.035-2.99h0v.069l.154-.005-.041.162-.055.214-.066.274-.077.307-.085.343-.1.373-.1.4-.1.414-.2.861-.217.861-.1.417-.1.4-.093.376-.088.346-.077.31-.069.274-.055.222-.041.167-.016.06v.077H498.2v-.016l.014-.06.027-.1.036-.143.044-.176.052-.206.058-.233.063-.255.14-.549.151-.593.148-.6.143-.568.066-.261.063-.244.055-.219.047-.189.041-.159.03-.123.019-.082v-.036l.016-.025.033-.047.019-.027.016-.022.033-.047.019-.027v-.022l.033-.047.019-.027.016-.022.033-.044.022-.027.016-.019.038-.041.022-.027.019-.016.038-.038.027-.022.019-.016.044-.033.027-.022.022-.014.047-.038.03-.019h.022l.049-.027.033-.019h.022l.049-.025.033-.016h.022l.052-.025.036-.016h.022l.052-.022.036-.014h.022l.052-.019h.058l.052-.016.038-.014h.022l.052-.016h.886l.093.03h.019l.049.025.038.016h.016l.082.055.014.014.038.036.03.033h0l.058.08v.016l.025.047.019.041v.019l.03.093v.529l-.066.329v.115h0v.027l-.019.066-.025.1-.033.134-.041.165-.049.189-.052.211-.058.23-.126.5-.132.524-.132.524-.123.494-.058.225-.052.208-.047.187-.038.159-.033.129-.025.1-.016.06v.027h1.827v-.052l.022-.085.027-.112.036-.14.041-.162.044-.181.049-.2.11-.431.115-.458.115-.461.11-.433.049-.2.047-.184.041-.167.036-.143.03-.118.022-.091.016-.06v-.036l.019-.074.016-.074v-.027l.036-.148v-.027l.016-.074.019-.077v-.025l.033-.151v-.2l.022-.151v-1.133l-.016-.066-.022-.08v-.027l-.025-.066-.033-.077v-.027l-.033-.058-.044-.074v-.025l-.044-.055-.052-.066v-.019h0l-.047-.047-.06-.058-.016-.016h0l-.055-.038-.069-.049h-.019l-.06-.03-.074-.036h-.022l-.063-.025-.08-.027h-.085l-.082-.022H501.54l-.085.014h-.093l-.085.016h-.085l-.121-.025h-.082l-.085.019h-.08l-.085.022h-.08l-.082.025h-.09l-.082.022h-.091l-.085.025h-.08l-.085.025H500l-.082.025h-.03v-.027l.022-.085.055-.217.022-.082v-.022h-1.827M389.99,178.141l-2.68,10.652h1.92l1.229-4.891h3.292l.337-1.339h-3.3l.776-3.086h3.915l.337-1.339Zm8.735,0-2.68,10.652h1.92l2.68-10.655Zm4.247,3.668v.019l-.014.052-.022.088-.03.115-.036.14-.041.162-.044.181-.049.2-.11.431-.115.458-.115.458-.11.433-.049.2-.047.184-.041.165-.036.143-.03.118-.022.088-.022.058v.022h0v.033l-.022.082v.049h0v.033L402,185.8l-.1.444-.014.085v1.18l.014.085v.058h0v.027l.022.082v.058h0v.027l.033.08.014.036v.019h0v.022l.044.077.019.033v.019h0l.016.022.055.069.025.03.014.019h0l.019.019.063.06.027.027h.016l.022.016.069.047.033.025h.044l.074.038.036.016h.047l.08.027.06.022h.025l.082.022.063.016h.033l.085.016h1.2l.082-.014h.1l.08-.014.069-.014h.03l.08-.014.069-.016h.027l.08-.016.069-.016h.027l.08-.019.069-.016h.027l.077-.022.071-.019h.025l.148-.044h.027l.077-.022.071-.022h.025l.148-.041h.025l.077-.022.071-.019h0v.027l-.022.085-.027.11-.027.11-.022.08v.025h1.827v-.08l.016-.063.041-.17.058-.222.066-.274.08-.313.088-.348.093-.376.1-.4.1-.417.217-.861.217-.861.1-.414.1-.4.093-.37.085-.34.077-.3.066-.274.052-.214.041-.159.014-.055v-.066h-1.827v.022l-.016.069-.027.11-.038.145-.047.181-.052.211-.058.236-.066.255-.14.549-.151.6-.148.6-.143.549-.066.274-.06.241-.052.214-.047.187-.041.154-.027.118-.019.074v.033h0l-.027.041-.03.041v.014l-.195.274v.014l-.03.036-.033.038h-.014l-.071.069h-.014l-.036.027-.041.033h0l-.085.055h-.014l-.041.025-.047.025h-.016l-.088.047h-.016l-.044.019-.049.022h-.016l-.093.038h-.058l-.052.019h-.016l-.093.03h-.019l-.044.014h-.069l-.1.022h-.765l-.055-.019h-.019l-.038-.016-.049-.025h-.019l-.033-.022-.047-.033h-.016l-.03-.027-.038-.038-.016-.016-.022-.03-.036-.047-.014-.019-.016-.033-.027-.052v-.019l-.014-.036-.016-.055v-.875l.014-.055v-.176l.016-.074.027-.107.036-.14.044-.167.047-.195.055-.214.058-.23.126-.5.132-.527.132-.521.123-.491.055-.225.052-.2.047-.181.038-.156.03-.126.025-.091.014-.055v-.014h-1.745m9.854,0-1.756,7.157h1.92l1.756-6.987Zm2.219-2.282v0h0v-.066l-.019-.052V179.2h0l-.014-.019-.03-.047-.016-.022-.014-.019v-.016h-.014l-.019-.016-.044-.038-.019-.019H414.8l-.025-.014-.049-.025h-.079l-.052-.014-.055-.014h-.28l-.055.014h-.129l-.052.027h-.036l-.156-.06-.082.071-.014.014h0v.033l-.033.047-.014.022-.014.019v.016h0v.058l-.019.052v.058h0v.181h0v.176h0v.038l.019.052v.066h0v.019l.014.022.033.047.014.019.014.019h0v.014h.019l.019.019.044.038.016.014h.033l.1.049h.06l.055.014h.469l.049-.025.047-.025h.017l.014-.014.016-.016.044-.036.019-.019h.019v-.016l.016-.022.03-.047.016-.022v-.016h0v-.066l.019-.052V179.7h0v-.181m10.359-1.385-2.62,10.424-.362.041-.362.047-.365.044-.362.044-.365.036-.365.025h-.368l-.192,0-.368-.036-.365-.06-.357-.088-.346-.123-.335-.159-.315-.2-.288-.239-.244-.274-.192-.307-.134-.337-.088-.359-.044-.373v-.376l.025-.376.058-.37.082-.365.112-.354.137-.343.165-.326.2-.31.23-.274.261-.274.274-.239.307-.214.321-.184.337-.148.348-.112.357-.08.365-.052.365-.03h1.835l.922-3.668Zm-3.125,4.831h-1.863l-.055.014-.055.016h-.06l-.044.016-.055.019-.052.019h-.033l-.027.014-.1.047-.044.022h-.025l-.033.022-.1.058-.038.022h-.033l-.036.027-.093.066-.03.022h0l-.022.019-.038.033-.085.071-.022.019h0l-.027.027-.038.038-.041.041-.033.033-.025.027-.027.033-.038.044-.036.044-.025.03h0l-.017.022-.06.091-.027.041-.016.025h0l-.016.033-.052.1-.022.041v.033l-.016.038-.044.1-.014.036h0v.025l-.014.047-.033.107v.03h0v.088l-.014.055v1.522l.016.11v.027h0v.038l.016.052.016.055v.044l.014.033.019.041.025.049.022.049.016.033h0l.016.022.063.085.03.041.016.025h0l.025.027.082.074.033.033h.027l.038.027.093.066.033.022h0l.025.014.044.025.1.055.027.014h0l.033.014.052.022.055.022.044.019h.077l.055.016.055.016.038.014h.074l.058.014h0l.112.014h.606l.1-.019h.455v-.11l.014-.058.016-.066.019-.077.047-.178.052-.211.06-.233.063-.255.069-.274.145-.573.145-.587.074-.288.069-.274.066-.261.06-.241.055-.214.047-.187.038-.154v-.063l.014-.052v-.091Zm55.551-2.743h-1.849l-.4,1.572h-1.468l-.291,1.163h1.629l-.883,3.52-.038.178-.041.176-.03.181-.019.184v.368l.033.181.055.176.077.167.1.156.121.14.137.112.159.091.17.069.178.049.184.036.189.025h.738l.181-.019.181-.027.178-.033.176-.041.176-.044.176-.052.173-.055.173-.058.173-.06.173-.06.173-.058.173-.06v-1.646l-.1.058-.1.058-.1.06-.1.058-.1.058-.1.055-.1.055-.1.052-.1.049-.11.047-.11.041-.11.038-.115.03-.118.025-.121.016h-.252l-.123-.022-.107-.044-.082-.069-.052-.1-.03-.115v-.381l.017-.118.019-.115.019-.112.809-3.215h1.4l.294-1.163h-1.4Z" transform="translate(-279.222 -128.848)" fill="#201c19"/>
  </g>
</svg>