<svg version="1.1" xmlns="http://www.w3.org/2000/svg" x="0" y="0" width="133" height="66.5" viewBox="0 0 133 66.5" xml:space="preserve"><style>.st1{fill:#fff000}</style><path fill="#007d50" d="M0 0h133v66.5H0z"/><path class="st1" d="M14.6 30.3H8.4V8.2h8.9l3.8 6.9 1.2 2.2 1.2-2.2L27 8.2h9.3v22.2H30l.2-15.6-7.9 14.5-7.8-14.5c0 1.2.1 15.5.1 15.5M78 8.2c1.5 2.3 3 4.8 4.6 7.1 1 1.6 2.1 3.1 3 4.7.8 1.2 1.4 2.5 2.1 3.7-.1-2.3-.3-4.6-.3-6.9V8.2h6.4v22.2h-8.5c-1.2-2-2.5-4-3.8-5.9-1.3-1.9-2.6-3.8-3.7-5.8-.7-1.3-1.4-2.5-2.1-3.8.1 3.1.3 6.2.3 9.4v6.2h-6.3V8.2H78zM108.5 8.2c1.5 2.3 3.1 4.8 4.6 7.1 1 1.6 2.1 3.1 3 4.7.8 1.2 1.4 2.5 2.1 3.7-.1-2.3-.3-4.6-.3-6.9V8.2h6.4v22.2h-8.5c-1.2-2-2.5-4-3.8-5.9-1.3-1.9-2.6-3.8-3.7-5.8-.7-1.3-1.4-2.5-2.1-3.8.1 3.1.3 6.2.3 9.4v6.2h-6.3V8.2h8.3zM25.5 36.2v4.3H15.2v4.7h9.9v4.3h-9.9v8.8H8.3V36.2zM29.9 36.3h7v22.1h-7zM50.1 36.2v17.6h8.7v4.5H43.2V36.2zM76.4 36.3v4.4h-6.3v17.6h-6.8V40.7h-6.4v-4.4zM98.1 36.2v4.3H87v4.4h10.5v4.2H87v5h11.5v4.2H80.2V36.2z"/><g><path class="st1" d="M116.2 36.2l1.7.1c.9.1 3.9.4 5.5 2.8.3.5.8 1.5.8 3 0 .6-.1 2.1-1.3 3.4-.9 1-2.1 1.5-3.5 2 .1 0 .6.3 1 .5 1 .7 1.5 1.8 2 2.8l3.1 7.5h-7.2l-1.9-5.3c-1.2-2.9-2.1-3.3-5.6-3.2v8.5H104V36.2h12.2zm-5.5 9.4h2.8c.5 0 3.9.1 3.9-2.6 0-.9-.4-2.2-2.8-2.5-.6-.1-2.1-.1-3.9-.1v5.2z"/></g><path class="st1" d="M57.2 8.2l9.6 22.1h-7.3l-1.9-4.5h-9.7l-2 4.5h-6.8l9.6-22.1h8.5zm-7.7 13.5H56l-3.2-8.9-3.3 8.9z"/></svg>
