<svg viewBox="0 0 260 37" xmlns="http://www.w3.org/2000/svg" class="Icon logo"><path d="M260 36.1111H0L18.2683 0h13.4705l-16.423 33.2752H260v2.8359zM257.048 6.23909c1.66 0 2.952-1.32344 2.952-3.02501S258.708.189062 257.048.189062c-1.661 0-2.953 1.323448-2.953 3.025018 0 1.5125 1.292 3.02501 2.953 3.02501zm0-5.671901c1.476 0 2.583 1.134381 2.583 2.646891 0 1.5125-1.107 2.64688-2.583 2.64688-1.477 0-2.584-1.13438-2.584-2.64688 0-1.51251 1.292-2.646891 2.584-2.646891z" fill="#e40520"></path><path d="M256.309 3.40314h.739c.369 0 .738 0 .738.56719 0 .37813 0 .75625.369.94532h.553v-.18907c-.369 0-.369-.37812-.369-.94531 0-.37813-.184-.75626-.553-.75626.553 0 .738-.37812.738-.94531 0-.75626-.738-.94532-1.292-.94532h-1.292v3.5922h.554V3.40314h-.185zm.739-1.51251c.369 0 .738 0 .738.56719s-.369.56719-.923.56719h-.738V1.89063h.923zM74.9184 19.0954c-.3691.1891-.9226.5672-.9226 1.1344 0 1.8906 3.6905 1.8906 4.7977 1.8906 1.2917 0 5.1668-.189 5.1668-2.0797 0-1.7016-1.6608-.189-1.6608-3.9703 0-2.4578-.369-2.4578 3.3215-2.4578 1.2917 0 1.6608 0 1.6608 1.3234 0 5.4828-1.8453 3.2141-1.8453 5.2938 0 1.7016 3.3215 1.8906 4.4287 1.8906 5.1667 0 5.1667-1.3234 5.1667-2.0797 0-.7562-.369-.7562-.9226-1.1344-.7381-.3781-.7381-.7562-.7381-1.7015v-6.8063c0-4.34847.369-4.15941 1.1072-4.53753.5535-.18907.7381-.75626.7381-1.32345 0-1.89063-3.5061-1.89063-4.7978-1.89063-5.1667 0-5.1667 1.51251-5.1667 2.0797 0 .75625.5535.94531.9226 1.32344.3691.18906.7381.37813.7381 3.21408 0 .75629 0 1.13439-1.6607 1.13439h-1.2917c-1.2917 0-1.8453.1891-1.8453-1.32346 0-2.45782.1845-2.64688.7381-3.02501.5536-.37813 1.1072-.75625 1.1072-1.51251 0-1.70157-2.9525-1.70157-4.0597-1.70157-1.4762 0-5.9048.18907-5.9048 2.26876 0 .56719.5535.75626.9226.94532.9226.56719 1.1072 0 1.1072 6.99537.1845 5.6719-.1846 5.4828-1.1072 6.05zM98.3534 6.42816c.3691.37813.5536 1.13438.5536 4.53754v2.6469c0 3.7812-.1845 4.7266-.5536 5.1047-.369.5672-1.2917.5672-1.2917 1.5125 0 1.7016 3.3213 1.7016 4.4283 1.7016 5.721 0 5.905-1.1344 5.905-2.0797 0-.7563-.553-.9454-1.291-1.3235-.554-.189-.923 0-.923-4.9156v-2.6469c0-1.89065 0-4.34848.554-4.91567.553-.75625 1.66-.56719 1.66-1.70157 0-1.89063-3.137-1.89063-4.797-1.89063-.554 0-5.9053 0-5.9053 1.89063 0 1.32344 1.1072 1.32345 1.6607 2.0797zM111.086 14.5579c0 .9453 0 2.8359-.369 3.5922-.554 1.5125-2.03.7562-2.03 2.2687 0 1.1344.738 1.7016 4.798 1.7016 6.274 0 6.089-1.1344 6.089-1.8906 0-2.0797-2.583.189-2.583-3.7813 0-2.8359-.185-3.025 1.107-3.025 2.768 0 1.107 3.025 2.768 3.025 1.845 0 1.845-3.2141 1.845-4.5375 0-1.1344-.184-3.97034-1.661-3.97034-1.845 0-.553 2.45784-2.583 2.45784-1.476 0-1.476-.3781-1.476-.94533 0-3.97033.738-3.78127 2.214-3.78127 4.982 0 4.06 2.83595 5.905 2.83595.923 0 1.476-.94531 1.476-1.89063 0-1.89063-1.107-3.97033-2.03-3.97033-.369 0-5.535.18906-6.089.18906-2.214 0-6.828-.18906-7.566-.18906-.922 0-2.029.37813-2.029 1.51251 0 1.5125 1.66.37812 2.029 2.64688.185 1.13438.185 2.83595 0 3.78132v3.9703h.185zM129.17 6.42816c.369.37813.553 1.13438.553 4.53754v2.6469c0 3.7812-.184 4.7266-.553 5.1047-.369.5672-1.292.5672-1.292 1.5125 0 1.7016 3.321 1.7016 4.429 1.7016 5.72 0 5.904-1.1344 5.904-2.0797 0-.7563-.553-.9454-1.291-1.3235-.554-.3781-.923-.189-.923-4.9156v-2.6469c0-1.89065 0-4.34848.554-4.91567.553-.75625 1.66-.56719 1.66-1.70157 0-1.89063-3.136-1.89063-4.797-1.89063-.554 0-5.905 0-5.905 1.89063.184 1.32344 1.107 1.32345 1.661 2.0797z" fill="#e40520"></path><path d="M260 28.5486H37.4592L51.2988 0h12.5479L51.8524 25.7126H260v2.836z" fill="#e40520"></path><path d="M260 32.3298H19.1909L35.2448 0h11.6253L32.846 29.4939H260v2.8359z" fill="#e40520"></path><path d="M152.974 7.56254c.184 2.07969.184 8.88596-.369 10.77666-.369 1.3234-1.846.5671-1.661 2.0796.184 1.5126 1.661 1.8907 5.72 1.8907 1.292 0 5.352.189 5.167-1.8907-.184-1.3234-1.845-.5671-2.03-2.2687-.553-4.1594 0-4.1594.554-4.1594 1.476 0 .369 2.8359 2.214 2.8359 2.215 0 1.845-3.9703 1.661-5.4828-.185-1.1344-.554-2.83595-2.03-2.83595-2.03 0-.553 2.45785-2.399 2.45785-.369 0-.553 0-.553-.3781V7.37347c0-.94531 0-1.32344 2.399-1.32344 2.767 0 2.029 2.83595 4.059 2.83595 1.292 0 1.661-1.13438 1.476-2.26876-.184-1.32344-1.476-3.97033-2.952-3.97033-.185 0-.369 0-.738.18906-.369 0-1.107.18907-2.215.18907h-4.059c-.923 0-1.845-.18907-4.06-.18907-1.107 0-2.768.37813-2.583 1.70157.553 2.0797 2.03.56719 2.399 3.02502zM168.105 20.2298c.185 1.7016 1.845 2.0797 6.274 2.0797 1.292 0 4.982 0 4.798-1.8907-.185-1.7015-2.03-.5671-2.215-2.8359v-1.7016l.185-7.56251V6.80628c0-1.70157 2.214-.56719 2.03-2.26876-.185-1.51251-1.661-1.70157-5.905-1.70157-5.536 0-4.982 1.32345-4.982 1.70157.184 1.70157 2.029.75626 2.029 2.0797V16.8266c0 3.0251-2.398 1.7016-2.214 3.4032zM182.498 6.80628c.185 2.0797.185 9.64222-.184 11.15472-.369 1.7016-2.03.9453-1.846 2.6469.185 1.1344 1.108 1.5125 2.03 1.5125h11.072c.554 0 .923 0 1.107.1891.185 0 .554.189.923.189 1.845 0 2.214-3.5922 2.214-5.1047-.184-1.1343-.738-1.8906-1.845-1.8906-1.845 0-.923 3.4031-4.244 3.4031-.554 0-1.846.1891-2.215-.5672-.184-.3781-.184-1.1343-.184-1.5125l-.369-7.94062c-.185-4.53752 2.583-1.70157 2.214-4.1594-.184-.94531-.738-1.70157-4.06-1.70157-4.982 0-7.012.37813-6.827 1.89064.184 1.32344 2.03.75625 2.214 1.89063zM197.999 9.64223c2.398 0 1.66-3.40314 2.952-3.40314.554 0 .738.56719.738.94532 0 .37813.185 9.45319-.184 11.15479-.369 1.3234-2.215.5671-2.03 2.0796 0 .5672.369 1.8907 5.167 1.8907 5.535 0 6.274-1.1344 6.274-1.8907-.185-1.7015-2.03-.3781-2.399-2.8359-.185-2.2688-.185-6.6172-.185-8.12973 0-1.89063-.184-3.02501.738-3.02501 1.107 0 1.292 3.40314 3.322 3.40314 1.476 0 2.03-1.32345 1.845-2.64689-.185-1.32344-1.476-4.34846-3.137-4.34846-.369 0-.554 0-.923.18906-.369 0-.738.18907-1.845.18907h-7.566c-.369 0-.738 0-.922-.18907-.369 0-.554-.18906-.738-.18906-2.03 0-3.137 3.21408-2.953 4.91565-.184.94532.554 1.89063 1.846 1.89063z" fill="#e40520"></path><path d="M214.422 20.6079c.184.9453.738 1.5125 2.398 1.5125 1.108 0 2.399-.189 3.506-.189h8.673c.369 0 .554.189.554.189.923 0 2.583-2.0797 2.214-4.7266-.184-1.1343-.553-2.2687-1.845-2.2687-2.214 0-.738 3.5922-4.982 3.5922-1.661 0-1.846 0-2.03-1.7016-.185-.7562-.738-3.4031.369-3.4031 1.661 0 .369 2.8359 2.399 2.8359 1.845 0 1.845-3.5922 1.661-4.9156-.185-1.1344-.554-3.40317-2.215-3.40317-1.661 0-.369 2.45787-2.03 2.45787-.922 0-.738-.1891-.738-1.32349 0-2.83595-.369-3.40314 2.215-3.40314 3.137 0 2.214 2.64689 4.428 2.64689 1.107 0 1.477-1.13438 1.292-2.0797-.369-2.64689-1.845-3.97033-2.768-3.97033-.184 0-.554 0-.923.18906-.369 0-.922.18906-1.845.18906H216.451c-1.291 0-2.583.37813-2.398 1.89064.184 1.5125 1.66.75625 2.029 2.83595.185 2.0797.185 8.50786-.369 10.39846.185 1.8907-1.476 1.1344-1.291 2.6469zM233.982 5.86097c.369.18906.553.18906.738.56719.553 2.26876.553 9.64224 0 11.53284-.369.9453-.185 1.1344-1.108 1.3235-.553.189-.738.3781-.738.9453.185 2.0797 4.06 1.8906 5.167 1.8906 1.292 0 5.351 0 4.982-1.8906 0-.5672-.553-.7563-.922-1.1344-.738-.3781-.738-.5672-.738-1.3234l-.185-3.4032c0-.7562 0-.7562.738-.7562.554 0 1.292.189 1.476.9453 1.292 3.025.37 7.5625 6.09 7.5625 1.107 0 3.69-.3781 3.506-2.0797 0-.5672-.738-.7562-1.107-.9453-.369-.1891-.554-.1891-.738-.7563-.554-1.3234-.554-3.214-1.107-4.7265-.37-.7563-.739-.9454-1.292-1.3235-.369-.189-.554-.3781-.554-.7562 0-.7563 2.768-1.3235 2.215-4.72662-.554-3.21408-3.137-4.34846-6.274-4.15939h-8.673c-1.107 0-2.584.37812-2.399 1.89063-.185 1.13438.184 1.13438.923 1.32345zm7.75-.18907c1.107 0 1.476.75626 1.66 1.70157.185 1.13438.185 3.59223-1.476 3.59223-.738 0-.738-.3781-.738-.9453V6.99535c0-.56719-.184-1.32345.554-1.32345z" fill="#e40520"></path></svg>
